SeanSlab_1.ufo
<glyph name="space" format="1">
  <advance width="489"/>
  <unicode hex="0020"/>
  <outline>
    <contour>
      <point x="254" y="669" type="move" name="top"/>
    </contour>
    <contour>
      <point x="300" y="-1" type="move" name="bottom"/>
    </contour>
  </outline>
</glyph>
<glyph name="quotedbl" format="1">
  <advance width="452"/>
  <unicode hex="0022"/>
  <outline>
    <contour>
      <point x="124" y="658" type="line"/>
      <point x="127" y="846" type="line"/>
      <point x="97" y="846" type="line"/>
      <point x="100" y="658" type="line"/>
    </contour>
    <contour>
      <point x="353" y="658" type="line"/>
      <point x="356" y="846" type="line"/>
      <point x="326" y="846" type="line"/>
      <point x="329" y="658" type="line"/>
    </contour>
  </outline>
</glyph>
<glyph name="numbersign" format="1">
  <advance width="862"/>
  <unicode hex="0023"/>
  <outline>
    <contour>
      <point x="50" y="247" type="line"/>
      <point x="704" y="247" type="line"/>
      <point x="711" y="269" type="line"/>
      <point x="58" y="269" type="line"/>
    </contour>
    <contour>
      <point x="148" y="492" type="line"/>
      <point x="803" y="492" type="line"/>
      <point x="810" y="513" type="line"/>
      <point x="156" y="513" type="line"/>
    </contour>
    <contour>
      <point x="503" y="39" type="line"/>
      <point x="795" y="722" type="line"/>
      <point x="771" y="722" type="line"/>
      <point x="478" y="39" type="line"/>
    </contour>
    <contour>
      <point x="125" y="46" type="line"/>
      <point x="412" y="722" type="line"/>
      <point x="388" y="722" type="line"/>
      <point x="102" y="46" type="line"/>
    </contour>
  </outline>
</glyph>
<glyph name="dollar" format="1">
  <advance width="689"/>
  <unicode hex="0024"/>
  <outline>
    <contour>
      <point x="85" y="99"/>
      <point x="63" y="99"/>
      <point x="85" y="99" type="curve"/>
      <point x="85" y="219"/>
      <point x="85" y="99"/>
      <point x="85" y="219" type="curve"/>
      <point x="63" y="219"/>
      <point x="85" y="219"/>
      <point x="63" y="219" type="curve"/>
      <point x="63" y="99"/>
      <point x="63" y="219"/>
      <point x="63" y="99" type="curve"/>
    </contour>
    <contour>
      <point x="585" y="631"/>
      <point x="607" y="631"/>
      <point x="585" y="631" type="curve"/>
      <point x="585" y="511"/>
      <point x="585" y="631"/>
      <point x="585" y="511" type="curve"/>
      <point x="607" y="511"/>
      <point x="585" y="511"/>
      <point x="607" y="511" type="curve"/>
      <point x="607" y="631"/>
      <point x="607" y="511"/>
      <point x="607" y="631" type="curve"/>
    </contour>
    <contour>
      <point x="337" y="-43"/>
      <point x="312" y="-43"/>
      <point x="337" y="-43" type="curve"/>
      <point x="337" y="-9"/>
      <point x="337" y="25"/>
      <point x="337" y="59" type="curve"/>
      <point x="312" y="59"/>
      <point x="337" y="59"/>
      <point x="312" y="59" type="curve"/>
      <point x="312" y="25"/>
      <point x="312" y="-9"/>
      <point x="312" y="-43" type="curve"/>
    </contour>
    <contour>
      <point x="353" y="671"/>
      <point x="329" y="671"/>
      <point x="353" y="671" type="curve"/>
      <point x="353" y="705"/>
      <point x="353" y="739"/>
      <point x="353" y="773" type="curve"/>
      <point x="329" y="773"/>
      <point x="353" y="773"/>
      <point x="329" y="773" type="curve"/>
      <point x="329" y="739"/>
      <point x="329" y="705"/>
      <point x="329" y="671" type="curve"/>
    </contour>
    <contour>
      <point x="63" y="99"/>
      <point x="76" y="118"/>
      <point x="63" y="99" type="curve"/>
      <point x="137" y="71"/>
      <point x="225" y="48"/>
      <point x="323" y="48" type="curve"/>
      <point x="484" y="48"/>
      <point x="627" y="73"/>
      <point x="627" y="198" type="curve"/>
      <point x="627" y="320"/>
      <point x="486" y="342"/>
      <point x="351" y="385" type="curve"/>
      <point x="231" y="423"/>
      <point x="122" y="443"/>
      <point x="122" y="543" type="curve"/>
      <point x="122" y="635"/>
      <point x="226" y="662"/>
      <point x="347" y="662" type="curve"/>
      <point x="442" y="662"/>
      <point x="509" y="647"/>
      <point x="594" y="613" type="curve"/>
      <point x="607" y="631"/>
      <point x="594" y="613"/>
      <point x="607" y="631" type="curve"/>
      <point x="518" y="666"/>
      <point x="447" y="683"/>
      <point x="349" y="683" type="curve"/>
      <point x="211" y="683"/>
      <point x="98" y="651"/>
      <point x="98" y="543" type="curve"/>
      <point x="98" y="429"/>
      <point x="211" y="405"/>
      <point x="337" y="365" type="curve"/>
      <point x="465" y="326"/>
      <point x="603" y="304"/>
      <point x="603" y="197" type="curve"/>
      <point x="603" y="93"/>
      <point x="473" y="69"/>
      <point x="326" y="69" type="curve"/>
      <point x="231" y="69"/>
      <point x="147" y="93"/>
      <point x="76" y="118" type="curve"/>
    </contour>
  </outline>
</glyph>
<glyph name="ampersand" format="1">
  <advance width="850"/>
  <unicode hex="0026"/>
  <outline>
    <contour>
      <point x="826" y="11" type="line"/>
      <point x="672" y="126"/>
      <point x="530" y="233"/>
      <point x="376" y="349" type="curve"/>
      <point x="290" y="419"/>
      <point x="182" y="464"/>
      <point x="182" y="577" type="curve"/>
      <point x="182" y="660"/>
      <point x="252" y="705"/>
      <point x="343" y="705" type="curve"/>
      <point x="441" y="705"/>
      <point x="522" y="667"/>
      <point x="522" y="579" type="curve"/>
      <point x="522" y="466"/>
      <point x="415" y="432"/>
      <point x="306" y="387" type="curve"/>
      <point x="186" y="335"/>
      <point x="66" y="302"/>
      <point x="66" y="177" type="curve"/>
      <point x="66" y="47"/>
      <point x="189" y="-5"/>
      <point x="336" y="-5" type="curve"/>
      <point x="551" y="-5"/>
      <point x="696" y="117"/>
      <point x="779" y="318" type="curve"/>
      <point x="759" y="323"/>
      <point x="779" y="318"/>
      <point x="759" y="323" type="curve"/>
      <point x="679" y="132"/>
      <point x="541" y="16"/>
      <point x="337" y="16" type="curve"/>
      <point x="203" y="16"/>
      <point x="89" y="59"/>
      <point x="89" y="177" type="curve"/>
      <point x="89" y="294"/>
      <point x="203" y="322"/>
      <point x="315" y="370" type="curve"/>
      <point x="431" y="420"/>
      <point x="544" y="457"/>
      <point x="545" y="579" type="curve"/>
      <point x="545" y="680"/>
      <point x="455" y="726"/>
      <point x="344" y="726" type="curve"/>
      <point x="239" y="726"/>
      <point x="159" y="674"/>
      <point x="159" y="577" type="curve"/>
      <point x="159" y="459"/>
      <point x="268" y="408"/>
      <point x="360" y="336" type="curve"/>
      <point x="509" y="224"/>
      <point x="665" y="107"/>
      <point x="814" y="-5" type="curve"/>
    </contour>
  </outline>
</glyph>
<glyph name="quotesingle" format="1">
  <advance width="223"/>
  <unicode hex="0027"/>
  <outline>
    <contour>
      <point x="124" y="658" type="line"/>
      <point x="127" y="846" type="line"/>
      <point x="97" y="846" type="line"/>
      <point x="100" y="658" type="line"/>
    </contour>
  </outline>
</glyph>
<glyph name="parenright" format="1">
  <advance width="436"/>
  <unicode hex="0029"/>
  <outline>
    <contour>
      <point x="29" y="-267"/>
      <point x="14" y="-252"/>
      <point x="29" y="-267" type="curve"/>
      <point x="245" y="-104"/>
      <point x="376" y="57"/>
      <point x="376" y="327" type="curve"/>
      <point x="376" y="591"/>
      <point x="252" y="751"/>
      <point x="34" y="903" type="curve"/>
      <point x="20" y="887"/>
      <point x="34" y="903"/>
      <point x="20" y="887" type="curve"/>
      <point x="229" y="736"/>
      <point x="350" y="582"/>
      <point x="350" y="326" type="curve"/>
      <point x="350" y="65"/>
      <point x="219" y="-89"/>
      <point x="14" y="-252" type="curve"/>
    </contour>
  </outline>
</glyph>
<glyph name="asterisk" format="1">
  <advance width="783"/>
  <unicode hex="002A"/>
  <outline>
    <contour>
      <point x="398" y="652" type="line"/>
      <point x="401" y="840" type="line"/>
      <point x="371" y="840" type="line"/>
      <point x="374" y="652" type="line"/>
    </contour>
    <contour>
      <point x="514" y="563" type="line"/>
      <point x="694" y="619" type="line"/>
      <point x="684" y="647" type="line"/>
      <point x="507" y="586" type="line"/>
    </contour>
    <contour>
      <point x="466" y="426" type="line"/>
      <point x="574" y="272" type="line"/>
      <point x="598" y="290" type="line"/>
      <point x="485" y="440" type="line"/>
    </contour>
    <contour>
      <point x="319" y="429" type="line"/>
      <point x="206" y="279" type="line"/>
      <point x="230" y="261" type="line"/>
      <point x="338" y="415" type="line"/>
    </contour>
    <contour>
      <point x="277" y="569" type="line"/>
      <point x="100" y="630" type="line"/>
      <point x="90" y="602" type="line"/>
      <point x="270" y="546" type="line"/>
    </contour>
  </outline>
</glyph>
<glyph name="plus" format="1">
  <advance width="743"/>
  <unicode hex="002B"/>
  <outline>
    <contour>
      <point x="59" y="297"/>
      <point x="59" y="321"/>
      <point x="59" y="297" type="curve"/>
      <point x="59" y="297"/>
      <point x="684" y="297"/>
      <point x="684" y="297" type="curve"/>
      <point x="684" y="321"/>
      <point x="684" y="297"/>
      <point x="684" y="321" type="curve"/>
      <point x="684" y="321"/>
      <point x="59" y="321"/>
      <point x="59" y="321" type="curve"/>
    </contour>
    <contour>
      <point x="378" y="18"/>
      <point x="354" y="18"/>
      <point x="378" y="18" type="curve"/>
      <point x="378" y="18"/>
      <point x="378" y="588"/>
      <point x="378" y="588" type="curve"/>
      <point x="354" y="588"/>
      <point x="378" y="588"/>
      <point x="354" y="588" type="curve"/>
      <point x="354" y="588"/>
      <point x="354" y="18"/>
      <point x="354" y="18" type="curve"/>
    </contour>
  </outline>
</glyph>
<glyph name="hyphen" format="1">
  <advance width="575"/>
  <unicode hex="002D"/>
  <outline>
    <contour>
      <point x="91" y="260"/>
      <point x="91" y="284"/>
      <point x="91" y="260" type="curve"/>
      <point x="222" y="260"/>
      <point x="353" y="260"/>
      <point x="484" y="260" type="curve"/>
      <point x="484" y="284"/>
      <point x="484" y="260"/>
      <point x="484" y="284" type="curve"/>
      <point x="353" y="284"/>
      <point x="222" y="284"/>
      <point x="91" y="284" type="curve"/>
    </contour>
  </outline>
</glyph>
<glyph name="period" format="1">
  <advance width="214"/>
  <unicode hex="002E"/>
  <outline>
    <contour>
      <point x="102" y="12"/>
      <point x="112" y="12"/>
      <point x="126" y="12" type="curve"/>
      <point x="126" y="23"/>
      <point x="118" y="30"/>
      <point x="106" y="30" type="curve"/>
      <point x="95" y="30"/>
      <point x="88" y="23"/>
      <point x="88" y="12" type="curve"/>
      <point x="102" y="12"/>
      <point x="112" y="12"/>
      <point x="126" y="12" type="curve"/>
      <point x="126" y="1"/>
      <point x="118" y="-6"/>
      <point x="106" y="-6" type="curve"/>
      <point x="95" y="-6"/>
      <point x="88" y="1"/>
      <point x="88" y="12" type="curve"/>
    </contour>
  </outline>
</glyph>
<glyph name="slash" format="1">
  <advance width="679"/>
  <unicode hex="002F"/>
  <outline>
    <contour>
      <point x="64" y="-67"/>
      <point x="40" y="-67"/>
      <point x="64" y="-67" type="curve"/>
      <point x="256" y="236"/>
      <point x="448" y="540"/>
      <point x="639" y="843" type="curve"/>
      <point x="615" y="843"/>
      <point x="639" y="843"/>
      <point x="615" y="843" type="curve"/>
      <point x="424" y="540"/>
      <point x="232" y="236"/>
      <point x="40" y="-67" type="curve"/>
    </contour>
  </outline>
</glyph>
<glyph name="two" format="1">
  <advance width="732"/>
  <unicode hex="0032"/>
  <outline>
    <contour>
      <point x="656" y="22"/>
      <point x="634" y="22"/>
      <point x="656" y="22" type="curve"/>
      <point x="656" y="142"/>
      <point x="656" y="22"/>
      <point x="656" y="142" type="curve"/>
      <point x="634" y="142"/>
      <point x="656" y="142"/>
      <point x="634" y="142" type="curve"/>
      <point x="634" y="22"/>
      <point x="634" y="142"/>
      <point x="634" y="22" type="curve"/>
    </contour>
    <contour>
      <point x="53" y="0"/>
      <point x="53" y="22"/>
      <point x="53" y="0" type="curve"/>
      <point x="259" y="0"/>
      <point x="448" y="0"/>
      <point x="656" y="0" type="curve"/>
      <point x="656" y="22"/>
      <point x="656" y="0"/>
      <point x="656" y="22" type="curve"/>
      <point x="443" y="22"/>
      <point x="263" y="22"/>
      <point x="53" y="22" type="curve"/>
    </contour>
    <contour>
      <point x="102" y="563"/>
      <point x="83" y="576"/>
      <point x="102" y="563" type="curve"/>
      <point x="169" y="656"/>
      <point x="246" y="702"/>
      <point x="360" y="702" type="curve"/>
      <point x="491" y="702"/>
      <point x="588" y="651"/>
      <point x="588" y="526" type="curve"/>
      <point x="588" y="390"/>
      <point x="486" y="319"/>
      <point x="361" y="237" type="curve"/>
      <point x="258" y="165"/>
      <point x="155" y="93"/>
      <point x="53" y="22" type="curve"/>
      <point x="64" y="0"/>
      <point x="53" y="22"/>
      <point x="64" y="0" type="curve"/>
      <point x="168" y="73"/>
      <point x="272" y="147"/>
      <point x="376" y="220" type="curve"/>
      <point x="507" y="305"/>
      <point x="612" y="373"/>
      <point x="612" y="527" type="curve"/>
      <point x="612" y="665"/>
      <point x="508" y="727"/>
      <point x="362" y="727" type="curve"/>
      <point x="239" y="727"/>
      <point x="148" y="675"/>
      <point x="83" y="576" type="curve"/>
    </contour>
  </outline>
</glyph>
<glyph name="three" format="1">
  <advance width="673"/>
  <unicode hex="0033"/>
  <outline>
    <contour>
      <point x="63" y="56"/>
      <point x="75" y="77"/>
      <point x="63" y="56" type="curve"/>
      <point x="148" y="15"/>
      <point x="216" y="-5"/>
      <point x="311" y="-5" type="curve"/>
      <point x="479" y="-5"/>
      <point x="606" y="39"/>
      <point x="606" y="195" type="curve"/>
      <point x="606" y="340"/>
      <point x="427" y="389"/>
      <point x="186" y="389" type="curve"/>
      <point x="186" y="370"/>
      <point x="186" y="389"/>
      <point x="186" y="370" type="curve"/>
      <point x="381" y="370"/>
      <point x="583" y="330"/>
      <point x="583" y="194" type="curve"/>
      <point x="583" y="52"/>
      <point x="448" y="22"/>
      <point x="312" y="22" type="curve"/>
      <point x="223" y="22"/>
      <point x="164" y="39"/>
      <point x="75" y="77" type="curve"/>
    </contour>
    <contour>
      <point x="88" y="625"/>
      <point x="72" y="642"/>
      <point x="88" y="625" type="curve"/>
      <point x="142" y="671"/>
      <point x="218" y="700"/>
      <point x="305" y="700" type="curve"/>
      <point x="436" y="700"/>
      <point x="538" y="669"/>
      <point x="538" y="557" type="curve"/>
      <point x="538" y="440"/>
      <point x="365" y="394"/>
      <point x="186" y="394" type="curve"/>
      <point x="186" y="375"/>
      <point x="186" y="394"/>
      <point x="186" y="375" type="curve"/>
      <point x="390" y="375"/>
      <point x="561" y="420"/>
      <point x="561" y="558" type="curve"/>
      <point x="561" y="684"/>
      <point x="451" y="727"/>
      <point x="307" y="727" type="curve"/>
      <point x="212" y="727"/>
      <point x="127" y="689"/>
      <point x="72" y="642" type="curve"/>
    </contour>
  </outline>
</glyph>
<glyph name="five" format="1">
  <advance width="651"/>
  <unicode hex="0035"/>
  <outline>
    <contour>
      <point x="125" y="722"/>
      <point x="148" y="700"/>
      <point x="125" y="722" type="curve"/>
      <point x="125" y="619"/>
      <point x="125" y="504"/>
      <point x="125" y="400" type="curve"/>
      <point x="148" y="396"/>
      <point x="125" y="400"/>
      <point x="148" y="396" type="curve"/>
      <point x="148" y="498"/>
      <point x="148" y="599"/>
      <point x="148" y="700" type="curve"/>
    </contour>
    <contour>
      <point x="148" y="396"/>
      <point x="125" y="412"/>
      <point x="148" y="396" type="curve"/>
      <point x="183" y="410"/>
      <point x="257" y="422"/>
      <point x="309" y="422" type="curve"/>
      <point x="452" y="422"/>
      <point x="564" y="355"/>
      <point x="564" y="224" type="curve"/>
      <point x="564" y="92"/>
      <point x="441" y="22"/>
      <point x="294" y="22" type="curve"/>
      <point x="212" y="22"/>
      <point x="146" y="38"/>
      <point x="70" y="68" type="curve"/>
      <point x="59" y="44"/>
      <point x="70" y="68"/>
      <point x="59" y="44" type="curve"/>
      <point x="134" y="12"/>
      <point x="207" y="-5"/>
      <point x="293" y="-5" type="curve"/>
      <point x="455" y="-5"/>
      <point x="589" y="75"/>
      <point x="589" y="224" type="curve"/>
      <point x="589" y="368"/>
      <point x="467" y="446"/>
      <point x="310" y="446" type="curve"/>
      <point x="248" y="446"/>
      <point x="168" y="431"/>
      <point x="125" y="412" type="curve"/>
    </contour>
    <contour>
      <point x="566" y="722"/>
      <point x="566" y="700"/>
      <point x="566" y="722" type="curve"/>
      <point x="414" y="722"/>
      <point x="277" y="722"/>
      <point x="125" y="722" type="curve"/>
      <point x="148" y="700"/>
      <point x="125" y="722"/>
      <point x="148" y="700" type="curve"/>
      <point x="292" y="700"/>
      <point x="422" y="700"/>
      <point x="566" y="700" type="curve"/>
    </contour>
  </outline>
</glyph>
<glyph name="six" format="1">
  <advance width="720"/>
  <unicode hex="0036"/>
  <outline>
    <contour>
      <point x="85" y="230"/>
      <point x="68" y="241"/>
      <point x="85" y="230" type="curve"/>
      <point x="148" y="343"/>
      <point x="248" y="385"/>
      <point x="368" y="385" type="curve"/>
      <point x="511" y="385"/>
      <point x="616" y="332"/>
      <point x="616" y="202" type="curve"/>
      <point x="616" y="76"/>
      <point x="512" y="21"/>
      <point x="374" y="21" type="curve"/>
      <point x="209" y="21"/>
      <point x="89" y="91"/>
      <point x="89" y="242" type="curve"/>
      <point x="89" y="543"/>
      <point x="346" y="645"/>
      <point x="657" y="717" type="curve"/>
      <point x="652" y="737"/>
      <point x="657" y="717"/>
      <point x="652" y="737" type="curve"/>
      <point x="323" y="665"/>
      <point x="64" y="554"/>
      <point x="64" y="241" type="curve"/>
      <point x="64" y="75"/>
      <point x="195" y="-5"/>
      <point x="373" y="-5" type="curve"/>
      <point x="529" y="-5"/>
      <point x="642" y="61"/>
      <point x="642" y="203" type="curve"/>
      <point x="642" y="347"/>
      <point x="526" y="409"/>
      <point x="370" y="409" type="curve"/>
      <point x="231" y="409"/>
      <point x="126" y="357"/>
      <point x="68" y="241" type="curve"/>
    </contour>
  </outline>
</glyph>
<glyph name="eight" format="1">
  <advance width="682"/>
  <unicode hex="0038"/>
  <outline>
    <contour>
      <point x="95" y="562"/>
      <point x="119" y="562"/>
      <point x="95" y="562" type="curve"/>
      <point x="95" y="434"/>
      <point x="208" y="415"/>
      <point x="334" y="369" type="curve"/>
      <point x="467" y="320"/>
      <point x="588" y="297"/>
      <point x="588" y="170" type="curve"/>
      <point x="588" y="47"/>
      <point x="479" y="19"/>
      <point x="338" y="19" type="curve"/>
      <point x="198" y="19"/>
      <point x="93" y="49"/>
      <point x="93" y="170" type="curve"/>
      <point x="93" y="301"/>
      <point x="216" y="319"/>
      <point x="351" y="369" type="curve"/>
      <point x="473" y="417"/>
      <point x="586" y="434"/>
      <point x="586" y="560" type="curve"/>
      <point x="586" y="688"/>
      <point x="483" y="727"/>
      <point x="338" y="727" type="curve"/>
      <point x="199" y="727"/>
      <point x="95" y="685"/>
      <point x="95" y="562" type="curve"/>
      <point x="119" y="562"/>
      <point x="95" y="562"/>
      <point x="119" y="562" type="curve"/>
      <point x="119" y="670"/>
      <point x="214" y="703"/>
      <point x="337" y="703" type="curve"/>
      <point x="467" y="703"/>
      <point x="562" y="674"/>
      <point x="562" y="560" type="curve"/>
      <point x="562" y="446"/>
      <point x="452" y="429"/>
      <point x="334" y="387" type="curve"/>
      <point x="194" y="334"/>
      <point x="69" y="313"/>
      <point x="69" y="170" type="curve"/>
      <point x="69" y="36"/>
      <point x="183" y="-5"/>
      <point x="337" y="-5" type="curve"/>
      <point x="493" y="-5"/>
      <point x="612" y="32"/>
      <point x="612" y="170" type="curve"/>
      <point x="612" y="310"/>
      <point x="488" y="335"/>
      <point x="351" y="387" type="curve"/>
      <point x="231" y="432"/>
      <point x="119" y="445"/>
      <point x="119" y="562" type="curve"/>
    </contour>
  </outline>
</glyph>
<glyph name="nine" format="1">
  <advance width="721"/>
  <unicode hex="0039"/>
  <outline>
    <contour>
      <point x="638" y="492"/>
      <point x="651" y="485"/>
      <point x="638" y="492" type="curve"/>
      <point x="574" y="379"/>
      <point x="485" y="336"/>
      <point x="355" y="336" type="curve"/>
      <point x="212" y="336"/>
      <point x="105" y="390"/>
      <point x="105" y="520" type="curve"/>
      <point x="105" y="646"/>
      <point x="210" y="702"/>
      <point x="348" y="702" type="curve"/>
      <point x="513" y="702"/>
      <point x="633" y="631"/>
      <point x="633" y="480" type="curve"/>
      <point x="633" y="179"/>
      <point x="382" y="49"/>
      <point x="65" y="8" type="curve"/>
      <point x="69" y="-15"/>
      <point x="65" y="8"/>
      <point x="69" y="-15" type="curve"/>
      <point x="401" y="24"/>
      <point x="656" y="168"/>
      <point x="656" y="481" type="curve"/>
      <point x="656" y="647"/>
      <point x="528" y="727"/>
      <point x="349" y="727" type="curve"/>
      <point x="194" y="727"/>
      <point x="81" y="661"/>
      <point x="81" y="519" type="curve"/>
      <point x="81" y="375"/>
      <point x="196" y="313"/>
      <point x="353" y="313" type="curve"/>
      <point x="492" y="313"/>
      <point x="600" y="364"/>
      <point x="651" y="485" type="curve"/>
    </contour>
  </outline>
</glyph>
<glyph name="colon" format="1">
  <advance width="221"/>
  <unicode hex="003A"/>
  <outline>
    <contour>
      <point x="105" y="429"/>
      <point x="115" y="429"/>
      <point x="129" y="429" type="curve"/>
      <point x="129" y="440"/>
      <point x="121" y="447"/>
      <point x="109" y="447" type="curve"/>
      <point x="98" y="447"/>
      <point x="91" y="440"/>
      <point x="91" y="429" type="curve"/>
      <point x="105" y="429"/>
      <point x="115" y="429"/>
      <point x="129" y="429" type="curve"/>
      <point x="129" y="418"/>
      <point x="121" y="411"/>
      <point x="109" y="411" type="curve"/>
      <point x="98" y="411"/>
      <point x="91" y="418"/>
      <point x="91" y="429" type="curve"/>
    </contour>
    <contour>
      <point x="105" y="12"/>
      <point x="115" y="12"/>
      <point x="129" y="12" type="curve"/>
      <point x="129" y="23"/>
      <point x="121" y="30"/>
      <point x="109" y="30" type="curve"/>
      <point x="98" y="30"/>
      <point x="91" y="23"/>
      <point x="91" y="12" type="curve"/>
      <point x="105" y="12"/>
      <point x="115" y="12"/>
      <point x="129" y="12" type="curve"/>
      <point x="129" y="1"/>
      <point x="121" y="-6"/>
      <point x="109" y="-6" type="curve"/>
      <point x="98" y="-6"/>
      <point x="91" y="1"/>
      <point x="91" y="12" type="curve"/>
    </contour>
  </outline>
</glyph>
<glyph name="semicolon" format="1">
  <advance width="269"/>
  <unicode hex="003B"/>
  <outline>
    <contour>
      <point x="97" y="-71" type="line"/>
      <point x="129" y="-45"/>
      <point x="158" y="-10"/>
      <point x="158" y="45" type="curve"/>
      <point x="158" y="66"/>
      <point x="154" y="84"/>
      <point x="135" y="84" type="curve"/>
      <point x="122" y="84"/>
      <point x="115" y="78"/>
      <point x="115" y="66" type="curve"/>
      <point x="115" y="56"/>
      <point x="119" y="50"/>
      <point x="130" y="45" type="curve"/>
      <point x="130" y="19"/>
      <point x="117" y="-24"/>
      <point x="82" y="-52" type="curve"/>
    </contour>
    <contour>
      <point x="127" y="428"/>
      <point x="137" y="428"/>
      <point x="151" y="428" type="curve"/>
      <point x="151" y="439"/>
      <point x="143" y="446"/>
      <point x="131" y="446" type="curve"/>
      <point x="120" y="446"/>
      <point x="113" y="439"/>
      <point x="113" y="428" type="curve"/>
      <point x="127" y="428"/>
      <point x="137" y="428"/>
      <point x="151" y="428" type="curve"/>
      <point x="151" y="417"/>
      <point x="143" y="410"/>
      <point x="131" y="410" type="curve"/>
      <point x="120" y="410"/>
      <point x="113" y="417"/>
      <point x="113" y="428" type="curve"/>
    </contour>
  </outline>
</glyph>
<glyph name="less" format="1">
  <advance width="940"/>
  <unicode hex="003C"/>
  <outline>
    <contour>
      <point x="865" y="582"/>
      <point x="865" y="558"/>
      <point x="865" y="582" type="curve"/>
      <point x="591" y="492"/>
      <point x="317" y="402"/>
      <point x="43" y="312" type="curve"/>
      <point x="43" y="288"/>
      <point x="43" y="312"/>
      <point x="43" y="288" type="curve"/>
      <point x="317" y="378"/>
      <point x="591" y="468"/>
      <point x="865" y="558" type="curve"/>
    </contour>
    <contour>
      <point x="879" y="48"/>
      <point x="879" y="24"/>
      <point x="879" y="48" type="curve"/>
      <point x="600" y="136"/>
      <point x="322" y="224"/>
      <point x="43" y="312" type="curve"/>
      <point x="43" y="288"/>
      <point x="43" y="312"/>
      <point x="43" y="288" type="curve"/>
      <point x="322" y="200"/>
      <point x="600" y="112"/>
      <point x="879" y="24" type="curve"/>
    </contour>
  </outline>
</glyph>
<glyph name="equal" format="1">
  <advance width="1034"/>
  <unicode hex="003D"/>
  <outline>
    <contour>
      <point x="92" y="206"/>
      <point x="92" y="229"/>
      <point x="92" y="206" type="curve"/>
      <point x="375" y="206"/>
      <point x="658" y="206"/>
      <point x="941" y="206" type="curve"/>
      <point x="941" y="229"/>
      <point x="941" y="206"/>
      <point x="941" y="229" type="curve"/>
      <point x="658" y="229"/>
      <point x="375" y="229"/>
      <point x="92" y="229" type="curve"/>
    </contour>
    <contour>
      <point x="92" y="428"/>
      <point x="92" y="451"/>
      <point x="92" y="428" type="curve"/>
      <point x="375" y="428"/>
      <point x="658" y="428"/>
      <point x="941" y="428" type="curve"/>
      <point x="941" y="451"/>
      <point x="941" y="428"/>
      <point x="941" y="451" type="curve"/>
      <point x="658" y="451"/>
      <point x="375" y="451"/>
      <point x="92" y="451" type="curve"/>
    </contour>
  </outline>
</glyph>
<glyph name="greater" format="1">
  <advance width="939"/>
  <unicode hex="003E"/>
  <outline>
    <contour>
      <point x="73" y="24"/>
      <point x="73" y="48"/>
      <point x="73" y="24" type="curve"/>
      <point x="347" y="114"/>
      <point x="622" y="204"/>
      <point x="896" y="294" type="curve"/>
      <point x="896" y="318"/>
      <point x="896" y="294"/>
      <point x="896" y="318" type="curve"/>
      <point x="622" y="228"/>
      <point x="347" y="138"/>
      <point x="73" y="48" type="curve"/>
    </contour>
    <contour>
      <point x="60" y="558"/>
      <point x="60" y="582"/>
      <point x="60" y="558" type="curve"/>
      <point x="338" y="470"/>
      <point x="617" y="382"/>
      <point x="896" y="294" type="curve"/>
      <point x="896" y="318"/>
      <point x="896" y="294"/>
      <point x="896" y="318" type="curve"/>
      <point x="617" y="406"/>
      <point x="338" y="494"/>
      <point x="60" y="582" type="curve"/>
    </contour>
  </outline>
</glyph>
<glyph name="question" format="1">
  <advance width="583"/>
  <unicode hex="003F"/>
  <outline>
    <contour>
      <point x="229" y="334"/>
      <point x="254" y="334"/>
      <point x="229" y="334" type="curve"/>
      <point x="229" y="297"/>
      <point x="229" y="259"/>
      <point x="229" y="222" type="curve"/>
      <point x="254" y="222"/>
      <point x="229" y="222"/>
      <point x="254" y="222" type="curve"/>
      <point x="254" y="259"/>
      <point x="254" y="297"/>
      <point x="254" y="334" type="curve"/>
    </contour>
    <contour>
      <point x="81" y="630" type="line"/>
      <point x="125" y="662"/>
      <point x="189" y="688"/>
      <point x="260" y="688" type="curve"/>
      <point x="388" y="688"/>
      <point x="492" y="638"/>
      <point x="492" y="519" type="curve"/>
      <point x="492" y="388"/>
      <point x="375" y="334"/>
      <point x="229" y="334" type="curve"/>
      <point x="229" y="326"/>
      <point x="229" y="319"/>
      <point x="229" y="311" type="curve"/>
      <point x="388" y="311"/>
      <point x="515" y="375"/>
      <point x="515" y="519" type="curve"/>
      <point x="515" y="651"/>
      <point x="403" y="710"/>
      <point x="262" y="710" type="curve"/>
      <point x="185" y="710"/>
      <point x="117" y="684"/>
      <point x="67" y="648" type="curve"/>
    </contour>
    <contour>
      <point x="256" y="11"/>
      <point x="228" y="11"/>
      <point x="256" y="11" type="curve"/>
      <point x="256" y="20"/>
      <point x="251" y="25"/>
      <point x="242" y="25" type="curve"/>
      <point x="233" y="25"/>
      <point x="228" y="19"/>
      <point x="228" y="11" type="curve"/>
      <point x="256" y="11"/>
      <point x="228" y="11"/>
      <point x="256" y="11" type="curve"/>
      <point x="256" y="2"/>
      <point x="251" y="-2"/>
      <point x="242" y="-2" type="curve"/>
      <point x="233" y="-2"/>
      <point x="228" y="3"/>
      <point x="228" y="11" type="curve"/>
    </contour>
  </outline>
</glyph>
<glyph name="at" format="1">
  <advance width="1033"/>
  <unicode hex="0040"/>
  <outline>
    <contour>
      <point x="750" y="-74"/>
      <point x="761" y="-94"/>
      <point x="750" y="-74" type="curve"/>
      <point x="672" y="-107"/>
      <point x="617" y="-111"/>
      <point x="533" y="-111" type="curve"/>
      <point x="273" y="-111"/>
      <point x="86" y="-16"/>
      <point x="86" y="219" type="curve"/>
      <point x="86" y="451"/>
      <point x="275" y="545"/>
      <point x="531" y="545" type="curve"/>
      <point x="772" y="545"/>
      <point x="944" y="445"/>
      <point x="944" y="224" type="curve"/>
      <point x="944" y="136"/>
      <point x="909" y="73"/>
      <point x="828" y="73" type="curve"/>
      <point x="746" y="73"/>
      <point x="707" y="136"/>
      <point x="707" y="224" type="curve"/>
      <point x="707" y="337"/>
      <point x="628" y="397"/>
      <point x="511" y="397" type="curve"/>
      <point x="386" y="397"/>
      <point x="302" y="341"/>
      <point x="302" y="225" type="curve"/>
      <point x="302" y="105"/>
      <point x="383" y="41"/>
      <point x="507" y="41" type="curve"/>
      <point x="617" y="41"/>
      <point x="680" y="105"/>
      <point x="702" y="214" type="curve"/>
      <point x="687" y="219"/>
      <point x="702" y="214"/>
      <point x="687" y="219" type="curve"/>
      <point x="658" y="122"/>
      <point x="608" y="63"/>
      <point x="511" y="63" type="curve"/>
      <point x="398" y="63"/>
      <point x="325" y="119"/>
      <point x="325" y="226" type="curve"/>
      <point x="325" y="328"/>
      <point x="401" y="375"/>
      <point x="509" y="375" type="curve"/>
      <point x="614" y="375"/>
      <point x="685" y="324"/>
      <point x="685" y="223" type="curve"/>
      <point x="685" y="123"/>
      <point x="731" y="53"/>
      <point x="826" y="53" type="curve"/>
      <point x="922" y="53"/>
      <point x="967" y="123"/>
      <point x="967" y="225" type="curve"/>
      <point x="967" y="461"/>
      <point x="787" y="568"/>
      <point x="533" y="568" type="curve"/>
      <point x="260" y="568"/>
      <point x="63" y="467"/>
      <point x="63" y="218" type="curve"/>
      <point x="63" y="-30"/>
      <point x="259" y="-133"/>
      <point x="531" y="-133" type="curve"/>
      <point x="620" y="-133"/>
      <point x="679" y="-126"/>
      <point x="761" y="-94" type="curve"/>
    </contour>
  </outline>
</glyph>
<glyph name="B" format="1">
  <advance width="827"/>
  <unicode hex="0042"/>
  <outline>
    <contour>
      <point x="212" y="722"/>
      <point x="212" y="700"/>
      <point x="212" y="722" type="curve"/>
      <point x="155" y="722"/>
      <point x="99" y="722"/>
      <point x="42" y="722" type="curve"/>
      <point x="42" y="700"/>
      <point x="42" y="722"/>
      <point x="42" y="700" type="curve"/>
      <point x="212" y="700"/>
      <point x="42" y="700"/>
      <point x="212" y="700" type="curve"/>
    </contour>
    <contour>
      <point x="210" y="22"/>
      <point x="210" y="0"/>
      <point x="210" y="22" type="curve"/>
      <point x="41" y="22"/>
      <point x="210" y="22"/>
      <point x="41" y="22" type="curve"/>
      <point x="41" y="0"/>
      <point x="41" y="22"/>
      <point x="41" y="0" type="curve"/>
      <point x="97" y="0"/>
      <point x="154" y="0"/>
      <point x="210" y="0" type="curve"/>
    </contour>
    <contour>
      <point x="197" y="700"/>
      <point x="197" y="722"/>
      <point x="197" y="700" type="curve"/>
      <point x="294" y="700"/>
      <point x="391" y="700"/>
      <point x="488" y="700" type="curve"/>
      <point x="593" y="700"/>
      <point x="675" y="656"/>
      <point x="675" y="555" type="curve"/>
      <point x="675" y="447"/>
      <point x="551" y="421"/>
      <point x="430" y="421" type="curve"/>
      <point x="352" y="421"/>
      <point x="274" y="421"/>
      <point x="197" y="421" type="curve"/>
      <point x="197" y="399"/>
      <point x="197" y="421"/>
      <point x="197" y="399" type="curve"/>
      <point x="270" y="399"/>
      <point x="344" y="399"/>
      <point x="418" y="399" type="curve"/>
      <point x="559" y="399"/>
      <point x="699" y="430"/>
      <point x="699" y="555" type="curve"/>
      <point x="699" y="669"/>
      <point x="611" y="722"/>
      <point x="488" y="722" type="curve"/>
      <point x="391" y="722"/>
      <point x="294" y="722"/>
      <point x="197" y="722" type="curve"/>
    </contour>
    <contour>
      <point x="219" y="0"/>
      <point x="194" y="0"/>
      <point x="219" y="0" type="curve"/>
      <point x="219" y="241"/>
      <point x="219" y="481"/>
      <point x="219" y="722" type="curve"/>
      <point x="194" y="722"/>
      <point x="219" y="722"/>
      <point x="194" y="722" type="curve"/>
      <point x="194" y="481"/>
      <point x="194" y="241"/>
      <point x="194" y="0" type="curve"/>
    </contour>
    <contour>
      <point x="197" y="399"/>
      <point x="197" y="421"/>
      <point x="197" y="399" type="curve"/>
      <point x="274" y="399"/>
      <point x="352" y="399"/>
      <point x="430" y="399" type="curve"/>
      <point x="595" y="399"/>
      <point x="738" y="355"/>
      <point x="738" y="204" type="curve"/>
      <point x="738" y="73"/>
      <point x="632" y="22"/>
      <point x="486" y="22" type="curve"/>
      <point x="389" y="22"/>
      <point x="293" y="22"/>
      <point x="197" y="22" type="curve"/>
      <point x="197" y="0"/>
      <point x="197" y="22"/>
      <point x="197" y="0" type="curve"/>
      <point x="293" y="0"/>
      <point x="389" y="0"/>
      <point x="486" y="0" type="curve"/>
      <point x="647" y="0"/>
      <point x="762" y="59"/>
      <point x="762" y="204" type="curve"/>
      <point x="762" y="372"/>
      <point x="603" y="421"/>
      <point x="418" y="421" type="curve"/>
      <point x="344" y="421"/>
      <point x="270" y="421"/>
      <point x="197" y="421" type="curve"/>
    </contour>
  </outline>
</glyph>
<glyph name="C" format="1">
  <advance width="876"/>
  <unicode hex="0043"/>
  <outline>
    <contour>
      <point x="781" y="655"/>
      <point x="803" y="655"/>
      <point x="781" y="655" type="curve"/>
      <point x="781" y="535"/>
      <point x="781" y="655"/>
      <point x="781" y="535" type="curve"/>
      <point x="803" y="535"/>
      <point x="781" y="535"/>
      <point x="803" y="535" type="curve"/>
      <point x="803" y="655"/>
      <point x="803" y="535"/>
      <point x="803" y="655" type="curve"/>
    </contour>
    <contour>
      <point x="803" y="655"/>
      <point x="790" y="638"/>
      <point x="803" y="655" type="curve"/>
      <point x="710" y="697"/>
      <point x="611" y="727"/>
      <point x="501" y="727" type="curve"/>
      <point x="243" y="727"/>
      <point x="70" y="594"/>
      <point x="70" y="344" type="curve"/>
      <point x="70" y="113"/>
      <point x="232" y="-5"/>
      <point x="473" y="-5" type="curve"/>
      <point x="615" y="-5"/>
      <point x="709" y="25"/>
      <point x="828" y="96" type="curve"/>
      <point x="813" y="113"/>
      <point x="828" y="96"/>
      <point x="813" y="113" type="curve"/>
      <point x="702" y="43"/>
      <point x="608" y="19"/>
      <point x="474" y="19" type="curve"/>
      <point x="248" y="19"/>
      <point x="94" y="130"/>
      <point x="94" y="345" type="curve"/>
      <point x="94" y="578"/>
      <point x="258" y="704"/>
      <point x="500" y="704" type="curve"/>
      <point x="605" y="704"/>
      <point x="702" y="680"/>
      <point x="790" y="638" type="curve"/>
    </contour>
    <contour>
      <point x="495" y="825" type="move" name="top"/>
    </contour>
    <contour>
      <point x="466" y="10" type="move" name="bottom"/>
    </contour>
  </outline>
</glyph>
<glyph name="D" format="1">
  <advance width="969"/>
  <unicode hex="0044"/>
  <outline>
    <contour>
      <point x="212" y="22"/>
      <point x="212" y="0"/>
      <point x="212" y="22" type="curve"/>
      <point x="43" y="22"/>
      <point x="212" y="22"/>
      <point x="43" y="22" type="curve"/>
      <point x="43" y="0"/>
      <point x="43" y="22"/>
      <point x="43" y="0" type="curve"/>
      <point x="99" y="0"/>
      <point x="156" y="0"/>
      <point x="212" y="0" type="curve"/>
    </contour>
    <contour>
      <point x="212" y="722"/>
      <point x="212" y="700"/>
      <point x="212" y="722" type="curve"/>
      <point x="156" y="722"/>
      <point x="99" y="722"/>
      <point x="43" y="722" type="curve"/>
      <point x="43" y="700"/>
      <point x="43" y="722"/>
      <point x="43" y="700" type="curve"/>
      <point x="212" y="700"/>
      <point x="43" y="700"/>
      <point x="212" y="700" type="curve"/>
    </contour>
    <contour>
      <point x="197" y="722"/>
      <point x="222" y="722"/>
      <point x="197" y="722" type="curve"/>
      <point x="197" y="481"/>
      <point x="197" y="241"/>
      <point x="197" y="0" type="curve"/>
      <point x="222" y="0"/>
      <point x="197" y="0"/>
      <point x="222" y="0" type="curve"/>
      <point x="222" y="241"/>
      <point x="222" y="481"/>
      <point x="222" y="722" type="curve"/>
    </contour>
    <contour>
      <point x="212" y="0"/>
      <point x="212" y="22"/>
      <point x="212" y="0" type="curve"/>
      <point x="302" y="0"/>
      <point x="392" y="0"/>
      <point x="482" y="0" type="curve"/>
      <point x="742" y="0"/>
      <point x="903" y="106"/>
      <point x="903" y="350" type="curve"/>
      <point x="903" y="608"/>
      <point x="737" y="722"/>
      <point x="465" y="722" type="curve"/>
      <point x="380" y="722"/>
      <point x="296" y="722"/>
      <point x="212" y="722" type="curve"/>
      <point x="212" y="700"/>
      <point x="212" y="722"/>
      <point x="212" y="700" type="curve"/>
      <point x="296" y="700"/>
      <point x="380" y="700"/>
      <point x="463" y="700" type="curve"/>
      <point x="721" y="700"/>
      <point x="880" y="593"/>
      <point x="880" y="350" type="curve"/>
      <point x="880" y="121"/>
      <point x="729" y="22"/>
      <point x="485" y="22" type="curve"/>
      <point x="394" y="22"/>
      <point x="303" y="22"/>
      <point x="212" y="22" type="curve"/>
    </contour>
    <contour>
      <point x="443" y="825" type="move" name="top"/>
    </contour>
  </outline>
</glyph>
<glyph name="F" format="1">
  <advance width="804"/>
  <unicode hex="0046"/>
  <outline>
    <contour>
      <point x="211" y="0"/>
      <point x="211" y="22"/>
      <point x="211" y="0" type="curve"/>
      <point x="267" y="0"/>
      <point x="211" y="0"/>
      <point x="380" y="0" type="curve"/>
      <point x="380" y="22"/>
      <point x="380" y="0"/>
      <point x="380" y="22" type="curve"/>
      <point x="211" y="22"/>
      <point x="380" y="22"/>
      <point x="211" y="22" type="curve"/>
    </contour>
    <contour>
      <point x="211" y="722"/>
      <point x="211" y="700"/>
      <point x="211" y="722" type="curve"/>
      <point x="155" y="722"/>
      <point x="98" y="722"/>
      <point x="42" y="722" type="curve"/>
      <point x="42" y="700"/>
      <point x="42" y="722"/>
      <point x="42" y="700" type="curve"/>
      <point x="211" y="700"/>
      <point x="42" y="700"/>
      <point x="211" y="700" type="curve"/>
    </contour>
    <contour>
      <point x="211" y="22"/>
      <point x="211" y="0"/>
      <point x="211" y="22" type="curve"/>
      <point x="42" y="22"/>
      <point x="211" y="22"/>
      <point x="42" y="22" type="curve"/>
      <point x="42" y="0"/>
      <point x="42" y="22"/>
      <point x="42" y="0" type="curve"/>
      <point x="98" y="0"/>
      <point x="155" y="0"/>
      <point x="211" y="0" type="curve"/>
    </contour>
    <contour>
      <point x="728" y="711"/>
      <point x="750" y="711"/>
      <point x="728" y="711" type="curve"/>
      <point x="728" y="591"/>
      <point x="728" y="711"/>
      <point x="728" y="591" type="curve"/>
      <point x="750" y="591"/>
      <point x="728" y="591"/>
      <point x="750" y="591" type="curve"/>
      <point x="750" y="711"/>
      <point x="750" y="591"/>
      <point x="750" y="711" type="curve"/>
    </contour>
    <contour>
      <point x="216" y="363"/>
      <point x="216" y="385"/>
      <point x="216" y="363" type="curve"/>
      <point x="361" y="363"/>
      <point x="506" y="363"/>
      <point x="651" y="363" type="curve"/>
      <point x="651" y="385"/>
      <point x="651" y="363"/>
      <point x="651" y="385" type="curve"/>
      <point x="506" y="385"/>
      <point x="361" y="385"/>
      <point x="216" y="385" type="curve"/>
    </contour>
    <contour>
      <point x="223" y="0"/>
      <point x="199" y="0"/>
      <point x="223" y="0" type="curve"/>
      <point x="223" y="0"/>
      <point x="223" y="722"/>
      <point x="223" y="722" type="curve"/>
      <point x="199" y="722"/>
      <point x="223" y="722"/>
      <point x="199" y="722" type="curve"/>
      <point x="199" y="481"/>
      <point x="199" y="241"/>
      <point x="199" y="0" type="curve"/>
    </contour>
    <contour>
      <point x="196" y="700"/>
      <point x="196" y="722"/>
      <point x="196" y="700" type="curve"/>
      <point x="380" y="700"/>
      <point x="565" y="700"/>
      <point x="750" y="700" type="curve"/>
      <point x="750" y="722"/>
      <point x="750" y="700"/>
      <point x="750" y="722" type="curve"/>
      <point x="565" y="722"/>
      <point x="380" y="722"/>
      <point x="196" y="722" type="curve"/>
    </contour>
  </outline>
</glyph>
<glyph name="G" format="1">
  <advance width="976"/>
  <unicode hex="0047"/>
  <outline>
    <contour>
      <point x="858" y="642"/>
      <point x="879" y="642"/>
      <point x="858" y="642" type="curve"/>
      <point x="858" y="522"/>
      <point x="858" y="642"/>
      <point x="858" y="522" type="curve"/>
      <point x="879" y="522"/>
      <point x="858" y="522"/>
      <point x="879" y="522" type="curve"/>
      <point x="879" y="642"/>
      <point x="879" y="522"/>
      <point x="879" y="642" type="curve"/>
    </contour>
    <contour>
      <point x="893" y="319"/>
      <point x="893" y="297"/>
      <point x="893" y="319" type="curve"/>
      <point x="794" y="319"/>
      <point x="695" y="319"/>
      <point x="596" y="319" type="curve"/>
      <point x="596" y="297"/>
      <point x="596" y="319"/>
      <point x="596" y="297" type="curve"/>
      <point x="695" y="297"/>
      <point x="794" y="297"/>
      <point x="893" y="297" type="curve"/>
    </contour>
    <contour>
      <point x="902" y="77"/>
      <point x="880" y="77"/>
      <point x="902" y="77" type="curve"/>
      <point x="902" y="158"/>
      <point x="902" y="238"/>
      <point x="902" y="319" type="curve"/>
      <point x="880" y="319"/>
      <point x="902" y="319"/>
      <point x="880" y="319" type="curve"/>
      <point x="880" y="238"/>
      <point x="880" y="158"/>
      <point x="880" y="77" type="curve"/>
    </contour>
    <contour>
      <point x="879" y="642"/>
      <point x="867" y="624"/>
      <point x="879" y="642" type="curve"/>
      <point x="755" y="703"/>
      <point x="646" y="727"/>
      <point x="508" y="727" type="curve"/>
      <point x="248" y="727"/>
      <point x="68" y="611"/>
      <point x="68" y="365" type="curve"/>
      <point x="68" y="112"/>
      <point x="255" y="-5"/>
      <point x="523" y="-5" type="curve"/>
      <point x="671" y="-5"/>
      <point x="767" y="19"/>
      <point x="902" y="77" type="curve"/>
      <point x="890" y="93"/>
      <point x="902" y="77"/>
      <point x="890" y="93" type="curve"/>
      <point x="761" y="38"/>
      <point x="664" y="20"/>
      <point x="524" y="20" type="curve"/>
      <point x="270" y="20"/>
      <point x="92" y="129"/>
      <point x="92" y="367" type="curve"/>
      <point x="92" y="595"/>
      <point x="265" y="704"/>
      <point x="509" y="704" type="curve"/>
      <point x="642" y="704"/>
      <point x="747" y="681"/>
      <point x="867" y="624" type="curve"/>
    </contour>
    <contour>
      <point x="510" y="825" type="move" name="top"/>
    </contour>
    <contour>
      <point x="534" y="5" type="move" name="bottom"/>
    </contour>
  </outline>
</glyph>
<glyph name="H" format="1">
  <advance width="1104"/>
  <unicode hex="0048"/>
  <outline>
    <contour>
      <point x="894" y="700"/>
      <point x="894" y="722"/>
      <point x="894" y="700" type="curve"/>
      <point x="1063" y="700"/>
      <point x="894" y="700"/>
      <point x="1063" y="700" type="curve"/>
      <point x="1063" y="722"/>
      <point x="1063" y="700"/>
      <point x="1063" y="722" type="curve"/>
      <point x="1007" y="722"/>
      <point x="950" y="722"/>
      <point x="894" y="722" type="curve"/>
    </contour>
    <contour>
      <point x="894" y="0"/>
      <point x="894" y="22"/>
      <point x="894" y="0" type="curve"/>
      <point x="950" y="0"/>
      <point x="1007" y="0"/>
      <point x="1063" y="0" type="curve"/>
      <point x="1063" y="22"/>
      <point x="1063" y="0"/>
      <point x="1063" y="22" type="curve"/>
      <point x="894" y="22"/>
      <point x="1063" y="22"/>
      <point x="894" y="22" type="curve"/>
    </contour>
    <contour>
      <point x="894" y="22"/>
      <point x="894" y="0"/>
      <point x="894" y="22" type="curve"/>
      <point x="725" y="22"/>
      <point x="894" y="22"/>
      <point x="725" y="22" type="curve"/>
      <point x="725" y="0"/>
      <point x="725" y="22"/>
      <point x="725" y="0" type="curve"/>
      <point x="781" y="0"/>
      <point x="838" y="0"/>
      <point x="894" y="0" type="curve"/>
    </contour>
    <contour>
      <point x="894" y="722"/>
      <point x="894" y="700"/>
      <point x="894" y="722" type="curve"/>
      <point x="838" y="722"/>
      <point x="781" y="722"/>
      <point x="725" y="722" type="curve"/>
      <point x="725" y="700"/>
      <point x="725" y="722"/>
      <point x="725" y="700" type="curve"/>
      <point x="894" y="700"/>
      <point x="725" y="700"/>
      <point x="894" y="700" type="curve"/>
    </contour>
    <contour>
      <point x="211" y="700"/>
      <point x="211" y="722"/>
      <point x="211" y="700" type="curve"/>
      <point x="380" y="700"/>
      <point x="211" y="700"/>
      <point x="380" y="700" type="curve"/>
      <point x="380" y="722"/>
      <point x="380" y="700"/>
      <point x="380" y="722" type="curve"/>
      <point x="324" y="722"/>
      <point x="267" y="722"/>
      <point x="211" y="722" type="curve"/>
    </contour>
    <contour>
      <point x="211" y="722"/>
      <point x="211" y="700"/>
      <point x="211" y="722" type="curve"/>
      <point x="155" y="722"/>
      <point x="98" y="722"/>
      <point x="42" y="722" type="curve"/>
      <point x="42" y="700"/>
      <point x="42" y="722"/>
      <point x="42" y="700" type="curve"/>
      <point x="211" y="700"/>
      <point x="42" y="700"/>
      <point x="211" y="700" type="curve"/>
    </contour>
    <contour>
      <point x="211" y="0"/>
      <point x="211" y="22"/>
      <point x="211" y="0" type="curve"/>
      <point x="267" y="0"/>
      <point x="211" y="0"/>
      <point x="380" y="0" type="curve"/>
      <point x="380" y="22"/>
      <point x="380" y="0"/>
      <point x="380" y="22" type="curve"/>
      <point x="211" y="22"/>
      <point x="380" y="22"/>
      <point x="211" y="22" type="curve"/>
    </contour>
    <contour>
      <point x="211" y="22"/>
      <point x="211" y="0"/>
      <point x="211" y="22" type="curve"/>
      <point x="42" y="22"/>
      <point x="211" y="22"/>
      <point x="42" y="22" type="curve"/>
      <point x="42" y="0"/>
      <point x="42" y="22"/>
      <point x="42" y="0" type="curve"/>
      <point x="98" y="0"/>
      <point x="155" y="0"/>
      <point x="211" y="0" type="curve"/>
    </contour>
    <contour>
      <point x="223" y="0"/>
      <point x="199" y="0"/>
      <point x="223" y="0" type="curve"/>
      <point x="223" y="0"/>
      <point x="223" y="722"/>
      <point x="223" y="722" type="curve"/>
      <point x="199" y="722"/>
      <point x="223" y="722"/>
      <point x="199" y="722" type="curve"/>
      <point x="199" y="481"/>
      <point x="199" y="241"/>
      <point x="199" y="0" type="curve"/>
    </contour>
    <contour>
      <point x="890" y="374"/>
      <point x="890" y="352"/>
      <point x="890" y="374" type="curve"/>
      <point x="664" y="374"/>
      <point x="437" y="374"/>
      <point x="211" y="374" type="curve"/>
      <point x="211" y="352"/>
      <point x="211" y="374"/>
      <point x="211" y="352" type="curve"/>
      <point x="437" y="352"/>
      <point x="664" y="352"/>
      <point x="890" y="352" type="curve"/>
    </contour>
    <contour>
      <point x="905" y="1"/>
      <point x="881" y="1"/>
      <point x="905" y="1" type="curve"/>
      <point x="905" y="241"/>
      <point x="905" y="481"/>
      <point x="905" y="721" type="curve"/>
      <point x="881" y="721"/>
      <point x="905" y="721"/>
      <point x="881" y="721" type="curve"/>
      <point x="881" y="721"/>
      <point x="881" y="1"/>
      <point x="881" y="1" type="curve"/>
    </contour>
  </outline>
</glyph>
<glyph name="I" format="1">
  <advance width="421"/>
  <unicode hex="0049"/>
  <outline>
    <contour>
      <point x="211" y="722"/>
      <point x="211" y="700"/>
      <point x="211" y="722" type="curve"/>
      <point x="154" y="722"/>
      <point x="98" y="722"/>
      <point x="42" y="722" type="curve"/>
      <point x="42" y="700"/>
      <point x="42" y="722"/>
      <point x="42" y="700" type="curve"/>
      <point x="211" y="700"/>
      <point x="42" y="700"/>
      <point x="211" y="700" type="curve"/>
    </contour>
    <contour>
      <point x="211" y="700"/>
      <point x="211" y="722"/>
      <point x="211" y="700" type="curve"/>
      <point x="380" y="700"/>
      <point x="211" y="700"/>
      <point x="380" y="700" type="curve"/>
      <point x="380" y="722"/>
      <point x="380" y="700"/>
      <point x="380" y="722" type="curve"/>
      <point x="323" y="722"/>
      <point x="267" y="722"/>
      <point x="211" y="722" type="curve"/>
    </contour>
    <contour>
      <point x="211" y="0"/>
      <point x="211" y="22"/>
      <point x="211" y="0" type="curve"/>
      <point x="267" y="0"/>
      <point x="323" y="0"/>
      <point x="380" y="0" type="curve"/>
      <point x="380" y="22"/>
      <point x="380" y="0"/>
      <point x="380" y="22" type="curve"/>
      <point x="211" y="22"/>
      <point x="380" y="22"/>
      <point x="211" y="22" type="curve"/>
    </contour>
    <contour>
      <point x="211" y="22"/>
      <point x="211" y="0"/>
      <point x="211" y="22" type="curve"/>
      <point x="42" y="22"/>
      <point x="211" y="22"/>
      <point x="42" y="22" type="curve"/>
      <point x="42" y="0"/>
      <point x="42" y="22"/>
      <point x="42" y="0" type="curve"/>
      <point x="98" y="0"/>
      <point x="154" y="0"/>
      <point x="211" y="0" type="curve"/>
    </contour>
    <contour>
      <point x="221" y="0"/>
      <point x="197" y="0"/>
      <point x="221" y="0" type="curve"/>
      <point x="221" y="241"/>
      <point x="221" y="481"/>
      <point x="221" y="722" type="curve"/>
      <point x="197" y="722"/>
      <point x="221" y="722"/>
      <point x="197" y="722" type="curve"/>
      <point x="197" y="481"/>
      <point x="197" y="241"/>
      <point x="197" y="0" type="curve"/>
    </contour>
    <contour>
      <point x="210" y="825" type="move" name="top"/>
    </contour>
    <contour>
      <point x="221" y="0" type="move" name="bottom"/>
    </contour>
  </outline>
</glyph>
<glyph name="K" format="1">
  <advance width="920"/>
  <unicode hex="004B"/>
  <outline>
    <contour>
      <point x="714" y="722"/>
      <point x="714" y="700"/>
      <point x="714" y="722" type="curve"/>
      <point x="657" y="722"/>
      <point x="601" y="722"/>
      <point x="545" y="722" type="curve"/>
      <point x="545" y="700"/>
      <point x="545" y="722"/>
      <point x="545" y="700" type="curve"/>
      <point x="714" y="700"/>
      <point x="545" y="700"/>
      <point x="714" y="700" type="curve"/>
    </contour>
    <contour>
      <point x="750" y="0"/>
      <point x="750" y="22"/>
      <point x="750" y="0" type="curve"/>
      <point x="803" y="0"/>
      <point x="855" y="0"/>
      <point x="909" y="0" type="curve"/>
      <point x="909" y="22"/>
      <point x="909" y="0"/>
      <point x="909" y="22" type="curve"/>
      <point x="750" y="22"/>
      <point x="909" y="22"/>
      <point x="750" y="22" type="curve"/>
    </contour>
    <contour>
      <point x="714" y="700"/>
      <point x="714" y="722"/>
      <point x="714" y="700" type="curve"/>
      <point x="873" y="700"/>
      <point x="714" y="700"/>
      <point x="873" y="700" type="curve"/>
      <point x="873" y="722"/>
      <point x="873" y="700"/>
      <point x="873" y="722" type="curve"/>
      <point x="819" y="722"/>
      <point x="767" y="722"/>
      <point x="714" y="722" type="curve"/>
    </contour>
    <contour>
      <point x="211" y="722"/>
      <point x="211" y="700"/>
      <point x="211" y="722" type="curve"/>
      <point x="155" y="722"/>
      <point x="99" y="722"/>
      <point x="42" y="722" type="curve"/>
      <point x="42" y="700"/>
      <point x="42" y="722"/>
      <point x="42" y="700" type="curve"/>
      <point x="211" y="700"/>
      <point x="42" y="700"/>
      <point x="211" y="700" type="curve"/>
    </contour>
    <contour>
      <point x="211" y="700"/>
      <point x="211" y="722"/>
      <point x="211" y="700" type="curve"/>
      <point x="381" y="700"/>
      <point x="211" y="700"/>
      <point x="381" y="700" type="curve"/>
      <point x="381" y="722"/>
      <point x="381" y="700"/>
      <point x="381" y="722" type="curve"/>
      <point x="324" y="722"/>
      <point x="268" y="722"/>
      <point x="211" y="722" type="curve"/>
    </contour>
    <contour>
      <point x="211" y="0"/>
      <point x="211" y="22"/>
      <point x="211" y="0" type="curve"/>
      <point x="268" y="0"/>
      <point x="211" y="0"/>
      <point x="381" y="0" type="curve"/>
      <point x="381" y="22"/>
      <point x="381" y="0"/>
      <point x="381" y="22" type="curve"/>
      <point x="211" y="22"/>
      <point x="381" y="22"/>
      <point x="211" y="22" type="curve"/>
    </contour>
    <contour>
      <point x="211" y="22"/>
      <point x="211" y="0"/>
      <point x="211" y="22" type="curve"/>
      <point x="42" y="22"/>
      <point x="211" y="22"/>
      <point x="42" y="22" type="curve"/>
      <point x="42" y="0"/>
      <point x="42" y="22"/>
      <point x="42" y="0" type="curve"/>
      <point x="99" y="0"/>
      <point x="155" y="0"/>
      <point x="211" y="0" type="curve"/>
    </contour>
    <contour>
      <point x="722" y="722"/>
      <point x="755" y="722"/>
      <point x="718" y="722" type="curve"/>
      <point x="211" y="380" type="line"/>
      <point x="249" y="380"/>
      <point x="215" y="380"/>
      <point x="253" y="380" type="curve"/>
      <point x="759" y="722" type="line"/>
    </contour>
    <contour>
      <point x="224" y="0"/>
      <point x="199" y="0"/>
      <point x="224" y="0" type="curve"/>
      <point x="224" y="0"/>
      <point x="224" y="722"/>
      <point x="224" y="722" type="curve"/>
      <point x="199" y="722"/>
      <point x="224" y="722"/>
      <point x="199" y="722" type="curve"/>
      <point x="199" y="481"/>
      <point x="199" y="241"/>
      <point x="199" y="0" type="curve"/>
    </contour>
    <contour>
      <point x="790" y="0"/>
      <point x="753" y="0"/>
      <point x="794" y="0" type="curve"/>
      <point x="253" y="380" type="line"/>
      <point x="215" y="380"/>
      <point x="249" y="380"/>
      <point x="211" y="380" type="curve"/>
      <point x="749" y="0" type="line"/>
    </contour>
    <contour>
      <point x="521" y="2" type="move" name="bottom"/>
    </contour>
  </outline>
</glyph>
<glyph name="L" format="1">
  <advance width="822"/>
  <unicode hex="004C"/>
  <outline>
    <contour>
      <point x="780" y="11"/>
      <point x="758" y="11"/>
      <point x="780" y="11" type="curve"/>
      <point x="780" y="131"/>
      <point x="780" y="11"/>
      <point x="780" y="131" type="curve"/>
      <point x="758" y="131"/>
      <point x="780" y="131"/>
      <point x="758" y="131" type="curve"/>
      <point x="758" y="11"/>
      <point x="758" y="131"/>
      <point x="758" y="11" type="curve"/>
    </contour>
    <contour>
      <point x="210" y="22"/>
      <point x="210" y="0"/>
      <point x="210" y="22" type="curve"/>
      <point x="41" y="22"/>
      <point x="210" y="22"/>
      <point x="41" y="22" type="curve"/>
      <point x="41" y="0"/>
      <point x="41" y="22"/>
      <point x="41" y="0" type="curve"/>
      <point x="97" y="0"/>
      <point x="154" y="0"/>
      <point x="210" y="0" type="curve"/>
    </contour>
    <contour>
      <point x="210" y="722"/>
      <point x="210" y="700"/>
      <point x="210" y="722" type="curve"/>
      <point x="154" y="722"/>
      <point x="97" y="722"/>
      <point x="41" y="722" type="curve"/>
      <point x="41" y="700"/>
      <point x="41" y="722"/>
      <point x="41" y="700" type="curve"/>
      <point x="210" y="700"/>
      <point x="41" y="700"/>
      <point x="210" y="700" type="curve"/>
    </contour>
    <contour>
      <point x="210" y="700"/>
      <point x="210" y="722"/>
      <point x="210" y="700" type="curve"/>
      <point x="379" y="700"/>
      <point x="210" y="700"/>
      <point x="379" y="700" type="curve"/>
      <point x="379" y="722"/>
      <point x="379" y="700"/>
      <point x="379" y="722" type="curve"/>
      <point x="323" y="722"/>
      <point x="266" y="722"/>
      <point x="210" y="722" type="curve"/>
    </contour>
    <contour>
      <point x="224" y="0"/>
      <point x="199" y="0"/>
      <point x="224" y="0" type="curve"/>
      <point x="224" y="241"/>
      <point x="224" y="481"/>
      <point x="224" y="722" type="curve"/>
      <point x="199" y="722"/>
      <point x="224" y="722"/>
      <point x="199" y="722" type="curve"/>
      <point x="199" y="481"/>
      <point x="199" y="241"/>
      <point x="199" y="0" type="curve"/>
    </contour>
    <contour>
      <point x="210" y="0"/>
      <point x="210" y="22"/>
      <point x="210" y="0" type="curve"/>
      <point x="400" y="0"/>
      <point x="590" y="0"/>
      <point x="780" y="0" type="curve"/>
      <point x="780" y="22"/>
      <point x="780" y="0"/>
      <point x="780" y="22" type="curve"/>
      <point x="590" y="22"/>
      <point x="400" y="22"/>
      <point x="210" y="22" type="curve"/>
    </contour>
    <contour>
      <point x="213" y="825" type="move" name="top"/>
    </contour>
    <contour>
      <point x="455" y="6" type="move" name="bottom"/>
    </contour>
  </outline>
</glyph>
<glyph name="M" format="1">
  <advance width="1322"/>
  <unicode hex="004D"/>
  <outline>
    <contour>
      <point x="1126" y="0"/>
      <point x="1126" y="22"/>
      <point x="1126" y="0" type="curve"/>
      <point x="1183" y="0"/>
      <point x="1239" y="0"/>
      <point x="1295" y="0" type="curve"/>
      <point x="1295" y="22"/>
      <point x="1295" y="0"/>
      <point x="1295" y="22" type="curve"/>
      <point x="1126" y="22"/>
      <point x="1295" y="22"/>
      <point x="1126" y="22" type="curve"/>
    </contour>
    <contour>
      <point x="1126" y="22"/>
      <point x="1126" y="0"/>
      <point x="1126" y="22" type="curve"/>
      <point x="957" y="22"/>
      <point x="1126" y="22"/>
      <point x="957" y="22" type="curve"/>
      <point x="957" y="0"/>
      <point x="957" y="22"/>
      <point x="957" y="0" type="curve"/>
      <point x="1014" y="0"/>
      <point x="1070" y="0"/>
      <point x="1126" y="0" type="curve"/>
    </contour>
    <contour>
      <point x="196" y="22"/>
      <point x="196" y="0"/>
      <point x="196" y="22" type="curve"/>
      <point x="27" y="22"/>
      <point x="196" y="22"/>
      <point x="27" y="22" type="curve"/>
      <point x="27" y="0"/>
      <point x="27" y="22"/>
      <point x="27" y="0" type="curve"/>
      <point x="83" y="0"/>
      <point x="140" y="0"/>
      <point x="196" y="0" type="curve"/>
    </contour>
    <contour>
      <point x="276" y="722"/>
      <point x="276" y="700"/>
      <point x="276" y="722" type="curve"/>
      <point x="219" y="722"/>
      <point x="163" y="722"/>
      <point x="107" y="722" type="curve"/>
      <point x="107" y="700"/>
      <point x="107" y="722"/>
      <point x="107" y="700" type="curve"/>
      <point x="276" y="700"/>
      <point x="107" y="700"/>
      <point x="276" y="700" type="curve"/>
    </contour>
    <contour>
      <point x="1044" y="700"/>
      <point x="1044" y="722"/>
      <point x="1044" y="700" type="curve"/>
      <point x="1213" y="700"/>
      <point x="1044" y="700"/>
      <point x="1213" y="700" type="curve"/>
      <point x="1213" y="722"/>
      <point x="1213" y="700"/>
      <point x="1213" y="722" type="curve"/>
      <point x="1157" y="722"/>
      <point x="1100" y="722"/>
      <point x="1044" y="722" type="curve"/>
    </contour>
    <contour>
      <point x="196" y="0"/>
      <point x="196" y="22"/>
      <point x="196" y="0" type="curve"/>
      <point x="252" y="0"/>
      <point x="196" y="0"/>
      <point x="365" y="0" type="curve"/>
      <point x="365" y="22"/>
      <point x="365" y="0"/>
      <point x="365" y="22" type="curve"/>
      <point x="196" y="22"/>
      <point x="365" y="22"/>
      <point x="196" y="22" type="curve"/>
    </contour>
    <contour>
      <point x="1137" y="0"/>
      <point x="1113" y="0"/>
      <point x="1137" y="0" type="curve"/>
      <point x="1109" y="241"/>
      <point x="1081" y="481"/>
      <point x="1054" y="722" type="curve"/>
      <point x="1032" y="722"/>
      <point x="1054" y="722"/>
      <point x="1032" y="722" type="curve"/>
      <point x="1059" y="481"/>
      <point x="1086" y="241"/>
      <point x="1113" y="0" type="curve"/>
    </contour>
    <contour>
      <point x="207" y="0"/>
      <point x="183" y="0"/>
      <point x="207" y="0" type="curve"/>
      <point x="233" y="241"/>
      <point x="258" y="481"/>
      <point x="284" y="722" type="curve"/>
      <point x="262" y="722"/>
      <point x="284" y="722"/>
      <point x="262" y="722" type="curve"/>
      <point x="236" y="481"/>
      <point x="209" y="241"/>
      <point x="183" y="0" type="curve"/>
    </contour>
    <contour>
      <point x="667" y="0"/>
      <point x="645" y="0"/>
      <point x="669" y="0" type="curve"/>
      <point x="544" y="241"/>
      <point x="418" y="481"/>
      <point x="289" y="722" type="curve"/>
      <point x="267" y="722"/>
      <point x="287" y="722"/>
      <point x="265" y="722" type="curve"/>
      <point x="391" y="481"/>
      <point x="517" y="241"/>
      <point x="643" y="0" type="curve"/>
    </contour>
    <contour>
      <point x="677" y="0"/>
      <point x="654" y="0"/>
      <point x="679" y="0" type="curve"/>
      <point x="803" y="241"/>
      <point x="927" y="481"/>
      <point x="1051" y="722" type="curve"/>
      <point x="1029" y="722"/>
      <point x="1049" y="722"/>
      <point x="1027" y="722" type="curve"/>
      <point x="900" y="481"/>
      <point x="777" y="241"/>
      <point x="652" y="0" type="curve"/>
    </contour>
  </outline>
</glyph>
<glyph name="O" format="1">
  <advance width="945"/>
  <unicode hex="004F"/>
  <outline>
    <contour>
      <point x="94" y="360"/>
      <point x="70" y="360"/>
      <point x="94" y="360" type="curve"/>
      <point x="94" y="576"/>
      <point x="248" y="705"/>
      <point x="471" y="705" type="curve"/>
      <point x="695" y="705"/>
      <point x="850" y="578"/>
      <point x="850" y="363" type="curve"/>
      <point x="850" y="147"/>
      <point x="697" y="18"/>
      <point x="474" y="18" type="curve"/>
      <point x="249" y="18"/>
      <point x="94" y="144"/>
      <point x="94" y="360" type="curve"/>
      <point x="70" y="360"/>
      <point x="94" y="360"/>
      <point x="70" y="360" type="curve"/>
      <point x="70" y="129"/>
      <point x="235" y="-5"/>
      <point x="473" y="-5" type="curve"/>
      <point x="711" y="-5"/>
      <point x="875" y="131"/>
      <point x="875" y="363" type="curve"/>
      <point x="875" y="593"/>
      <point x="710" y="727"/>
      <point x="472" y="727" type="curve"/>
      <point x="233" y="727"/>
      <point x="70" y="591"/>
      <point x="70" y="360" type="curve"/>
    </contour>
    <contour>
      <point x="471" y="825" type="move" name="top"/>
    </contour>
  </outline>
</glyph>
<glyph name="P" format="1">
  <advance width="773"/>
  <unicode hex="0050"/>
  <outline>
    <contour>
      <point x="212" y="722"/>
      <point x="212" y="700"/>
      <point x="212" y="722" type="curve"/>
      <point x="156" y="722"/>
      <point x="99" y="722"/>
      <point x="43" y="722" type="curve"/>
      <point x="43" y="700"/>
      <point x="43" y="722"/>
      <point x="43" y="700" type="curve"/>
      <point x="212" y="700"/>
      <point x="43" y="700"/>
      <point x="212" y="700" type="curve"/>
    </contour>
    <contour>
      <point x="212" y="22"/>
      <point x="212" y="0"/>
      <point x="212" y="22" type="curve"/>
      <point x="43" y="22"/>
      <point x="212" y="22"/>
      <point x="43" y="22" type="curve"/>
      <point x="43" y="0"/>
      <point x="43" y="22"/>
      <point x="43" y="0" type="curve"/>
      <point x="99" y="0"/>
      <point x="156" y="0"/>
      <point x="212" y="0" type="curve"/>
    </contour>
    <contour>
      <point x="212" y="0"/>
      <point x="212" y="22"/>
      <point x="212" y="0" type="curve"/>
      <point x="267" y="0"/>
      <point x="212" y="0"/>
      <point x="379" y="0" type="curve"/>
      <point x="379" y="22"/>
      <point x="379" y="0"/>
      <point x="379" y="22" type="curve"/>
      <point x="212" y="22"/>
      <point x="379" y="22"/>
      <point x="212" y="22" type="curve"/>
    </contour>
    <contour>
      <point x="210" y="326"/>
      <point x="218" y="346"/>
      <point x="210" y="326" type="curve"/>
      <point x="281" y="299"/>
      <point x="345" y="280"/>
      <point x="421" y="280" type="curve"/>
      <point x="584" y="283"/>
      <point x="713" y="347"/>
      <point x="713" y="494" type="curve"/>
      <point x="713" y="654"/>
      <point x="567" y="722"/>
      <point x="388" y="722" type="curve"/>
      <point x="331" y="722"/>
      <point x="273" y="722"/>
      <point x="216" y="722" type="curve"/>
      <point x="216" y="700"/>
      <point x="216" y="722"/>
      <point x="216" y="700" type="curve"/>
      <point x="272" y="700"/>
      <point x="329" y="700"/>
      <point x="385" y="700" type="curve"/>
      <point x="552" y="700"/>
      <point x="688" y="642"/>
      <point x="688" y="493" type="curve"/>
      <point x="688" y="360"/>
      <point x="570" y="302"/>
      <point x="424" y="302" type="curve"/>
      <point x="346" y="302"/>
      <point x="290" y="318"/>
      <point x="218" y="346" type="curve"/>
    </contour>
    <contour>
      <point x="223" y="0"/>
      <point x="198" y="0"/>
      <point x="223" y="0" type="curve"/>
      <point x="223" y="241"/>
      <point x="223" y="481"/>
      <point x="223" y="722" type="curve"/>
      <point x="198" y="722"/>
      <point x="223" y="722"/>
      <point x="198" y="722" type="curve"/>
      <point x="198" y="481"/>
      <point x="198" y="241"/>
      <point x="198" y="0" type="curve"/>
    </contour>
  </outline>
</glyph>
<glyph name="Q" format="1">
  <advance width="1023"/>
  <unicode hex="0051"/>
  <outline>
    <contour>
      <point x="475" y="4"/>
      <point x="496" y="15"/>
      <point x="475" y="4" type="curve"/>
      <point x="622" y="-196"/>
      <point x="784" y="-240"/>
      <point x="1021" y="-240" type="curve"/>
      <point x="1021" y="-217"/>
      <point x="1021" y="-240"/>
      <point x="1021" y="-217" type="curve"/>
      <point x="795" y="-217"/>
      <point x="639" y="-177"/>
      <point x="496" y="15" type="curve"/>
    </contour>
    <contour>
      <point x="95" y="360"/>
      <point x="70" y="360"/>
      <point x="95" y="360" type="curve"/>
      <point x="95" y="576"/>
      <point x="250" y="703"/>
      <point x="474" y="703" type="curve"/>
      <point x="698" y="703"/>
      <point x="853" y="578"/>
      <point x="853" y="363" type="curve"/>
      <point x="853" y="147"/>
      <point x="700" y="19"/>
      <point x="477" y="19" type="curve"/>
      <point x="251" y="19"/>
      <point x="95" y="144"/>
      <point x="95" y="360" type="curve"/>
      <point x="70" y="360"/>
      <point x="95" y="360"/>
      <point x="70" y="360" type="curve"/>
      <point x="70" y="129"/>
      <point x="237" y="-5"/>
      <point x="476" y="-5" type="curve"/>
      <point x="714" y="-5"/>
      <point x="878" y="132"/>
      <point x="878" y="364" type="curve"/>
      <point x="878" y="594"/>
      <point x="713" y="727"/>
      <point x="475" y="727" type="curve"/>
      <point x="236" y="727"/>
      <point x="70" y="591"/>
      <point x="70" y="360" type="curve"/>
    </contour>
  </outline>
</glyph>
<glyph name="R" format="1">
  <advance width="956"/>
  <unicode hex="0052"/>
  <outline>
    <contour>
      <point x="769" y="0"/>
      <point x="769" y="22"/>
      <point x="769" y="0" type="curve"/>
      <point x="824" y="0"/>
      <point x="879" y="0"/>
      <point x="935" y="0" type="curve"/>
      <point x="935" y="22"/>
      <point x="935" y="0"/>
      <point x="935" y="22" type="curve"/>
      <point x="768" y="22"/>
      <point x="936" y="22"/>
      <point x="769" y="22" type="curve"/>
    </contour>
    <contour>
      <point x="210" y="722"/>
      <point x="210" y="700"/>
      <point x="210" y="722" type="curve"/>
      <point x="154" y="722"/>
      <point x="97" y="722"/>
      <point x="41" y="722" type="curve"/>
      <point x="41" y="700"/>
      <point x="41" y="722"/>
      <point x="41" y="700" type="curve"/>
      <point x="210" y="700"/>
      <point x="41" y="700"/>
      <point x="210" y="700" type="curve"/>
    </contour>
    <contour>
      <point x="210" y="22"/>
      <point x="210" y="0"/>
      <point x="210" y="22" type="curve"/>
      <point x="41" y="22"/>
      <point x="210" y="22"/>
      <point x="41" y="22" type="curve"/>
      <point x="41" y="0"/>
      <point x="41" y="22"/>
      <point x="41" y="0" type="curve"/>
      <point x="97" y="0"/>
      <point x="154" y="0"/>
      <point x="210" y="0" type="curve"/>
    </contour>
    <contour>
      <point x="210" y="0"/>
      <point x="210" y="22"/>
      <point x="210" y="0" type="curve"/>
      <point x="267" y="0"/>
      <point x="210" y="0"/>
      <point x="379" y="0" type="curve"/>
      <point x="379" y="22"/>
      <point x="379" y="0"/>
      <point x="379" y="22" type="curve"/>
      <point x="210" y="22"/>
      <point x="379" y="22"/>
      <point x="210" y="22" type="curve"/>
    </contour>
    <contour>
      <point x="476" y="354"/>
      <point x="503" y="354"/>
      <point x="474" y="354" type="curve"/>
      <point x="769" y="0" type="line"/>
      <point x="799" y="0"/>
      <point x="771" y="0"/>
      <point x="801" y="0" type="curve"/>
      <point x="505" y="354" type="line"/>
    </contour>
    <contour>
      <point x="224" y="0"/>
      <point x="199" y="0"/>
      <point x="224" y="0" type="curve"/>
      <point x="224" y="241"/>
      <point x="224" y="481"/>
      <point x="224" y="722" type="curve"/>
      <point x="199" y="722"/>
      <point x="224" y="722"/>
      <point x="199" y="722" type="curve"/>
      <point x="199" y="481"/>
      <point x="199" y="241"/>
      <point x="199" y="0" type="curve"/>
    </contour>
    <contour>
      <point x="214" y="340"/>
      <point x="214" y="362"/>
      <point x="214" y="340" type="curve"/>
      <point x="291" y="340"/>
      <point x="368" y="340"/>
      <point x="444" y="340" type="curve"/>
      <point x="611" y="340"/>
      <point x="735" y="389"/>
      <point x="735" y="537" type="curve"/>
      <point x="735" y="679"/>
      <point x="614" y="722"/>
      <point x="454" y="722" type="curve"/>
      <point x="374" y="722"/>
      <point x="294" y="722"/>
      <point x="214" y="722" type="curve"/>
      <point x="214" y="700"/>
      <point x="214" y="722"/>
      <point x="214" y="700" type="curve"/>
      <point x="293" y="700"/>
      <point x="371" y="700"/>
      <point x="450" y="700" type="curve"/>
      <point x="598" y="700"/>
      <point x="711" y="664"/>
      <point x="711" y="535" type="curve"/>
      <point x="711" y="403"/>
      <point x="596" y="362"/>
      <point x="447" y="362" type="curve"/>
      <point x="370" y="362"/>
      <point x="292" y="362"/>
      <point x="214" y="362" type="curve"/>
    </contour>
    <contour>
      <point x="406" y="825" type="move" name="top"/>
    </contour>
    <contour>
      <point x="498" y="4" type="move" name="bottom"/>
    </contour>
  </outline>
</glyph>
<glyph name="T" format="1">
  <advance width="938"/>
  <unicode hex="0054"/>
  <outline>
    <contour>
      <point x="51" y="710"/>
      <point x="73" y="710"/>
      <point x="51" y="710" type="curve"/>
      <point x="51" y="590"/>
      <point x="51" y="710"/>
      <point x="51" y="590" type="curve"/>
      <point x="73" y="590"/>
      <point x="51" y="590"/>
      <point x="73" y="590" type="curve"/>
      <point x="73" y="710"/>
      <point x="73" y="590"/>
      <point x="73" y="710" type="curve"/>
    </contour>
    <contour>
      <point x="866" y="710"/>
      <point x="888" y="710"/>
      <point x="866" y="710" type="curve"/>
      <point x="866" y="590"/>
      <point x="866" y="710"/>
      <point x="866" y="590" type="curve"/>
      <point x="888" y="590"/>
      <point x="866" y="590"/>
      <point x="888" y="590" type="curve"/>
      <point x="888" y="710"/>
      <point x="888" y="590"/>
      <point x="888" y="710" type="curve"/>
    </contour>
    <contour>
      <point x="468" y="0"/>
      <point x="468" y="22"/>
      <point x="468" y="0" type="curve"/>
      <point x="525" y="0"/>
      <point x="581" y="0"/>
      <point x="637" y="0" type="curve"/>
      <point x="637" y="22"/>
      <point x="637" y="0"/>
      <point x="637" y="22" type="curve"/>
      <point x="468" y="22"/>
      <point x="637" y="22"/>
      <point x="468" y="22" type="curve"/>
    </contour>
    <contour>
      <point x="468" y="22"/>
      <point x="468" y="0"/>
      <point x="468" y="22" type="curve"/>
      <point x="299" y="22"/>
      <point x="468" y="22"/>
      <point x="299" y="22" type="curve"/>
      <point x="299" y="0"/>
      <point x="299" y="22"/>
      <point x="299" y="0" type="curve"/>
      <point x="356" y="0"/>
      <point x="412" y="0"/>
      <point x="468" y="0" type="curve"/>
    </contour>
    <contour>
      <point x="482" y="0"/>
      <point x="458" y="0"/>
      <point x="482" y="0" type="curve"/>
      <point x="482" y="237"/>
      <point x="482" y="473"/>
      <point x="482" y="710" type="curve"/>
      <point x="458" y="710"/>
      <point x="482" y="710"/>
      <point x="458" y="710" type="curve"/>
      <point x="458" y="473"/>
      <point x="458" y="237"/>
      <point x="458" y="0" type="curve"/>
    </contour>
    <contour>
      <point x="51" y="698"/>
      <point x="51" y="722"/>
      <point x="51" y="698" type="curve"/>
      <point x="330" y="698"/>
      <point x="609" y="698"/>
      <point x="888" y="698" type="curve"/>
      <point x="888" y="722"/>
      <point x="888" y="698"/>
      <point x="888" y="722" type="curve"/>
      <point x="609" y="722"/>
      <point x="330" y="722"/>
      <point x="51" y="722" type="curve"/>
    </contour>
    <contour>
      <point x="467" y="825" type="move" name="top"/>
    </contour>
    <contour>
      <point x="482" y="0" type="move" name="bottom"/>
    </contour>
  </outline>
</glyph>
<glyph name="V" format="1">
  <advance width="1069"/>
  <unicode hex="0056"/>
  <outline>
    <contour>
      <point x="881" y="722"/>
      <point x="881" y="700"/>
      <point x="881" y="722" type="curve"/>
      <point x="823" y="722"/>
      <point x="765" y="722"/>
      <point x="707" y="722" type="curve"/>
      <point x="707" y="700"/>
      <point x="707" y="722"/>
      <point x="707" y="700" type="curve"/>
      <point x="881" y="700"/>
      <point x="707" y="700"/>
      <point x="881" y="700" type="curve"/>
    </contour>
    <contour>
      <point x="150" y="722"/>
      <point x="150" y="700"/>
      <point x="150" y="722" type="curve"/>
      <point x="93" y="722"/>
      <point x="37" y="722"/>
      <point x="-20" y="722" type="curve"/>
      <point x="-20" y="700"/>
      <point x="-20" y="722"/>
      <point x="-20" y="700" type="curve"/>
      <point x="150" y="700"/>
      <point x="-20" y="700"/>
      <point x="150" y="700" type="curve"/>
    </contour>
    <contour>
      <point x="881" y="700"/>
      <point x="881" y="722"/>
      <point x="881" y="700" type="curve"/>
      <point x="1050" y="700"/>
      <point x="881" y="700"/>
      <point x="1050" y="700" type="curve"/>
      <point x="1050" y="722"/>
      <point x="1050" y="700"/>
      <point x="1050" y="722" type="curve"/>
      <point x="994" y="722"/>
      <point x="938" y="722"/>
      <point x="881" y="722" type="curve"/>
    </contour>
    <contour>
      <point x="150" y="700"/>
      <point x="150" y="722"/>
      <point x="150" y="700" type="curve"/>
      <point x="324" y="700"/>
      <point x="150" y="700"/>
      <point x="324" y="700" type="curve"/>
      <point x="324" y="722"/>
      <point x="324" y="700"/>
      <point x="324" y="722" type="curve"/>
      <point x="266" y="722"/>
      <point x="208" y="722"/>
      <point x="150" y="722" type="curve"/>
    </contour>
    <contour>
      <point x="884" y="722"/>
      <point x="911" y="722"/>
      <point x="884" y="722" type="curve"/>
      <point x="759" y="481"/>
      <point x="634" y="241"/>
      <point x="509" y="0" type="curve"/>
      <point x="536" y="0"/>
      <point x="509" y="0"/>
      <point x="536" y="0" type="curve"/>
      <point x="661" y="241"/>
      <point x="786" y="481"/>
      <point x="911" y="722" type="curve"/>
    </contour>
    <contour>
      <point x="121" y="722"/>
      <point x="148" y="722"/>
      <point x="120" y="722" type="curve"/>
      <point x="247" y="481"/>
      <point x="374" y="241"/>
      <point x="501" y="0" type="curve"/>
      <point x="528" y="0"/>
      <point x="502" y="0"/>
      <point x="529" y="0" type="curve"/>
      <point x="402" y="241"/>
      <point x="275" y="481"/>
      <point x="149" y="722" type="curve"/>
    </contour>
  </outline>
</glyph>
<glyph name="W" format="1">
  <advance width="1337"/>
  <unicode hex="0057"/>
  <outline>
    <contour>
      <point x="161" y="700"/>
      <point x="161" y="722"/>
      <point x="161" y="700" type="curve"/>
      <point x="330" y="700"/>
      <point x="161" y="700"/>
      <point x="330" y="700" type="curve"/>
      <point x="330" y="722"/>
      <point x="330" y="700"/>
      <point x="330" y="722" type="curve"/>
      <point x="274" y="722"/>
      <point x="217" y="722"/>
      <point x="161" y="722" type="curve"/>
    </contour>
    <contour>
      <point x="161" y="722"/>
      <point x="161" y="700"/>
      <point x="161" y="722" type="curve"/>
      <point x="105" y="722"/>
      <point x="48" y="722"/>
      <point x="-8" y="722" type="curve"/>
      <point x="-8" y="700"/>
      <point x="-8" y="722"/>
      <point x="-8" y="700" type="curve"/>
      <point x="161" y="700"/>
      <point x="-8" y="700"/>
      <point x="161" y="700" type="curve"/>
    </contour>
    <contour>
      <point x="1155" y="722"/>
      <point x="1155" y="700"/>
      <point x="1155" y="722" type="curve"/>
      <point x="1098" y="722"/>
      <point x="1042" y="722"/>
      <point x="986" y="722" type="curve"/>
      <point x="986" y="700"/>
      <point x="986" y="722"/>
      <point x="986" y="700" type="curve"/>
      <point x="1155" y="700"/>
      <point x="986" y="700"/>
      <point x="1155" y="700" type="curve"/>
    </contour>
    <contour>
      <point x="1155" y="700"/>
      <point x="1155" y="722"/>
      <point x="1155" y="700" type="curve"/>
      <point x="1324" y="700"/>
      <point x="1155" y="700"/>
      <point x="1324" y="700" type="curve"/>
      <point x="1324" y="722"/>
      <point x="1324" y="700"/>
      <point x="1324" y="722" type="curve"/>
      <point x="1268" y="722"/>
      <point x="1211" y="722"/>
      <point x="1155" y="722" type="curve"/>
    </contour>
    <contour>
      <point x="396" y="0"/>
      <point x="385" y="0"/>
      <point x="402" y="0" type="curve"/>
      <point x="492" y="241"/>
      <point x="583" y="481"/>
      <point x="673" y="722" type="curve"/>
      <point x="650" y="722"/>
      <point x="673" y="722"/>
      <point x="650" y="722" type="curve"/>
      <point x="560" y="481"/>
      <point x="469" y="241"/>
      <point x="379" y="0" type="curve"/>
    </contour>
    <contour>
      <point x="659" y="722"/>
      <point x="682" y="722"/>
      <point x="659" y="722" type="curve"/>
      <point x="740" y="481"/>
      <point x="822" y="241"/>
      <point x="903" y="0" type="curve"/>
      <point x="921" y="0"/>
      <point x="908" y="0"/>
      <point x="926" y="0" type="curve"/>
      <point x="846" y="241"/>
      <point x="764" y="481"/>
      <point x="682" y="722" type="curve"/>
    </contour>
    <contour>
      <point x="132" y="722"/>
      <point x="157" y="722"/>
      <point x="132" y="722" type="curve"/>
      <point x="213" y="481"/>
      <point x="295" y="241"/>
      <point x="377" y="0" type="curve"/>
      <point x="394" y="0"/>
      <point x="383" y="0"/>
      <point x="400" y="0" type="curve"/>
      <point x="320" y="240"/>
      <point x="237" y="482"/>
      <point x="157" y="722" type="curve"/>
    </contour>
    <contour>
      <point x="1159" y="722"/>
      <point x="1184" y="722"/>
      <point x="1159" y="722" type="curve"/>
      <point x="1074" y="481"/>
      <point x="989" y="241"/>
      <point x="906" y="0" type="curve"/>
      <point x="924" y="0"/>
      <point x="911" y="0"/>
      <point x="929" y="0" type="curve"/>
      <point x="1014" y="241"/>
      <point x="1099" y="481"/>
      <point x="1184" y="722" type="curve"/>
    </contour>
  </outline>
</glyph>
<glyph name="X" format="1">
  <advance width="991"/>
  <unicode hex="0058"/>
  <outline>
    <contour>
      <point x="167" y="0"/>
      <point x="167" y="22"/>
      <point x="167" y="0" type="curve"/>
      <point x="224" y="0"/>
      <point x="167" y="0"/>
      <point x="336" y="0" type="curve"/>
      <point x="336" y="22"/>
      <point x="336" y="0"/>
      <point x="336" y="22" type="curve"/>
      <point x="167" y="22"/>
      <point x="336" y="22"/>
      <point x="167" y="22" type="curve"/>
    </contour>
    <contour>
      <point x="167" y="22"/>
      <point x="167" y="0"/>
      <point x="167" y="22" type="curve"/>
      <point x="-2" y="22"/>
      <point x="167" y="22"/>
      <point x="-2" y="22" type="curve"/>
      <point x="-2" y="0"/>
      <point x="-2" y="22"/>
      <point x="-2" y="0" type="curve"/>
      <point x="55" y="0"/>
      <point x="111" y="0"/>
      <point x="167" y="0" type="curve"/>
    </contour>
    <contour>
      <point x="821" y="0"/>
      <point x="821" y="22"/>
      <point x="821" y="0" type="curve"/>
      <point x="877" y="0"/>
      <point x="934" y="0"/>
      <point x="990" y="0" type="curve"/>
      <point x="990" y="22"/>
      <point x="990" y="0"/>
      <point x="990" y="22" type="curve"/>
      <point x="821" y="22"/>
      <point x="990" y="22"/>
      <point x="821" y="22" type="curve"/>
    </contour>
    <contour>
      <point x="821" y="22"/>
      <point x="821" y="0"/>
      <point x="821" y="22" type="curve"/>
      <point x="652" y="22"/>
      <point x="821" y="22"/>
      <point x="652" y="22" type="curve"/>
      <point x="652" y="0"/>
      <point x="652" y="22"/>
      <point x="652" y="0" type="curve"/>
      <point x="708" y="0"/>
      <point x="765" y="0"/>
      <point x="821" y="0" type="curve"/>
    </contour>
    <contour>
      <point x="786" y="700"/>
      <point x="786" y="722"/>
      <point x="786" y="700" type="curve"/>
      <point x="955" y="700"/>
      <point x="786" y="700"/>
      <point x="955" y="700" type="curve"/>
      <point x="955" y="722"/>
      <point x="955" y="700"/>
      <point x="955" y="722" type="curve"/>
      <point x="899" y="722"/>
      <point x="842" y="722"/>
      <point x="786" y="722" type="curve"/>
    </contour>
    <contour>
      <point x="786" y="722"/>
      <point x="786" y="700"/>
      <point x="786" y="722" type="curve"/>
      <point x="730" y="722"/>
      <point x="673" y="722"/>
      <point x="617" y="722" type="curve"/>
      <point x="617" y="700"/>
      <point x="617" y="722"/>
      <point x="617" y="700" type="curve"/>
      <point x="786" y="700"/>
      <point x="617" y="700"/>
      <point x="786" y="700" type="curve"/>
    </contour>
    <contour>
      <point x="208" y="722"/>
      <point x="208" y="700"/>
      <point x="208" y="722" type="curve"/>
      <point x="152" y="722"/>
      <point x="95" y="722"/>
      <point x="39" y="722" type="curve"/>
      <point x="39" y="700"/>
      <point x="39" y="722"/>
      <point x="39" y="700" type="curve"/>
      <point x="208" y="700"/>
      <point x="39" y="700"/>
      <point x="208" y="700" type="curve"/>
    </contour>
    <contour>
      <point x="208" y="700"/>
      <point x="208" y="722"/>
      <point x="208" y="700" type="curve"/>
      <point x="377" y="700"/>
      <point x="208" y="700"/>
      <point x="377" y="700" type="curve"/>
      <point x="377" y="722"/>
      <point x="377" y="700"/>
      <point x="377" y="722" type="curve"/>
      <point x="321" y="722"/>
      <point x="264" y="722"/>
      <point x="208" y="722" type="curve"/>
    </contour>
    <contour>
      <point x="799" y="722"/>
      <point x="828" y="722"/>
      <point x="799" y="722" type="curve"/>
      <point x="575" y="481"/>
      <point x="350" y="241"/>
      <point x="126" y="0" type="curve"/>
      <point x="158" y="0"/>
      <point x="126" y="0"/>
      <point x="158" y="0" type="curve"/>
      <point x="381" y="241"/>
      <point x="604" y="481"/>
      <point x="828" y="722" type="curve"/>
    </contour>
    <contour>
      <point x="170" y="722"/>
      <point x="199" y="722"/>
      <point x="170" y="722" type="curve"/>
      <point x="392" y="481"/>
      <point x="613" y="241"/>
      <point x="835" y="0" type="curve"/>
      <point x="865" y="0"/>
      <point x="835" y="0"/>
      <point x="865" y="0" type="curve"/>
      <point x="643" y="241"/>
      <point x="421" y="481"/>
      <point x="199" y="722" type="curve"/>
    </contour>
  </outline>
</glyph>
<glyph name="Y" format="1">
  <advance width="926"/>
  <unicode hex="0059"/>
  <outline>
    <contour>
      <point x="441" y="22"/>
      <point x="441" y="0"/>
      <point x="441" y="22" type="curve"/>
      <point x="272" y="22"/>
      <point x="441" y="22"/>
      <point x="272" y="22" type="curve"/>
      <point x="272" y="0"/>
      <point x="272" y="22"/>
      <point x="272" y="0" type="curve"/>
      <point x="328" y="0"/>
      <point x="384" y="0"/>
      <point x="441" y="0" type="curve"/>
    </contour>
    <contour>
      <point x="441" y="0"/>
      <point x="441" y="22"/>
      <point x="441" y="0" type="curve"/>
      <point x="497" y="0"/>
      <point x="553" y="0"/>
      <point x="610" y="0" type="curve"/>
      <point x="610" y="22"/>
      <point x="610" y="0"/>
      <point x="610" y="22" type="curve"/>
      <point x="441" y="22"/>
      <point x="610" y="22"/>
      <point x="441" y="22" type="curve"/>
    </contour>
    <contour>
      <point x="740" y="722"/>
      <point x="740" y="700"/>
      <point x="740" y="722" type="curve"/>
      <point x="683" y="722"/>
      <point x="627" y="722"/>
      <point x="571" y="722" type="curve"/>
      <point x="571" y="700"/>
      <point x="571" y="722"/>
      <point x="571" y="700" type="curve"/>
      <point x="740" y="700"/>
      <point x="571" y="700"/>
      <point x="740" y="700" type="curve"/>
    </contour>
    <contour>
      <point x="160" y="722"/>
      <point x="160" y="700"/>
      <point x="160" y="722" type="curve"/>
      <point x="103" y="722"/>
      <point x="47" y="722"/>
      <point x="-9" y="722" type="curve"/>
      <point x="-9" y="700"/>
      <point x="-9" y="722"/>
      <point x="-9" y="700" type="curve"/>
      <point x="160" y="700"/>
      <point x="-9" y="700"/>
      <point x="160" y="700" type="curve"/>
    </contour>
    <contour>
      <point x="160" y="700"/>
      <point x="160" y="722"/>
      <point x="160" y="700" type="curve"/>
      <point x="329" y="700"/>
      <point x="160" y="700"/>
      <point x="329" y="700" type="curve"/>
      <point x="329" y="722"/>
      <point x="329" y="700"/>
      <point x="329" y="722" type="curve"/>
      <point x="272" y="722"/>
      <point x="216" y="722"/>
      <point x="160" y="722" type="curve"/>
    </contour>
    <contour>
      <point x="740" y="700"/>
      <point x="740" y="722"/>
      <point x="740" y="700" type="curve"/>
      <point x="909" y="700"/>
      <point x="740" y="700"/>
      <point x="909" y="700" type="curve"/>
      <point x="909" y="722"/>
      <point x="909" y="700"/>
      <point x="909" y="722" type="curve"/>
      <point x="852" y="722"/>
      <point x="796" y="722"/>
      <point x="740" y="722" type="curve"/>
    </contour>
    <contour>
      <point x="111" y="722"/>
      <point x="140" y="722"/>
      <point x="111" y="722" type="curve"/>
      <point x="216" y="594"/>
      <point x="322" y="465"/>
      <point x="428" y="337" type="curve"/>
      <point x="454" y="337"/>
      <point x="428" y="341"/>
      <point x="454" y="341" type="curve"/>
      <point x="349" y="468"/>
      <point x="244" y="595"/>
      <point x="140" y="722" type="curve"/>
    </contour>
    <contour>
      <point x="760" y="722"/>
      <point x="789" y="722"/>
      <point x="760" y="722" type="curve"/>
      <point x="649" y="595"/>
      <point x="539" y="468"/>
      <point x="429" y="341" type="curve"/>
      <point x="454" y="341"/>
      <point x="429" y="337"/>
      <point x="454" y="337" type="curve"/>
      <point x="566" y="465"/>
      <point x="677" y="594"/>
      <point x="789" y="722" type="curve"/>
    </contour>
    <contour>
      <point x="454" y="0"/>
      <point x="428" y="0"/>
      <point x="454" y="0" type="curve"/>
      <point x="454" y="115"/>
      <point x="454" y="231"/>
      <point x="454" y="346" type="curve"/>
      <point x="428" y="346"/>
      <point x="454" y="346"/>
      <point x="428" y="346" type="curve"/>
      <point x="428" y="231"/>
      <point x="428" y="115"/>
      <point x="428" y="0" type="curve"/>
    </contour>
    <contour>
      <point x="442" y="825" type="move" name="top"/>
    </contour>
  </outline>
</glyph>
<glyph name="backslash" format="1">
  <advance width="640"/>
  <unicode hex="005C"/>
  <outline>
    <contour>
      <point x="597" y="-68"/>
      <point x="572" y="-68"/>
      <point x="597" y="-68" type="curve"/>
      <point x="421" y="236"/>
      <point x="245" y="540"/>
      <point x="68" y="844" type="curve"/>
      <point x="43" y="844"/>
      <point x="68" y="844"/>
      <point x="43" y="844" type="curve"/>
      <point x="219" y="540"/>
      <point x="396" y="236"/>
      <point x="572" y="-68" type="curve"/>
    </contour>
  </outline>
</glyph>
<glyph name="bracketright" format="1">
  <advance width="335"/>
  <unicode hex="005D"/>
  <outline>
    <contour>
      <point x="41" y="747"/>
      <point x="41" y="771"/>
      <point x="41" y="747" type="curve"/>
      <point x="110" y="747"/>
      <point x="178" y="747"/>
      <point x="247" y="747" type="curve"/>
      <point x="244" y="750"/>
      <point x="240" y="753"/>
      <point x="237" y="756" type="curve"/>
      <point x="233" y="759"/>
      <point x="229" y="762"/>
      <point x="226" y="765" type="curve"/>
      <point x="226" y="470"/>
      <point x="226" y="175"/>
      <point x="226" y="-120" type="curve"/>
      <point x="230" y="-117"/>
      <point x="234" y="-113"/>
      <point x="238" y="-109" type="curve"/>
      <point x="242" y="-107"/>
      <point x="245" y="-103"/>
      <point x="249" y="-100" type="curve"/>
      <point x="179" y="-100"/>
      <point x="110" y="-100"/>
      <point x="41" y="-100" type="curve"/>
      <point x="41" y="-124"/>
      <point x="41" y="-100"/>
      <point x="41" y="-124" type="curve"/>
      <point x="110" y="-124"/>
      <point x="179" y="-124"/>
      <point x="249" y="-124" type="curve"/>
      <point x="250" y="-124"/>
      <point x="249" y="-124"/>
      <point x="250" y="-124" type="curve"/>
      <point x="250" y="-120"/>
      <point x="250" y="-124"/>
      <point x="250" y="-120" type="curve"/>
      <point x="250" y="175"/>
      <point x="250" y="470"/>
      <point x="250" y="765" type="curve"/>
      <point x="250" y="771"/>
      <point x="250" y="765"/>
      <point x="250" y="771" type="curve"/>
      <point x="247" y="771"/>
      <point x="250" y="771"/>
      <point x="247" y="771" type="curve"/>
      <point x="178" y="771"/>
      <point x="110" y="771"/>
      <point x="41" y="771" type="curve"/>
    </contour>
  </outline>
</glyph>
<glyph name="asciicircum" format="1">
  <advance width="653"/>
  <unicode hex="005E"/>
  <outline>
    <contour>
      <point x="101" y="466"/>
      <point x="80" y="466"/>
      <point x="103" y="466" type="curve"/>
      <point x="181" y="581"/>
      <point x="260" y="695"/>
      <point x="338" y="810" type="curve"/>
      <point x="315" y="810"/>
      <point x="336" y="810"/>
      <point x="313" y="810" type="curve"/>
      <point x="235" y="695"/>
      <point x="156" y="581"/>
      <point x="78" y="466" type="curve"/>
    </contour>
    <contour>
      <point x="575" y="466"/>
      <point x="554" y="466"/>
      <point x="577" y="466" type="curve"/>
      <point x="500" y="577"/>
      <point x="417" y="699"/>
      <point x="340" y="810" type="curve"/>
      <point x="317" y="810"/>
      <point x="338" y="810"/>
      <point x="315" y="810" type="curve"/>
      <point x="391" y="699"/>
      <point x="475" y="577"/>
      <point x="552" y="466" type="curve"/>
    </contour>
  </outline>
</glyph>
<glyph name="underscore" format="1">
  <advance width="920"/>
  <unicode hex="005F"/>
  <outline>
    <contour>
      <point x="-1" y="-210"/>
      <point x="-1" y="-189"/>
      <point x="-1" y="-210" type="curve"/>
      <point x="306" y="-210"/>
      <point x="613" y="-210"/>
      <point x="919" y="-210" type="curve"/>
      <point x="919" y="-189"/>
      <point x="919" y="-210"/>
      <point x="919" y="-189" type="curve"/>
      <point x="613" y="-189"/>
      <point x="306" y="-189"/>
      <point x="-1" y="-189" type="curve"/>
    </contour>
  </outline>
</glyph>
<glyph name="grave" format="1">
  <advance width="488"/>
  <unicode hex="0060"/>
  <outline>
    <contour>
      <point x="288" y="591" type="line"/>
      <point x="100" y="757" type="line"/>
      <point x="60" y="757" type="line"/>
      <point x="258" y="591" type="line"/>
    </contour>
    <contour>
      <point x="270" y="591" type="move" name="_top"/>
    </contour>
  </outline>
</glyph>
<glyph name="b" format="1">
  <advance width="821"/>
  <unicode hex="0062"/>
  <outline>
    <contour>
      <point x="176" y="800"/>
      <point x="176" y="778"/>
      <point x="176" y="800" type="curve"/>
      <point x="120" y="800"/>
      <point x="64" y="800"/>
      <point x="7" y="800" type="curve"/>
      <point x="7" y="778"/>
      <point x="7" y="800"/>
      <point x="7" y="778" type="curve"/>
      <point x="176" y="778"/>
      <point x="7" y="778"/>
      <point x="176" y="778" type="curve"/>
    </contour>
    <contour>
      <point x="180" y="408"/>
      <point x="168" y="424"/>
      <point x="180" y="408" type="curve"/>
      <point x="240" y="463"/>
      <point x="344" y="516"/>
      <point x="461" y="516" type="curve"/>
      <point x="618" y="516"/>
      <point x="729" y="420"/>
      <point x="729" y="263" type="curve"/>
      <point x="729" y="112"/>
      <point x="617" y="15"/>
      <point x="460" y="17" type="curve"/>
      <point x="352" y="17"/>
      <point x="270" y="42"/>
      <point x="183" y="110" type="curve"/>
      <point x="167" y="97"/>
      <point x="183" y="110"/>
      <point x="167" y="97" type="curve"/>
      <point x="258" y="21"/>
      <point x="345" y="-5"/>
      <point x="461" y="-5" type="curve"/>
      <point x="631" y="-5"/>
      <point x="753" y="97"/>
      <point x="753" y="264" type="curve"/>
      <point x="753" y="432"/>
      <point x="632" y="538"/>
      <point x="464" y="538" type="curve"/>
      <point x="341" y="538"/>
      <point x="232" y="483"/>
      <point x="168" y="424" type="curve"/>
    </contour>
    <contour>
      <point x="186" y="0"/>
      <point x="162" y="0"/>
      <point x="186" y="0" type="curve"/>
      <point x="186" y="267"/>
      <point x="186" y="533"/>
      <point x="186" y="800" type="curve"/>
      <point x="162" y="800"/>
      <point x="186" y="800"/>
      <point x="162" y="800" type="curve"/>
      <point x="162" y="533"/>
      <point x="162" y="267"/>
      <point x="162" y="0" type="curve"/>
    </contour>
    <contour>
      <point x="176" y="22"/>
      <point x="176" y="0"/>
      <point x="176" y="22" type="curve"/>
      <point x="7" y="22"/>
      <point x="176" y="22"/>
      <point x="7" y="22" type="curve"/>
      <point x="7" y="0"/>
      <point x="7" y="22"/>
      <point x="7" y="0" type="curve"/>
      <point x="64" y="0"/>
      <point x="120" y="0"/>
      <point x="176" y="0" type="curve"/>
    </contour>
  </outline>
</glyph>
<glyph name="c" format="1">
  <advance width="669"/>
  <unicode hex="0063"/>
  <outline>
    <contour>
      <point x="575" y="473"/>
      <point x="597" y="473"/>
      <point x="575" y="473" type="curve"/>
      <point x="575" y="353"/>
      <point x="575" y="473"/>
      <point x="575" y="353" type="curve"/>
      <point x="597" y="353"/>
      <point x="575" y="353"/>
      <point x="597" y="353" type="curve"/>
      <point x="597" y="473"/>
      <point x="597" y="353"/>
      <point x="597" y="473" type="curve"/>
    </contour>
    <contour>
      <point x="597" y="473"/>
      <point x="583" y="458"/>
      <point x="597" y="473" type="curve"/>
      <point x="534" y="511"/>
      <point x="458" y="538"/>
      <point x="381" y="538" type="curve"/>
      <point x="193" y="538"/>
      <point x="67" y="450"/>
      <point x="67" y="267" type="curve"/>
      <point x="67" y="84"/>
      <point x="190" y="-5"/>
      <point x="379" y="-5" type="curve"/>
      <point x="464" y="-5"/>
      <point x="549" y="25"/>
      <point x="612" y="82" type="curve"/>
      <point x="595" y="98"/>
      <point x="612" y="82"/>
      <point x="595" y="98" type="curve"/>
      <point x="535" y="43"/>
      <point x="458" y="17"/>
      <point x="379" y="17" type="curve"/>
      <point x="208" y="17"/>
      <point x="91" y="97"/>
      <point x="91" y="267" type="curve"/>
      <point x="91" y="437"/>
      <point x="208" y="516"/>
      <point x="379" y="516" type="curve"/>
      <point x="451" y="516"/>
      <point x="522" y="494"/>
      <point x="583" y="458" type="curve"/>
    </contour>
    <contour>
      <point x="388" y="-2" type="move" name="bottom"/>
    </contour>
    <contour>
      <point x="375" y="671" type="move" name="top"/>
    </contour>
  </outline>
</glyph>
<glyph name="f" format="1">
  <advance width="626"/>
  <unicode hex="0066"/>
  <outline>
    <contour>
      <point x="596" y="772"/>
      <point x="618" y="772"/>
      <point x="596" y="772" type="curve"/>
      <point x="596" y="652"/>
      <point x="596" y="772"/>
      <point x="596" y="652" type="curve"/>
      <point x="618" y="652"/>
      <point x="596" y="652"/>
      <point x="618" y="652" type="curve"/>
      <point x="618" y="772"/>
      <point x="618" y="652"/>
      <point x="618" y="772" type="curve"/>
    </contour>
    <contour>
      <point x="290" y="0"/>
      <point x="290" y="22"/>
      <point x="290" y="0" type="curve"/>
      <point x="346" y="0"/>
      <point x="403" y="0"/>
      <point x="459" y="0" type="curve"/>
      <point x="459" y="22"/>
      <point x="459" y="0"/>
      <point x="459" y="22" type="curve"/>
      <point x="290" y="22"/>
      <point x="459" y="22"/>
      <point x="290" y="22" type="curve"/>
    </contour>
    <contour>
      <point x="290" y="22"/>
      <point x="290" y="0"/>
      <point x="290" y="22" type="curve"/>
      <point x="121" y="22"/>
      <point x="290" y="22"/>
      <point x="121" y="22" type="curve"/>
      <point x="121" y="0"/>
      <point x="121" y="22"/>
      <point x="121" y="0" type="curve"/>
      <point x="177" y="0"/>
      <point x="234" y="0"/>
      <point x="290" y="0" type="curve"/>
    </contour>
    <contour>
      <point x="40" y="511"/>
      <point x="40" y="533"/>
      <point x="40" y="511" type="curve"/>
      <point x="40" y="511"/>
      <point x="599" y="511"/>
      <point x="599" y="511" type="curve"/>
      <point x="599" y="533"/>
      <point x="599" y="511"/>
      <point x="599" y="533" type="curve"/>
      <point x="599" y="533"/>
      <point x="40" y="533"/>
      <point x="40" y="533" type="curve"/>
    </contour>
    <contour>
      <point x="302" y="0"/>
      <point x="278" y="0"/>
      <point x="302" y="0" type="curve"/>
      <point x="302" y="0"/>
      <point x="302" y="640"/>
      <point x="302" y="640" type="curve"/>
      <point x="302" y="735"/>
      <point x="374" y="783"/>
      <point x="475" y="783" type="curve"/>
      <point x="521" y="783"/>
      <point x="566" y="770"/>
      <point x="608" y="755" type="curve"/>
      <point x="618" y="772"/>
      <point x="608" y="755"/>
      <point x="618" y="772" type="curve"/>
      <point x="572" y="789"/>
      <point x="523" y="805"/>
      <point x="475" y="805" type="curve"/>
      <point x="361" y="805"/>
      <point x="278" y="750"/>
      <point x="278" y="640" type="curve"/>
      <point x="278" y="640"/>
      <point x="278" y="0"/>
      <point x="278" y="0" type="curve"/>
    </contour>
  </outline>
</glyph>
<glyph name="g" format="1">
  <advance width="695"/>
  <unicode hex="0067"/>
  <outline>
    <contour>
      <point x="475" y="500"/>
      <point x="462" y="517"/>
      <point x="475" y="500" type="curve"/>
      <point x="673" y="575" type="line"/>
      <point x="660" y="597" type="line"/>
      <point x="462" y="517" type="line"/>
    </contour>
    <contour>
      <point x="130" y="358"/>
      <point x="105" y="357"/>
      <point x="130" y="358" type="curve"/>
      <point x="130" y="466"/>
      <point x="232" y="517"/>
      <point x="355" y="517" type="curve"/>
      <point x="476" y="517"/>
      <point x="574" y="469"/>
      <point x="574" y="361" type="curve"/>
      <point x="574" y="257"/>
      <point x="474" y="210"/>
      <point x="352" y="210" type="curve"/>
      <point x="233" y="210"/>
      <point x="130" y="252"/>
      <point x="130" y="358" type="curve"/>
      <point x="105" y="357"/>
      <point x="130" y="358"/>
      <point x="105" y="357" type="curve"/>
      <point x="105" y="238"/>
      <point x="217" y="189"/>
      <point x="350" y="189" type="curve"/>
      <point x="486" y="189"/>
      <point x="598" y="240"/>
      <point x="598" y="362" type="curve"/>
      <point x="598" y="483"/>
      <point x="489" y="538"/>
      <point x="355" y="538" type="curve"/>
      <point x="217" y="538"/>
      <point x="105" y="481"/>
      <point x="105" y="357" type="curve"/>
    </contour>
    <contour>
      <point x="213" y="227"/>
      <point x="224" y="214"/>
      <point x="213" y="227" type="curve"/>
      <point x="155" y="204"/>
      <point x="111" y="170"/>
      <point x="111" y="109" type="curve"/>
      <point x="111" y="4"/>
      <point x="226" y="-5"/>
      <point x="346" y="-13" type="curve"/>
      <point x="497" y="-23"/>
      <point x="650" y="-16"/>
      <point x="650" y="-144" type="curve"/>
      <point x="650" y="-266"/>
      <point x="503" y="-283"/>
      <point x="348" y="-283" type="curve"/>
      <point x="203" y="-283"/>
      <point x="70" y="-251"/>
      <point x="70" y="-134" type="curve"/>
      <point x="70" y="-54"/>
      <point x="137" y="-16"/>
      <point x="216" y="9" type="curve"/>
      <point x="204" y="22"/>
      <point x="216" y="9"/>
      <point x="204" y="22" type="curve"/>
      <point x="117" y="-4"/>
      <point x="46" y="-46"/>
      <point x="46" y="-135" type="curve"/>
      <point x="46" y="-272"/>
      <point x="188" y="-304"/>
      <point x="347" y="-304" type="curve"/>
      <point x="516" y="-304"/>
      <point x="675" y="-287"/>
      <point x="672" y="-142" type="curve"/>
      <point x="672" y="1"/>
      <point x="512" y="-2"/>
      <point x="350" y="8" type="curve"/>
      <point x="241" y="13"/>
      <point x="135" y="16"/>
      <point x="135" y="112" type="curve"/>
      <point x="135" y="164"/>
      <point x="174" y="192"/>
      <point x="224" y="214" type="curve"/>
    </contour>
    <contour>
      <point x="357" y="671" type="move" name="top"/>
    </contour>
  </outline>
</glyph>
<glyph name="h" format="1">
  <advance width="851"/>
  <unicode hex="0068"/>
  <outline>
    <contour>
      <point x="677" y="0"/>
      <point x="677" y="22"/>
      <point x="677" y="0" type="curve"/>
      <point x="733" y="0"/>
      <point x="790" y="0"/>
      <point x="846" y="0" type="curve"/>
      <point x="846" y="22"/>
      <point x="846" y="0"/>
      <point x="846" y="22" type="curve"/>
      <point x="677" y="22"/>
      <point x="846" y="22"/>
      <point x="677" y="22" type="curve"/>
    </contour>
    <contour>
      <point x="176" y="0"/>
      <point x="176" y="22"/>
      <point x="176" y="0" type="curve"/>
      <point x="228" y="0"/>
      <point x="176" y="0"/>
      <point x="332" y="0" type="curve"/>
      <point x="332" y="22"/>
      <point x="332" y="0"/>
      <point x="332" y="22" type="curve"/>
      <point x="176" y="22"/>
      <point x="332" y="22"/>
      <point x="176" y="22" type="curve"/>
    </contour>
    <contour>
      <point x="176" y="800"/>
      <point x="176" y="778"/>
      <point x="176" y="800" type="curve"/>
      <point x="120" y="800"/>
      <point x="63" y="800"/>
      <point x="7" y="800" type="curve"/>
      <point x="7" y="778"/>
      <point x="7" y="800"/>
      <point x="7" y="778" type="curve"/>
      <point x="176" y="778"/>
      <point x="7" y="778"/>
      <point x="176" y="778" type="curve"/>
    </contour>
    <contour>
      <point x="176" y="22"/>
      <point x="176" y="0"/>
      <point x="176" y="22" type="curve"/>
      <point x="7" y="22"/>
      <point x="176" y="22"/>
      <point x="7" y="22" type="curve"/>
      <point x="7" y="0"/>
      <point x="7" y="22"/>
      <point x="7" y="0" type="curve"/>
      <point x="63" y="0"/>
      <point x="120" y="0"/>
      <point x="176" y="0" type="curve"/>
    </contour>
    <contour>
      <point x="183" y="354"/>
      <point x="171" y="365"/>
      <point x="183" y="354" type="curve"/>
      <point x="234" y="458"/>
      <point x="345" y="516"/>
      <point x="460" y="516" type="curve"/>
      <point x="586" y="516"/>
      <point x="666" y="461"/>
      <point x="666" y="341" type="curve"/>
      <point x="666" y="228"/>
      <point x="666" y="114"/>
      <point x="666" y="0" type="curve"/>
      <point x="690" y="0"/>
      <point x="666" y="0"/>
      <point x="690" y="0" type="curve"/>
      <point x="690" y="115"/>
      <point x="690" y="229"/>
      <point x="690" y="344" type="curve"/>
      <point x="690" y="477"/>
      <point x="602" y="538"/>
      <point x="463" y="538" type="curve"/>
      <point x="338" y="538"/>
      <point x="217" y="481"/>
      <point x="171" y="365" type="curve"/>
    </contour>
    <contour>
      <point x="188" y="0"/>
      <point x="164" y="0"/>
      <point x="188" y="0" type="curve"/>
      <point x="188" y="267"/>
      <point x="188" y="533"/>
      <point x="188" y="800" type="curve"/>
      <point x="164" y="800"/>
      <point x="188" y="800"/>
      <point x="164" y="800" type="curve"/>
      <point x="164" y="533"/>
      <point x="164" y="267"/>
      <point x="164" y="0" type="curve"/>
    </contour>
  </outline>
</glyph>
<glyph name="i" format="1">
  <advance width="370"/>
  <unicode hex="0069"/>
  <outline>
    <contour>
      <point x="205" y="22"/>
      <point x="205" y="0"/>
      <point x="205" y="22" type="curve"/>
      <point x="36" y="22"/>
      <point x="205" y="22"/>
      <point x="36" y="22" type="curve"/>
      <point x="36" y="0"/>
      <point x="36" y="22"/>
      <point x="36" y="0" type="curve"/>
      <point x="93" y="0"/>
      <point x="149" y="0"/>
      <point x="205" y="0" type="curve"/>
    </contour>
    <contour>
      <point x="205" y="0"/>
      <point x="205" y="22"/>
      <point x="205" y="0" type="curve"/>
      <point x="257" y="0"/>
      <point x="309" y="0"/>
      <point x="361" y="0" type="curve"/>
      <point x="361" y="22"/>
      <point x="361" y="0"/>
      <point x="361" y="22" type="curve"/>
      <point x="205" y="22"/>
      <point x="361" y="22"/>
      <point x="205" y="22" type="curve"/>
    </contour>
    <contour>
      <point x="205" y="533"/>
      <point x="205" y="511"/>
      <point x="205" y="533" type="curve"/>
      <point x="149" y="533"/>
      <point x="93" y="533"/>
      <point x="36" y="533" type="curve"/>
      <point x="36" y="511"/>
      <point x="36" y="533"/>
      <point x="36" y="511" type="curve"/>
      <point x="205" y="511"/>
      <point x="36" y="511"/>
      <point x="205" y="511" type="curve"/>
    </contour>
    <contour>
      <point x="219" y="0"/>
      <point x="193" y="0"/>
      <point x="219" y="0" type="curve"/>
      <point x="219" y="178"/>
      <point x="219" y="355"/>
      <point x="219" y="533" type="curve"/>
      <point x="193" y="533"/>
      <point x="219" y="533"/>
      <point x="193" y="533" type="curve"/>
      <point x="193" y="355"/>
      <point x="193" y="178"/>
      <point x="193" y="0" type="curve"/>
    </contour>
    <contour>
      <point x="200" y="684"/>
      <point x="210" y="684"/>
      <point x="224" y="684" type="curve"/>
      <point x="224" y="695"/>
      <point x="216" y="702"/>
      <point x="204" y="702" type="curve"/>
      <point x="193" y="702"/>
      <point x="186" y="695"/>
      <point x="186" y="684" type="curve"/>
      <point x="200" y="684"/>
      <point x="210" y="684"/>
      <point x="224" y="684" type="curve"/>
      <point x="224" y="673"/>
      <point x="216" y="666"/>
      <point x="204" y="666" type="curve"/>
      <point x="193" y="666"/>
      <point x="186" y="673"/>
      <point x="186" y="684" type="curve"/>
    </contour>
    <contour>
      <point x="205" y="669" type="move" name="top"/>
    </contour>
    <contour>
      <point x="219" y="0" type="move" name="bottom"/>
    </contour>
  </outline>
</glyph>
<glyph name="j" format="1">
  <advance width="365"/>
  <unicode hex="006A"/>
  <outline>
    <contour>
      <point x="243" y="533"/>
      <point x="243" y="511"/>
      <point x="243" y="533" type="curve"/>
      <point x="187" y="533"/>
      <point x="131" y="533"/>
      <point x="74" y="533" type="curve"/>
      <point x="74" y="511"/>
      <point x="74" y="533"/>
      <point x="74" y="511" type="curve"/>
      <point x="243" y="511"/>
      <point x="74" y="511"/>
      <point x="243" y="511" type="curve"/>
    </contour>
    <contour>
      <point x="8" y="-301"/>
      <point x="11" y="-279"/>
      <point x="7" y="-301" type="curve"/>
      <point x="18" y="-301"/>
      <point x="32" y="-304"/>
      <point x="47" y="-304" type="curve"/>
      <point x="162" y="-304"/>
      <point x="257" y="-253"/>
      <point x="257" y="-142" type="curve"/>
      <point x="257" y="83"/>
      <point x="257" y="308"/>
      <point x="257" y="533" type="curve"/>
      <point x="233" y="533"/>
      <point x="257" y="533"/>
      <point x="233" y="533" type="curve"/>
      <point x="233" y="308"/>
      <point x="233" y="83"/>
      <point x="233" y="-142" type="curve"/>
      <point x="233" y="-238"/>
      <point x="149" y="-282"/>
      <point x="47" y="-282" type="curve"/>
      <point x="35" y="-282"/>
      <point x="19" y="-280"/>
      <point x="11" y="-279" type="curve"/>
    </contour>
    <contour>
      <point x="241" y="683"/>
      <point x="251" y="683"/>
      <point x="265" y="683" type="curve"/>
      <point x="265" y="694"/>
      <point x="257" y="701"/>
      <point x="245" y="701" type="curve"/>
      <point x="234" y="701"/>
      <point x="227" y="694"/>
      <point x="227" y="683" type="curve"/>
      <point x="241" y="683"/>
      <point x="251" y="683"/>
      <point x="265" y="683" type="curve"/>
      <point x="265" y="672"/>
      <point x="257" y="665"/>
      <point x="245" y="665" type="curve"/>
      <point x="234" y="665"/>
      <point x="227" y="672"/>
      <point x="227" y="683" type="curve"/>
    </contour>
  </outline>
</glyph>
<glyph name="k" format="1">
  <advance width="768"/>
  <unicode hex="006B"/>
  <outline>
    <contour>
      <point x="176" y="22"/>
      <point x="176" y="0"/>
      <point x="176" y="22" type="curve"/>
      <point x="7" y="22"/>
      <point x="176" y="22"/>
      <point x="7" y="22" type="curve"/>
      <point x="7" y="0"/>
      <point x="7" y="22"/>
      <point x="7" y="0" type="curve"/>
      <point x="63" y="0"/>
      <point x="119" y="0"/>
      <point x="176" y="0" type="curve"/>
    </contour>
    <contour>
      <point x="583" y="0"/>
      <point x="583" y="22"/>
      <point x="583" y="0" type="curve"/>
      <point x="639" y="0"/>
      <point x="696" y="0"/>
      <point x="752" y="0" type="curve"/>
      <point x="752" y="22"/>
      <point x="752" y="0"/>
      <point x="752" y="22" type="curve"/>
      <point x="583" y="22"/>
      <point x="752" y="22"/>
      <point x="583" y="22" type="curve"/>
    </contour>
    <contour>
      <point x="548" y="511"/>
      <point x="548" y="533"/>
      <point x="548" y="511" type="curve"/>
      <point x="699" y="511"/>
      <point x="548" y="511"/>
      <point x="699" y="511" type="curve"/>
      <point x="699" y="533"/>
      <point x="699" y="511"/>
      <point x="699" y="533" type="curve"/>
      <point x="649" y="533"/>
      <point x="598" y="533"/>
      <point x="548" y="533" type="curve"/>
    </contour>
    <contour>
      <point x="176" y="0"/>
      <point x="176" y="22"/>
      <point x="176" y="0" type="curve"/>
      <point x="227" y="0"/>
      <point x="176" y="0"/>
      <point x="329" y="0" type="curve"/>
      <point x="329" y="22"/>
      <point x="329" y="0"/>
      <point x="329" y="22" type="curve"/>
      <point x="176" y="22"/>
      <point x="329" y="22"/>
      <point x="176" y="22" type="curve"/>
    </contour>
    <contour>
      <point x="548" y="533"/>
      <point x="548" y="511"/>
      <point x="548" y="533" type="curve"/>
      <point x="496" y="533"/>
      <point x="444" y="533"/>
      <point x="392" y="533" type="curve"/>
      <point x="392" y="511"/>
      <point x="392" y="533"/>
      <point x="392" y="511" type="curve"/>
      <point x="548" y="511"/>
      <point x="392" y="511"/>
      <point x="548" y="511" type="curve"/>
    </contour>
    <contour>
      <point x="179" y="800"/>
      <point x="179" y="778"/>
      <point x="179" y="800" type="curve"/>
      <point x="122" y="800"/>
      <point x="66" y="800"/>
      <point x="9" y="800" type="curve"/>
      <point x="9" y="778"/>
      <point x="9" y="800"/>
      <point x="9" y="778" type="curve"/>
      <point x="179" y="778"/>
      <point x="9" y="778"/>
      <point x="179" y="778" type="curve"/>
    </contour>
    <contour>
      <point x="189" y="0"/>
      <point x="165" y="0"/>
      <point x="189" y="0" type="curve"/>
      <point x="189" y="0"/>
      <point x="189" y="800"/>
      <point x="189" y="800" type="curve"/>
      <point x="165" y="800"/>
      <point x="189" y="800"/>
      <point x="165" y="800" type="curve"/>
      <point x="165" y="533"/>
      <point x="165" y="267"/>
      <point x="165" y="0" type="curve"/>
    </contour>
    <contour>
      <point x="552" y="533"/>
      <point x="594" y="533"/>
      <point x="552" y="533" type="curve"/>
      <point x="178" y="275" type="line"/>
      <point x="221" y="275"/>
      <point x="178" y="275"/>
      <point x="221" y="275" type="curve"/>
      <point x="594" y="533" type="line"/>
    </contour>
    <contour>
      <point x="630" y="0"/>
      <point x="583" y="0"/>
      <point x="630" y="0" type="curve"/>
      <point x="221" y="275" type="line"/>
      <point x="178" y="275"/>
      <point x="221" y="275"/>
      <point x="178" y="275" type="curve"/>
      <point x="583" y="0" type="line"/>
    </contour>
    <contour>
      <point x="449" y="3" type="move" name="bottom"/>
    </contour>
  </outline>
</glyph>
<glyph name="l" format="1">
  <advance width="354"/>
  <unicode hex="006C"/>
  <outline>
    <contour>
      <point x="177" y="22"/>
      <point x="177" y="0"/>
      <point x="177" y="22" type="curve"/>
      <point x="8" y="22"/>
      <point x="177" y="22"/>
      <point x="8" y="22" type="curve"/>
      <point x="8" y="0"/>
      <point x="8" y="22"/>
      <point x="8" y="0" type="curve"/>
      <point x="65" y="0"/>
      <point x="121" y="0"/>
      <point x="177" y="0" type="curve"/>
    </contour>
    <contour>
      <point x="180" y="800"/>
      <point x="180" y="778"/>
      <point x="180" y="800" type="curve"/>
      <point x="124" y="800"/>
      <point x="67" y="800"/>
      <point x="11" y="800" type="curve"/>
      <point x="11" y="778"/>
      <point x="11" y="800"/>
      <point x="11" y="778" type="curve"/>
      <point x="180" y="778"/>
      <point x="11" y="778"/>
      <point x="180" y="778" type="curve"/>
    </contour>
    <contour>
      <point x="177" y="0"/>
      <point x="177" y="22"/>
      <point x="177" y="0" type="curve"/>
      <point x="234" y="0"/>
      <point x="290" y="0"/>
      <point x="347" y="0" type="curve"/>
      <point x="347" y="22"/>
      <point x="347" y="0"/>
      <point x="347" y="22" type="curve"/>
      <point x="177" y="22"/>
      <point x="347" y="22"/>
      <point x="177" y="22" type="curve"/>
    </contour>
    <contour>
      <point x="188" y="0"/>
      <point x="164" y="0"/>
      <point x="188" y="0" type="curve"/>
      <point x="188" y="267"/>
      <point x="188" y="533"/>
      <point x="188" y="800" type="curve"/>
      <point x="164" y="800"/>
      <point x="188" y="800"/>
      <point x="164" y="800" type="curve"/>
      <point x="164" y="533"/>
      <point x="164" y="267"/>
      <point x="164" y="0" type="curve"/>
    </contour>
    <contour>
      <point x="177" y="916" type="move" name="top"/>
    </contour>
    <contour>
      <point x="188" y="4" type="move" name="bottom"/>
    </contour>
  </outline>
</glyph>
<glyph name="m" format="1">
  <advance width="1276"/>
  <unicode hex="006D"/>
  <outline>
    <contour>
      <point x="653" y="0"/>
      <point x="653" y="22"/>
      <point x="653" y="0" type="curve"/>
      <point x="795" y="0"/>
      <point x="653" y="0"/>
      <point x="795" y="0" type="curve"/>
      <point x="795" y="22"/>
      <point x="795" y="0"/>
      <point x="795" y="22" type="curve"/>
      <point x="653" y="22"/>
      <point x="795" y="22"/>
      <point x="653" y="22" type="curve"/>
    </contour>
    <contour>
      <point x="1103" y="0"/>
      <point x="1103" y="22"/>
      <point x="1103" y="0" type="curve"/>
      <point x="1159" y="0"/>
      <point x="1216" y="0"/>
      <point x="1272" y="0" type="curve"/>
      <point x="1272" y="22"/>
      <point x="1272" y="0"/>
      <point x="1272" y="22" type="curve"/>
      <point x="1103" y="22"/>
      <point x="1272" y="22"/>
      <point x="1103" y="22" type="curve"/>
    </contour>
    <contour>
      <point x="205" y="22"/>
      <point x="205" y="0"/>
      <point x="205" y="22" type="curve"/>
      <point x="36" y="22"/>
      <point x="205" y="22"/>
      <point x="36" y="22" type="curve"/>
      <point x="36" y="0"/>
      <point x="36" y="22"/>
      <point x="36" y="0" type="curve"/>
      <point x="92" y="0"/>
      <point x="149" y="0"/>
      <point x="205" y="0" type="curve"/>
    </contour>
    <contour>
      <point x="205" y="0"/>
      <point x="205" y="22"/>
      <point x="205" y="0" type="curve"/>
      <point x="252" y="0"/>
      <point x="205" y="0"/>
      <point x="347" y="0" type="curve"/>
      <point x="347" y="22"/>
      <point x="347" y="0"/>
      <point x="347" y="22" type="curve"/>
      <point x="205" y="22"/>
      <point x="347" y="22"/>
      <point x="205" y="22" type="curve"/>
    </contour>
    <contour>
      <point x="205" y="533"/>
      <point x="205" y="511"/>
      <point x="205" y="533" type="curve"/>
      <point x="149" y="533"/>
      <point x="92" y="533"/>
      <point x="36" y="533" type="curve"/>
      <point x="36" y="511"/>
      <point x="36" y="533"/>
      <point x="36" y="511" type="curve"/>
      <point x="205" y="511"/>
      <point x="36" y="511"/>
      <point x="205" y="511" type="curve"/>
    </contour>
    <contour>
      <point x="660" y="354"/>
      <point x="648" y="365"/>
      <point x="660" y="354" type="curve"/>
      <point x="710" y="458"/>
      <point x="796" y="516"/>
      <point x="908" y="516" type="curve"/>
      <point x="1030" y="516"/>
      <point x="1089" y="464"/>
      <point x="1089" y="341" type="curve"/>
      <point x="1089" y="228"/>
      <point x="1089" y="114"/>
      <point x="1089" y="0" type="curve"/>
      <point x="1114" y="0"/>
      <point x="1089" y="0"/>
      <point x="1114" y="0" type="curve"/>
      <point x="1114" y="115"/>
      <point x="1114" y="229"/>
      <point x="1114" y="344" type="curve"/>
      <point x="1114" y="478"/>
      <point x="1048" y="538"/>
      <point x="913" y="538" type="curve"/>
      <point x="791" y="538"/>
      <point x="693" y="480"/>
      <point x="648" y="365" type="curve"/>
    </contour>
    <contour>
      <point x="212" y="354"/>
      <point x="200" y="365"/>
      <point x="212" y="354" type="curve"/>
      <point x="263" y="459"/>
      <point x="347" y="516"/>
      <point x="459" y="516" type="curve"/>
      <point x="580" y="516"/>
      <point x="641" y="464"/>
      <point x="641" y="341" type="curve"/>
      <point x="641" y="228"/>
      <point x="641" y="114"/>
      <point x="641" y="0" type="curve"/>
      <point x="665" y="0"/>
      <point x="641" y="0"/>
      <point x="665" y="0" type="curve"/>
      <point x="665" y="115"/>
      <point x="665" y="229"/>
      <point x="665" y="344" type="curve"/>
      <point x="665" y="478"/>
      <point x="600" y="538"/>
      <point x="465" y="538" type="curve"/>
      <point x="342" y="538"/>
      <point x="246" y="481"/>
      <point x="200" y="365" type="curve"/>
    </contour>
    <contour>
      <point x="217" y="0"/>
      <point x="193" y="0"/>
      <point x="217" y="0" type="curve"/>
      <point x="217" y="178"/>
      <point x="217" y="355"/>
      <point x="217" y="533" type="curve"/>
      <point x="193" y="533"/>
      <point x="217" y="533"/>
      <point x="193" y="533" type="curve"/>
      <point x="193" y="355"/>
      <point x="193" y="178"/>
      <point x="193" y="0" type="curve"/>
    </contour>
  </outline>
</glyph>
<glyph name="n" format="1">
  <advance width="879"/>
  <unicode hex="006E"/>
  <outline>
    <contour>
      <point x="212" y="354"/>
      <point x="200" y="365"/>
      <point x="212" y="354" type="curve"/>
      <point x="263" y="458"/>
      <point x="372" y="516"/>
      <point x="487" y="516" type="curve"/>
      <point x="613" y="516"/>
      <point x="695" y="461"/>
      <point x="695" y="341" type="curve"/>
      <point x="695" y="228"/>
      <point x="695" y="114"/>
      <point x="695" y="0" type="curve"/>
      <point x="720" y="0"/>
      <point x="695" y="0"/>
      <point x="720" y="0" type="curve"/>
      <point x="720" y="115"/>
      <point x="720" y="229"/>
      <point x="720" y="344" type="curve"/>
      <point x="720" y="477"/>
      <point x="631" y="538"/>
      <point x="492" y="538" type="curve"/>
      <point x="367" y="538"/>
      <point x="246" y="481"/>
      <point x="200" y="365" type="curve"/>
    </contour>
    <contour>
      <point x="706" y="0"/>
      <point x="706" y="22"/>
      <point x="706" y="0" type="curve"/>
      <point x="762" y="0"/>
      <point x="819" y="0"/>
      <point x="875" y="0" type="curve"/>
      <point x="875" y="22"/>
      <point x="875" y="0"/>
      <point x="875" y="22" type="curve"/>
      <point x="706" y="22"/>
      <point x="875" y="22"/>
      <point x="706" y="22" type="curve"/>
    </contour>
    <contour>
      <point x="205" y="22"/>
      <point x="205" y="0"/>
      <point x="205" y="22" type="curve"/>
      <point x="36" y="22"/>
      <point x="205" y="22"/>
      <point x="36" y="22" type="curve"/>
      <point x="36" y="0"/>
      <point x="36" y="22"/>
      <point x="36" y="0" type="curve"/>
      <point x="93" y="0"/>
      <point x="149" y="0"/>
      <point x="205" y="0" type="curve"/>
    </contour>
    <contour>
      <point x="205" y="0"/>
      <point x="205" y="22"/>
      <point x="205" y="0" type="curve"/>
      <point x="257" y="0"/>
      <point x="205" y="0"/>
      <point x="361" y="0" type="curve"/>
      <point x="361" y="22"/>
      <point x="361" y="0"/>
      <point x="361" y="22" type="curve"/>
      <point x="205" y="22"/>
      <point x="361" y="22"/>
      <point x="205" y="22" type="curve"/>
    </contour>
    <contour>
      <point x="217" y="0"/>
      <point x="193" y="0"/>
      <point x="217" y="0" type="curve"/>
      <point x="217" y="178"/>
      <point x="217" y="355"/>
      <point x="217" y="533" type="curve"/>
      <point x="193" y="533"/>
      <point x="217" y="533"/>
      <point x="193" y="533" type="curve"/>
      <point x="193" y="355"/>
      <point x="193" y="178"/>
      <point x="193" y="0" type="curve"/>
    </contour>
    <contour>
      <point x="205" y="533"/>
      <point x="205" y="511"/>
      <point x="205" y="533" type="curve"/>
      <point x="149" y="533"/>
      <point x="93" y="533"/>
      <point x="36" y="533" type="curve"/>
      <point x="36" y="511"/>
      <point x="36" y="533"/>
      <point x="36" y="511" type="curve"/>
      <point x="205" y="511"/>
      <point x="36" y="511"/>
      <point x="205" y="511" type="curve"/>
    </contour>
    <contour>
      <point x="460" y="669" type="move" name="top"/>
    </contour>
    <contour>
      <point x="506" y="-1" type="move" name="bottom"/>
    </contour>
  </outline>
</glyph>
<glyph name="p" format="1">
  <advance width="831"/>
  <unicode hex="0070"/>
  <outline>
    <contour>
      <point x="185" y="-278"/>
      <point x="185" y="-299"/>
      <point x="185" y="-278" type="curve"/>
      <point x="6" y="-278"/>
      <point x="185" y="-278"/>
      <point x="6" y="-278" type="curve"/>
      <point x="6" y="-299"/>
      <point x="6" y="-278"/>
      <point x="6" y="-299" type="curve"/>
      <point x="67" y="-299"/>
      <point x="126" y="-299"/>
      <point x="185" y="-299" type="curve"/>
    </contour>
    <contour>
      <point x="185" y="-300"/>
      <point x="185" y="-279"/>
      <point x="185" y="-300" type="curve"/>
      <point x="241" y="-300"/>
      <point x="296" y="-300"/>
      <point x="351" y="-300" type="curve"/>
      <point x="351" y="-278"/>
      <point x="351" y="-300"/>
      <point x="351" y="-278" type="curve"/>
      <point x="185" y="-279"/>
      <point x="351" y="-278"/>
      <point x="185" y="-279" type="curve"/>
    </contour>
    <contour>
      <point x="187" y="533"/>
      <point x="187" y="512"/>
      <point x="187" y="533" type="curve"/>
      <point x="127" y="533"/>
      <point x="68" y="533"/>
      <point x="8" y="533" type="curve"/>
      <point x="8" y="511"/>
      <point x="8" y="533"/>
      <point x="8" y="511" type="curve"/>
      <point x="187" y="512"/>
      <point x="8" y="511"/>
      <point x="187" y="512" type="curve"/>
    </contour>
    <contour>
      <point x="191" y="423"/>
      <point x="179" y="437"/>
      <point x="191" y="423" type="curve"/>
      <point x="248" y="476"/>
      <point x="355" y="516"/>
      <point x="470" y="516" type="curve"/>
      <point x="628" y="516"/>
      <point x="740" y="426"/>
      <point x="740" y="276" type="curve"/>
      <point x="744" y="117"/>
      <point x="633" y="15"/>
      <point x="472" y="17" type="curve"/>
      <point x="361" y="17"/>
      <point x="281" y="54"/>
      <point x="193" y="122" type="curve"/>
      <point x="178" y="111"/>
      <point x="193" y="122"/>
      <point x="178" y="111" type="curve"/>
      <point x="269" y="35"/>
      <point x="354" y="-5"/>
      <point x="472" y="-5" type="curve"/>
      <point x="645" y="-5"/>
      <point x="764" y="106"/>
      <point x="763" y="277" type="curve"/>
      <point x="763" y="440"/>
      <point x="640" y="538"/>
      <point x="471" y="538" type="curve"/>
      <point x="351" y="538"/>
      <point x="241" y="495"/>
      <point x="179" y="437" type="curve"/>
    </contour>
    <contour>
      <point x="198" y="-300"/>
      <point x="174" y="-300"/>
      <point x="198" y="-300" type="curve"/>
      <point x="198" y="-22"/>
      <point x="198" y="255"/>
      <point x="198" y="533" type="curve"/>
      <point x="174" y="533"/>
      <point x="198" y="533"/>
      <point x="174" y="533" type="curve"/>
      <point x="174" y="255"/>
      <point x="174" y="-22"/>
      <point x="174" y="-300" type="curve"/>
    </contour>
  </outline>
</glyph>
<glyph name="q" format="1">
  <advance width="814"/>
  <unicode hex="0071"/>
  <outline>
    <contour>
      <point x="652" y="511"/>
      <point x="652" y="533"/>
      <point x="652" y="511" type="curve"/>
      <point x="807" y="511"/>
      <point x="652" y="511"/>
      <point x="807" y="511" type="curve"/>
      <point x="807" y="533"/>
      <point x="807" y="511"/>
      <point x="807" y="533" type="curve"/>
      <point x="756" y="533"/>
      <point x="704" y="533"/>
      <point x="652" y="533" type="curve"/>
    </contour>
    <contour>
      <point x="652" y="-279"/>
      <point x="652" y="-300"/>
      <point x="652" y="-279" type="curve"/>
      <point x="483" y="-278"/>
      <point x="652" y="-279"/>
      <point x="483" y="-278" type="curve"/>
      <point x="483" y="-300"/>
      <point x="483" y="-278"/>
      <point x="483" y="-300" type="curve"/>
      <point x="539" y="-300"/>
      <point x="596" y="-300"/>
      <point x="652" y="-300" type="curve"/>
    </contour>
    <contour>
      <point x="652" y="-300"/>
      <point x="652" y="-279"/>
      <point x="652" y="-300" type="curve"/>
      <point x="704" y="-300"/>
      <point x="756" y="-300"/>
      <point x="807" y="-300" type="curve"/>
      <point x="807" y="-278"/>
      <point x="807" y="-300"/>
      <point x="807" y="-278" type="curve"/>
      <point x="652" y="-279"/>
      <point x="807" y="-278"/>
      <point x="652" y="-279" type="curve"/>
    </contour>
    <contour>
      <point x="661" y="442"/>
      <point x="645" y="429"/>
      <point x="658" y="444" type="curve"/>
      <point x="576" y="503"/>
      <point x="467" y="538"/>
      <point x="362" y="538" type="curve"/>
      <point x="186" y="538"/>
      <point x="65" y="436"/>
      <point x="65" y="264" type="curve"/>
      <point x="65" y="92"/>
      <point x="190" y="-5"/>
      <point x="366" y="-5" type="curve"/>
      <point x="477" y="-5"/>
      <point x="583" y="42"/>
      <point x="656" y="121" type="curve"/>
      <point x="640" y="135"/>
      <point x="661" y="126"/>
      <point x="646" y="140" type="curve"/>
      <point x="572" y="60"/>
      <point x="472" y="17"/>
      <point x="366" y="17" type="curve"/>
      <point x="206" y="17"/>
      <point x="90" y="107"/>
      <point x="90" y="265" type="curve"/>
      <point x="90" y="423"/>
      <point x="202" y="516"/>
      <point x="363" y="516" type="curve"/>
      <point x="463" y="516"/>
      <point x="566" y="481"/>
      <point x="648" y="427" type="curve"/>
    </contour>
    <contour>
      <point x="663" y="-300"/>
      <point x="637" y="-300"/>
      <point x="663" y="-300" type="curve"/>
      <point x="663" y="-22"/>
      <point x="663" y="255"/>
      <point x="663" y="533" type="curve"/>
      <point x="637" y="533"/>
      <point x="663" y="533"/>
      <point x="637" y="533" type="curve"/>
      <point x="637" y="255"/>
      <point x="637" y="-22"/>
      <point x="637" y="-300" type="curve"/>
    </contour>
  </outline>
</glyph>
<glyph name="r" format="1">
  <advance width="574"/>
  <unicode hex="0072"/>
  <outline>
    <contour>
      <point x="206" y="0"/>
      <point x="206" y="22"/>
      <point x="206" y="0" type="curve"/>
      <point x="258" y="0"/>
      <point x="310" y="0"/>
      <point x="362" y="0" type="curve"/>
      <point x="362" y="22"/>
      <point x="362" y="0"/>
      <point x="362" y="22" type="curve"/>
      <point x="206" y="22"/>
      <point x="362" y="22"/>
      <point x="206" y="22" type="curve"/>
    </contour>
    <contour>
      <point x="206" y="22"/>
      <point x="206" y="0"/>
      <point x="206" y="22" type="curve"/>
      <point x="37" y="22"/>
      <point x="206" y="22"/>
      <point x="37" y="22" type="curve"/>
      <point x="37" y="0"/>
      <point x="37" y="22"/>
      <point x="37" y="0" type="curve"/>
      <point x="93" y="0"/>
      <point x="150" y="0"/>
      <point x="206" y="0" type="curve"/>
    </contour>
    <contour>
      <point x="205" y="533"/>
      <point x="205" y="511"/>
      <point x="205" y="533" type="curve"/>
      <point x="148" y="533"/>
      <point x="92" y="533"/>
      <point x="36" y="533" type="curve"/>
      <point x="36" y="511"/>
      <point x="36" y="533"/>
      <point x="36" y="511" type="curve"/>
      <point x="205" y="511"/>
      <point x="36" y="511"/>
      <point x="205" y="511" type="curve"/>
    </contour>
    <contour>
      <point x="218" y="0"/>
      <point x="194" y="0"/>
      <point x="218" y="0" type="curve"/>
      <point x="218" y="178"/>
      <point x="218" y="355"/>
      <point x="218" y="533" type="curve"/>
      <point x="194" y="533"/>
      <point x="218" y="533"/>
      <point x="194" y="533" type="curve"/>
      <point x="194" y="355"/>
      <point x="194" y="178"/>
      <point x="194" y="0" type="curve"/>
    </contour>
    <contour>
      <point x="218" y="356"/>
      <point x="198" y="370"/>
      <point x="212" y="352" type="curve"/>
      <point x="284" y="480"/>
      <point x="409" y="516"/>
      <point x="542" y="516" type="curve"/>
      <point x="542" y="538"/>
      <point x="542" y="516"/>
      <point x="542" y="538" type="curve"/>
      <point x="403" y="538"/>
      <point x="260" y="491"/>
      <point x="205" y="374" type="curve"/>
    </contour>
    <contour>
      <point x="211" y="671" type="move" name="top"/>
    </contour>
    <contour>
      <point x="244" y="3" type="move" name="bottom"/>
    </contour>
  </outline>
</glyph>
<glyph name="v" format="1">
  <advance width="893"/>
  <unicode hex="0076"/>
  <outline>
    <contour>
      <point x="170" y="533"/>
      <point x="170" y="511"/>
      <point x="170" y="533" type="curve"/>
      <point x="114" y="533"/>
      <point x="57" y="533"/>
      <point x="1" y="533" type="curve"/>
      <point x="1" y="511"/>
      <point x="1" y="533"/>
      <point x="1" y="511" type="curve"/>
      <point x="170" y="511"/>
      <point x="1" y="511"/>
      <point x="170" y="511" type="curve"/>
    </contour>
    <contour>
      <point x="170" y="511"/>
      <point x="170" y="533"/>
      <point x="170" y="511" type="curve"/>
      <point x="339" y="511"/>
      <point x="170" y="511"/>
      <point x="339" y="511" type="curve"/>
      <point x="339" y="533"/>
      <point x="339" y="511"/>
      <point x="339" y="533" type="curve"/>
      <point x="283" y="533"/>
      <point x="227" y="533"/>
      <point x="170" y="533" type="curve"/>
    </contour>
    <contour>
      <point x="722" y="533"/>
      <point x="722" y="511"/>
      <point x="722" y="533" type="curve"/>
      <point x="666" y="533"/>
      <point x="610" y="533"/>
      <point x="553" y="533" type="curve"/>
      <point x="553" y="511"/>
      <point x="553" y="533"/>
      <point x="553" y="511" type="curve"/>
      <point x="722" y="511"/>
      <point x="553" y="511"/>
      <point x="722" y="511" type="curve"/>
    </contour>
    <contour>
      <point x="722" y="511"/>
      <point x="722" y="533"/>
      <point x="722" y="511" type="curve"/>
      <point x="891" y="511"/>
      <point x="722" y="511"/>
      <point x="891" y="511" type="curve"/>
      <point x="891" y="533"/>
      <point x="891" y="511"/>
      <point x="891" y="533" type="curve"/>
      <point x="835" y="533"/>
      <point x="779" y="533"/>
      <point x="722" y="533" type="curve"/>
    </contour>
    <contour>
      <point x="144" y="533"/>
      <point x="171" y="533"/>
      <point x="144" y="533" type="curve"/>
      <point x="237" y="355"/>
      <point x="331" y="178"/>
      <point x="424" y="0" type="curve"/>
      <point x="449" y="0"/>
      <point x="424" y="0"/>
      <point x="449" y="0" type="curve"/>
      <point x="356" y="178"/>
      <point x="264" y="355"/>
      <point x="171" y="533" type="curve"/>
    </contour>
    <contour>
      <point x="724" y="533"/>
      <point x="749" y="533"/>
      <point x="724" y="533" type="curve"/>
      <point x="724" y="533"/>
      <point x="430" y="0"/>
      <point x="430" y="0" type="curve"/>
      <point x="455" y="0"/>
      <point x="430" y="0"/>
      <point x="455" y="0" type="curve"/>
      <point x="553" y="178"/>
      <point x="651" y="355"/>
      <point x="749" y="533" type="curve"/>
    </contour>
  </outline>
</glyph>
<glyph name="w" format="1">
  <advance width="1333"/>
  <unicode hex="0077"/>
  <outline>
    <contour>
      <point x="1162" y="511"/>
      <point x="1162" y="533"/>
      <point x="1162" y="511" type="curve"/>
      <point x="1331" y="511"/>
      <point x="1162" y="511"/>
      <point x="1331" y="511" type="curve"/>
      <point x="1331" y="533"/>
      <point x="1331" y="511"/>
      <point x="1331" y="533" type="curve"/>
      <point x="1275" y="533"/>
      <point x="1218" y="533"/>
      <point x="1162" y="533" type="curve"/>
    </contour>
    <contour>
      <point x="1162" y="533"/>
      <point x="1162" y="511"/>
      <point x="1162" y="533" type="curve"/>
      <point x="1106" y="533"/>
      <point x="1049" y="533"/>
      <point x="993" y="533" type="curve"/>
      <point x="993" y="511"/>
      <point x="993" y="533"/>
      <point x="993" y="511" type="curve"/>
      <point x="1162" y="511"/>
      <point x="993" y="511"/>
      <point x="1162" y="511" type="curve"/>
    </contour>
    <contour>
      <point x="170" y="533"/>
      <point x="170" y="511"/>
      <point x="170" y="533" type="curve"/>
      <point x="114" y="533"/>
      <point x="57" y="533"/>
      <point x="1" y="533" type="curve"/>
      <point x="1" y="511"/>
      <point x="1" y="533"/>
      <point x="1" y="511" type="curve"/>
      <point x="170" y="511"/>
      <point x="1" y="511"/>
      <point x="170" y="511" type="curve"/>
    </contour>
    <contour>
      <point x="170" y="511"/>
      <point x="170" y="533"/>
      <point x="170" y="511" type="curve"/>
      <point x="339" y="511"/>
      <point x="170" y="511"/>
      <point x="339" y="511" type="curve"/>
      <point x="339" y="533"/>
      <point x="339" y="511"/>
      <point x="339" y="533" type="curve"/>
      <point x="283" y="533"/>
      <point x="226" y="533"/>
      <point x="170" y="533" type="curve"/>
    </contour>
    <contour>
      <point x="410" y="0"/>
      <point x="387" y="0"/>
      <point x="410" y="0" type="curve"/>
      <point x="502" y="178"/>
      <point x="593" y="355"/>
      <point x="684" y="533" type="curve"/>
      <point x="658" y="533"/>
      <point x="684" y="533"/>
      <point x="658" y="533" type="curve"/>
      <point x="568" y="355"/>
      <point x="477" y="178"/>
      <point x="387" y="0" type="curve"/>
    </contour>
    <contour>
      <point x="1167" y="533"/>
      <point x="1193" y="533"/>
      <point x="1167" y="533" type="curve"/>
      <point x="1082" y="355"/>
      <point x="998" y="178"/>
      <point x="914" y="0" type="curve"/>
      <point x="937" y="0"/>
      <point x="914" y="0"/>
      <point x="937" y="0" type="curve"/>
      <point x="1022" y="178"/>
      <point x="1107" y="355"/>
      <point x="1193" y="533" type="curve"/>
    </contour>
    <contour>
      <point x="666" y="533"/>
      <point x="691" y="533"/>
      <point x="666" y="533" type="curve"/>
      <point x="748" y="355"/>
      <point x="830" y="178"/>
      <point x="912" y="0" type="curve"/>
      <point x="935" y="0"/>
      <point x="912" y="0"/>
      <point x="935" y="0" type="curve"/>
      <point x="854" y="178"/>
      <point x="772" y="355"/>
      <point x="691" y="533" type="curve"/>
    </contour>
    <contour>
      <point x="140" y="533"/>
      <point x="166" y="533"/>
      <point x="140" y="533" type="curve"/>
      <point x="222" y="355"/>
      <point x="304" y="178"/>
      <point x="386" y="0" type="curve"/>
      <point x="409" y="0"/>
      <point x="386" y="0"/>
      <point x="409" y="0" type="curve"/>
      <point x="328" y="178"/>
      <point x="247" y="355"/>
      <point x="166" y="533" type="curve"/>
    </contour>
  </outline>
</glyph>
<glyph name="x" format="1">
  <advance width="906"/>
  <unicode hex="0078"/>
  <outline>
    <contour>
      <point x="174" y="22"/>
      <point x="174" y="0"/>
      <point x="174" y="22" type="curve"/>
      <point x="5" y="22"/>
      <point x="174" y="22"/>
      <point x="5" y="22" type="curve"/>
      <point x="5" y="0"/>
      <point x="5" y="22"/>
      <point x="5" y="0" type="curve"/>
      <point x="61" y="0"/>
      <point x="117" y="0"/>
      <point x="174" y="0" type="curve"/>
    </contour>
    <contour>
      <point x="730" y="22"/>
      <point x="730" y="0"/>
      <point x="730" y="22" type="curve"/>
      <point x="561" y="22"/>
      <point x="730" y="22"/>
      <point x="561" y="22" type="curve"/>
      <point x="561" y="0"/>
      <point x="561" y="22"/>
      <point x="561" y="0" type="curve"/>
      <point x="617" y="0"/>
      <point x="673" y="0"/>
      <point x="730" y="0" type="curve"/>
    </contour>
    <contour>
      <point x="730" y="0"/>
      <point x="730" y="22"/>
      <point x="730" y="0" type="curve"/>
      <point x="786" y="0"/>
      <point x="843" y="0"/>
      <point x="899" y="0" type="curve"/>
      <point x="899" y="22"/>
      <point x="899" y="0"/>
      <point x="899" y="22" type="curve"/>
      <point x="730" y="22"/>
      <point x="899" y="22"/>
      <point x="730" y="22" type="curve"/>
    </contour>
    <contour>
      <point x="174" y="0"/>
      <point x="174" y="22"/>
      <point x="174" y="0" type="curve"/>
      <point x="230" y="0"/>
      <point x="174" y="0"/>
      <point x="343" y="0" type="curve"/>
      <point x="343" y="22"/>
      <point x="343" y="0"/>
      <point x="343" y="22" type="curve"/>
      <point x="174" y="22"/>
      <point x="343" y="22"/>
      <point x="174" y="22" type="curve"/>
    </contour>
    <contour>
      <point x="708" y="511"/>
      <point x="708" y="533"/>
      <point x="708" y="511" type="curve"/>
      <point x="877" y="511"/>
      <point x="708" y="511"/>
      <point x="877" y="511" type="curve"/>
      <point x="877" y="533"/>
      <point x="877" y="511"/>
      <point x="877" y="533" type="curve"/>
      <point x="821" y="533"/>
      <point x="765" y="533"/>
      <point x="708" y="533" type="curve"/>
    </contour>
    <contour>
      <point x="201" y="533"/>
      <point x="201" y="511"/>
      <point x="201" y="533" type="curve"/>
      <point x="144" y="533"/>
      <point x="88" y="533"/>
      <point x="32" y="533" type="curve"/>
      <point x="32" y="511"/>
      <point x="32" y="533"/>
      <point x="32" y="511" type="curve"/>
      <point x="201" y="511"/>
      <point x="32" y="511"/>
      <point x="201" y="511" type="curve"/>
    </contour>
    <contour>
      <point x="201" y="511"/>
      <point x="201" y="533"/>
      <point x="201" y="511" type="curve"/>
      <point x="370" y="511"/>
      <point x="201" y="511"/>
      <point x="370" y="511" type="curve"/>
      <point x="370" y="533"/>
      <point x="370" y="511"/>
      <point x="370" y="533" type="curve"/>
      <point x="313" y="533"/>
      <point x="257" y="533"/>
      <point x="201" y="533" type="curve"/>
    </contour>
    <contour>
      <point x="708" y="533"/>
      <point x="708" y="511"/>
      <point x="708" y="533" type="curve"/>
      <point x="652" y="533"/>
      <point x="595" y="533"/>
      <point x="539" y="533" type="curve"/>
      <point x="539" y="511"/>
      <point x="539" y="533"/>
      <point x="539" y="511" type="curve"/>
      <point x="708" y="511"/>
      <point x="539" y="511"/>
      <point x="708" y="511" type="curve"/>
    </contour>
    <contour>
      <point x="763" y="0"/>
      <point x="730" y="0"/>
      <point x="763" y="0" type="curve"/>
      <point x="575" y="178"/>
      <point x="388" y="355"/>
      <point x="200" y="533" type="curve"/>
      <point x="170" y="533"/>
      <point x="200" y="533"/>
      <point x="170" y="533" type="curve"/>
      <point x="357" y="355"/>
      <point x="544" y="178"/>
      <point x="730" y="0" type="curve"/>
    </contour>
    <contour>
      <point x="711" y="533"/>
      <point x="741" y="533"/>
      <point x="711" y="533" type="curve"/>
      <point x="522" y="355"/>
      <point x="332" y="178"/>
      <point x="142" y="0" type="curve"/>
      <point x="175" y="0"/>
      <point x="142" y="0"/>
      <point x="175" y="0" type="curve"/>
      <point x="363" y="178"/>
      <point x="552" y="355"/>
      <point x="741" y="533" type="curve"/>
    </contour>
  </outline>
</glyph>
<glyph name="y" format="1">
  <advance width="986"/>
  <unicode hex="0079"/>
  <outline>
    <contour>
      <point x="291" y="-278"/>
      <point x="291" y="-300"/>
      <point x="291" y="-278" type="curve"/>
      <point x="126" y="-278"/>
      <point x="291" y="-278"/>
      <point x="126" y="-278" type="curve"/>
      <point x="126" y="-300"/>
      <point x="126" y="-278"/>
      <point x="126" y="-300" type="curve"/>
      <point x="182" y="-300"/>
      <point x="236" y="-300"/>
      <point x="291" y="-300" type="curve"/>
    </contour>
    <contour>
      <point x="174" y="533"/>
      <point x="174" y="511"/>
      <point x="174" y="533" type="curve"/>
      <point x="118" y="533"/>
      <point x="62" y="533"/>
      <point x="5" y="533" type="curve"/>
      <point x="5" y="511"/>
      <point x="5" y="533"/>
      <point x="5" y="511" type="curve"/>
      <point x="174" y="511"/>
      <point x="5" y="511"/>
      <point x="174" y="511" type="curve"/>
    </contour>
    <contour>
      <point x="174" y="511"/>
      <point x="174" y="533"/>
      <point x="174" y="511" type="curve"/>
      <point x="343" y="511"/>
      <point x="174" y="511"/>
      <point x="343" y="511" type="curve"/>
      <point x="343" y="533"/>
      <point x="343" y="511"/>
      <point x="343" y="533" type="curve"/>
      <point x="287" y="533"/>
      <point x="231" y="533"/>
      <point x="174" y="533" type="curve"/>
    </contour>
    <contour>
      <point x="811" y="533"/>
      <point x="811" y="511"/>
      <point x="811" y="533" type="curve"/>
      <point x="755" y="533"/>
      <point x="698" y="533"/>
      <point x="642" y="533" type="curve"/>
      <point x="642" y="511"/>
      <point x="642" y="533"/>
      <point x="642" y="511" type="curve"/>
      <point x="811" y="511"/>
      <point x="642" y="511"/>
      <point x="811" y="511" type="curve"/>
    </contour>
    <contour>
      <point x="811" y="511"/>
      <point x="811" y="533"/>
      <point x="811" y="511" type="curve"/>
      <point x="980" y="511"/>
      <point x="811" y="511"/>
      <point x="980" y="511" type="curve"/>
      <point x="980" y="533"/>
      <point x="980" y="511"/>
      <point x="980" y="533" type="curve"/>
      <point x="924" y="533"/>
      <point x="867" y="533"/>
      <point x="811" y="533" type="curve"/>
    </contour>
    <contour>
      <point x="491" y="4"/>
      <point x="468" y="9"/>
      <point x="491" y="9" type="curve"/>
      <point x="385" y="184"/>
      <point x="278" y="358"/>
      <point x="171" y="533" type="curve"/>
      <point x="144" y="533"/>
      <point x="171" y="533"/>
      <point x="144" y="533" type="curve"/>
      <point x="253" y="357"/>
      <point x="359" y="179"/>
      <point x="468" y="4" type="curve"/>
    </contour>
    <contour>
      <point x="292" y="-300"/>
      <point x="265" y="-300"/>
      <point x="292" y="-300" type="curve"/>
      <point x="475" y="-22"/>
      <point x="658" y="255"/>
      <point x="841" y="533" type="curve"/>
      <point x="814" y="533"/>
      <point x="841" y="533"/>
      <point x="814" y="533" type="curve"/>
      <point x="631" y="255"/>
      <point x="448" y="-22"/>
      <point x="265" y="-300" type="curve"/>
    </contour>
    <contour>
      <point x="478" y="670" type="move" name="top"/>
    </contour>
  </outline>
</glyph>
<glyph name="braceleft" format="1">
  <advance width="402"/>
  <unicode hex="007B"/>
  <outline>
    <contour>
      <point x="353" y="-102"/>
      <point x="353" y="-123"/>
      <point x="353" y="-102" type="curve"/>
      <point x="266" y="-102"/>
      <point x="207" y="-57"/>
      <point x="207" y="26" type="curve"/>
      <point x="207" y="85"/>
      <point x="207" y="144"/>
      <point x="207" y="203" type="curve"/>
      <point x="207" y="297"/>
      <point x="139" y="350"/>
      <point x="41" y="350" type="curve"/>
      <point x="41" y="328"/>
      <point x="41" y="350"/>
      <point x="41" y="328" type="curve"/>
      <point x="125" y="328"/>
      <point x="186" y="286"/>
      <point x="186" y="205" type="curve"/>
      <point x="186" y="146"/>
      <point x="186" y="86"/>
      <point x="186" y="27" type="curve"/>
      <point x="186" y="-69"/>
      <point x="253" y="-123"/>
      <point x="353" y="-123" type="curve"/>
    </contour>
    <contour>
      <point x="353" y="800"/>
      <point x="353" y="779"/>
      <point x="353" y="800" type="curve"/>
      <point x="252" y="800"/>
      <point x="185" y="747"/>
      <point x="185" y="650" type="curve"/>
      <point x="185" y="590"/>
      <point x="185" y="530"/>
      <point x="185" y="470" type="curve"/>
      <point x="185" y="390"/>
      <point x="125" y="350"/>
      <point x="41" y="350" type="curve"/>
      <point x="41" y="328"/>
      <point x="41" y="350"/>
      <point x="41" y="328" type="curve"/>
      <point x="138" y="328"/>
      <point x="206" y="379"/>
      <point x="206" y="473" type="curve"/>
      <point x="206" y="532"/>
      <point x="206" y="591"/>
      <point x="206" y="650" type="curve"/>
      <point x="206" y="733"/>
      <point x="265" y="779"/>
      <point x="353" y="779" type="curve"/>
    </contour>
  </outline>
</glyph>
<glyph name="bar" format="1">
  <advance width="195"/>
  <unicode hex="007C"/>
  <outline>
    <contour>
      <point x="109" y="-300"/>
      <point x="86" y="-300"/>
      <point x="109" y="-300" type="curve"/>
      <point x="109" y="67"/>
      <point x="109" y="433"/>
      <point x="109" y="800" type="curve"/>
      <point x="86" y="800"/>
      <point x="109" y="800"/>
      <point x="86" y="800" type="curve"/>
      <point x="86" y="433"/>
      <point x="86" y="67"/>
      <point x="86" y="-300" type="curve"/>
    </contour>
  </outline>
</glyph>
<glyph name="braceright" format="1">
  <advance width="402"/>
  <unicode hex="007D"/>
  <outline>
    <contour>
      <point x="49" y="-124"/>
      <point x="49" y="-103"/>
      <point x="49" y="-124" type="curve"/>
      <point x="149" y="-124"/>
      <point x="216" y="-70"/>
      <point x="216" y="27" type="curve"/>
      <point x="216" y="86"/>
      <point x="216" y="146"/>
      <point x="216" y="205" type="curve"/>
      <point x="216" y="285"/>
      <point x="277" y="327"/>
      <point x="361" y="327" type="curve"/>
      <point x="361" y="349"/>
      <point x="361" y="327"/>
      <point x="361" y="349" type="curve"/>
      <point x="263" y="349"/>
      <point x="195" y="296"/>
      <point x="195" y="203" type="curve"/>
      <point x="195" y="144"/>
      <point x="195" y="85"/>
      <point x="195" y="26" type="curve"/>
      <point x="195" y="-57"/>
      <point x="136" y="-103"/>
      <point x="49" y="-103" type="curve"/>
    </contour>
    <contour>
      <point x="49" y="778"/>
      <point x="49" y="799"/>
      <point x="49" y="778" type="curve"/>
      <point x="136" y="778"/>
      <point x="194" y="733"/>
      <point x="194" y="650" type="curve"/>
      <point x="194" y="591"/>
      <point x="194" y="532"/>
      <point x="194" y="473" type="curve"/>
      <point x="194" y="378"/>
      <point x="263" y="327"/>
      <point x="361" y="327" type="curve"/>
      <point x="361" y="349"/>
      <point x="361" y="327"/>
      <point x="361" y="349" type="curve"/>
      <point x="276" y="349"/>
      <point x="215" y="389"/>
      <point x="215" y="470" type="curve"/>
      <point x="215" y="530"/>
      <point x="215" y="590"/>
      <point x="215" y="650" type="curve"/>
      <point x="215" y="746"/>
      <point x="148" y="799"/>
      <point x="49" y="799" type="curve"/>
    </contour>
  </outline>
</glyph>
<glyph name="asciitilde" format="1">
  <advance width="850"/>
  <unicode hex="007E"/>
  <outline>
    <contour>
      <point x="737" y="344"/>
      <point x="757" y="337"/>
      <point x="737" y="344" type="curve"/>
      <point x="711" y="289"/>
      <point x="668" y="241"/>
      <point x="594" y="241" type="curve"/>
      <point x="530" y="241"/>
      <point x="485" y="255"/>
      <point x="431" y="290" type="curve"/>
      <point x="376" y="325"/>
      <point x="333" y="345"/>
      <point x="269" y="345" type="curve"/>
      <point x="174" y="345"/>
      <point x="122" y="307"/>
      <point x="93" y="227" type="curve"/>
      <point x="112" y="219"/>
      <point x="93" y="227"/>
      <point x="112" y="219" type="curve"/>
      <point x="136" y="285"/>
      <point x="185" y="324"/>
      <point x="267" y="324" type="curve"/>
      <point x="324" y="324"/>
      <point x="363" y="311"/>
      <point x="410" y="279" type="curve"/>
      <point x="472" y="241"/>
      <point x="519" y="221"/>
      <point x="592" y="220" type="curve"/>
      <point x="680" y="220"/>
      <point x="725" y="267"/>
      <point x="757" y="337" type="curve"/>
    </contour>
  </outline>
</glyph>
<glyph name="exclamdown" format="1">
  <advance width="227"/>
  <unicode hex="00A1"/>
  <outline>
    <contour>
      <point x="101" y="318" type="line"/>
      <point x="96" y="-175" type="line"/>
      <point x="128" y="-175" type="line"/>
      <point x="124" y="318" type="line"/>
    </contour>
    <contour>
      <point x="117" y="535"/>
      <point x="107" y="535"/>
      <point x="93" y="535" type="curve"/>
      <point x="93" y="524"/>
      <point x="101" y="517"/>
      <point x="113" y="517" type="curve"/>
      <point x="124" y="517"/>
      <point x="131" y="524"/>
      <point x="131" y="535" type="curve"/>
      <point x="117" y="535"/>
      <point x="107" y="535"/>
      <point x="93" y="535" type="curve"/>
      <point x="93" y="546"/>
      <point x="101" y="553"/>
      <point x="113" y="553" type="curve"/>
      <point x="124" y="553"/>
      <point x="131" y="546"/>
      <point x="131" y="535" type="curve"/>
    </contour>
  </outline>
</glyph>
<glyph name="cent" format="1">
  <advance width="798"/>
  <unicode hex="00A2"/>
  <outline>
    <contour>
      <point x="426" y="-53"/>
      <point x="403" y="-53"/>
      <point x="426" y="-53" type="curve"/>
      <point x="426" y="-13"/>
      <point x="426" y="27"/>
      <point x="426" y="67" type="curve"/>
      <point x="403" y="67"/>
      <point x="426" y="67"/>
      <point x="403" y="67" type="curve"/>
      <point x="403" y="27"/>
      <point x="403" y="-13"/>
      <point x="403" y="-53" type="curve"/>
    </contour>
    <contour>
      <point x="430" y="778"/>
      <point x="453" y="778"/>
      <point x="430" y="778" type="curve"/>
      <point x="430" y="742"/>
      <point x="430" y="706"/>
      <point x="430" y="670" type="curve"/>
      <point x="453" y="670"/>
      <point x="430" y="670"/>
      <point x="453" y="670" type="curve"/>
      <point x="453" y="706"/>
      <point x="453" y="742"/>
      <point x="453" y="778" type="curve"/>
    </contour>
    <contour>
      <point x="734" y="609"/>
      <point x="721" y="590"/>
      <point x="734" y="609" type="curve"/>
      <point x="636" y="660"/>
      <point x="558" y="679"/>
      <point x="447" y="679" type="curve"/>
      <point x="225" y="679"/>
      <point x="63" y="574"/>
      <point x="63" y="366" type="curve"/>
      <point x="63" y="168"/>
      <point x="205" y="54"/>
      <point x="411" y="54" type="curve"/>
      <point x="536" y="54"/>
      <point x="624" y="82"/>
      <point x="731" y="146" type="curve"/>
      <point x="716" y="163"/>
      <point x="731" y="146"/>
      <point x="716" y="163" type="curve"/>
      <point x="616" y="100"/>
      <point x="532" y="76"/>
      <point x="413" y="76" type="curve"/>
      <point x="219" y="76"/>
      <point x="86" y="181"/>
      <point x="86" y="367" type="curve"/>
      <point x="86" y="561"/>
      <point x="238" y="657"/>
      <point x="445" y="657" type="curve"/>
      <point x="552" y="657"/>
      <point x="628" y="641"/>
      <point x="721" y="590" type="curve"/>
    </contour>
    <contour>
      <point x="712" y="609"/>
      <point x="734" y="609"/>
      <point x="712" y="609" type="curve"/>
      <point x="712" y="489"/>
      <point x="712" y="609"/>
      <point x="712" y="489" type="curve"/>
      <point x="734" y="489"/>
      <point x="712" y="489"/>
      <point x="734" y="489" type="curve"/>
      <point x="734" y="609"/>
      <point x="734" y="489"/>
      <point x="734" y="609" type="curve"/>
    </contour>
  </outline>
</glyph>
<glyph name="sterling" format="1">
  <advance width="664"/>
  <unicode hex="00A3"/>
  <outline>
    <contour>
      <point x="592" y="22"/>
      <point x="592" y="1"/>
      <point x="592" y="22" type="curve"/>
      <point x="410" y="22"/>
      <point x="229" y="22"/>
      <point x="48" y="22" type="curve"/>
      <point x="48" y="1"/>
      <point x="48" y="22"/>
      <point x="48" y="1" type="curve"/>
      <point x="229" y="1"/>
      <point x="410" y="1"/>
      <point x="592" y="1" type="curve"/>
    </contour>
    <contour>
      <point x="528" y="388"/>
      <point x="528" y="367"/>
      <point x="528" y="388" type="curve"/>
      <point x="384" y="388"/>
      <point x="239" y="388"/>
      <point x="95" y="388" type="curve"/>
      <point x="95" y="367"/>
      <point x="95" y="388"/>
      <point x="95" y="367" type="curve"/>
      <point x="239" y="367"/>
      <point x="384" y="367"/>
      <point x="528" y="367" type="curve"/>
    </contour>
    <contour>
      <point x="604" y="674"/>
      <point x="592" y="656"/>
      <point x="604" y="674" type="curve"/>
      <point x="542" y="707"/>
      <point x="494" y="722"/>
      <point x="424" y="722" type="curve"/>
      <point x="257" y="722"/>
      <point x="174" y="566"/>
      <point x="226" y="375" type="curve"/>
      <point x="278" y="184"/>
      <point x="207" y="22"/>
      <point x="48" y="22" type="curve"/>
      <point x="48" y="1"/>
      <point x="48" y="22"/>
      <point x="48" y="1" type="curve"/>
      <point x="230" y="1"/>
      <point x="304" y="174"/>
      <point x="249" y="379" type="curve"/>
      <point x="202" y="555"/>
      <point x="281" y="702"/>
      <point x="423" y="702" type="curve"/>
      <point x="489" y="702"/>
      <point x="534" y="690"/>
      <point x="592" y="656" type="curve"/>
    </contour>
  </outline>
</glyph>
<glyph name="currency" format="1">
  <advance width="732"/>
  <unicode hex="00A4"/>
  <outline>
    <contour>
      <point x="179" y="310"/>
      <point x="156" y="310"/>
      <point x="179" y="310" type="curve"/>
      <point x="179" y="409"/>
      <point x="261" y="458"/>
      <point x="368" y="458" type="curve"/>
      <point x="475" y="458"/>
      <point x="552" y="408"/>
      <point x="552" y="310" type="curve"/>
      <point x="552" y="211"/>
      <point x="476" y="156"/>
      <point x="372" y="156" type="curve"/>
      <point x="260" y="156"/>
      <point x="179" y="207"/>
      <point x="179" y="310" type="curve"/>
      <point x="156" y="310"/>
      <point x="179" y="310"/>
      <point x="156" y="310" type="curve"/>
      <point x="156" y="194"/>
      <point x="247" y="135"/>
      <point x="371" y="135" type="curve"/>
      <point x="490" y="135"/>
      <point x="575" y="198"/>
      <point x="575" y="311" type="curve"/>
      <point x="575" y="422"/>
      <point x="488" y="479"/>
      <point x="370" y="479" type="curve"/>
      <point x="247" y="479"/>
      <point x="156" y="424"/>
      <point x="156" y="310" type="curve"/>
    </contour>
    <contour>
      <point x="527" y="406" type="line"/>
      <point x="662" y="536" type="line"/>
      <point x="641" y="558" type="line"/>
      <point x="510" y="423" type="line"/>
    </contour>
    <contour>
      <point x="508" y="195" type="line"/>
      <point x="639" y="60" type="line"/>
      <point x="660" y="82" type="line"/>
      <point x="525" y="212" type="line"/>
    </contour>
    <contour>
      <point x="203" y="212" type="line"/>
      <point x="68" y="82" type="line"/>
      <point x="89" y="60" type="line"/>
      <point x="220" y="195" type="line"/>
    </contour>
    <contour>
      <point x="220" y="423" type="line"/>
      <point x="89" y="558" type="line"/>
      <point x="68" y="536" type="line"/>
      <point x="203" y="406" type="line"/>
    </contour>
  </outline>
</glyph>
<glyph name="yen" format="1">
  <advance width="1089"/>
  <unicode hex="00A5"/>
  <outline>
    <contour>
      <point x="840" y="371"/>
      <point x="840" y="348"/>
      <point x="840" y="371" type="curve"/>
      <point x="745" y="371"/>
      <point x="650" y="371"/>
      <point x="555" y="371" type="curve"/>
      <point x="555" y="348"/>
      <point x="555" y="371"/>
      <point x="555" y="348" type="curve"/>
      <point x="650" y="348"/>
      <point x="745" y="348"/>
      <point x="840" y="348" type="curve"/>
    </contour>
    <contour>
      <point x="516" y="371"/>
      <point x="516" y="348"/>
      <point x="516" y="371" type="curve"/>
      <point x="423" y="371"/>
      <point x="329" y="371"/>
      <point x="236" y="371" type="curve"/>
      <point x="236" y="348"/>
      <point x="236" y="371"/>
      <point x="236" y="348" type="curve"/>
      <point x="329" y="348"/>
      <point x="423" y="348"/>
      <point x="516" y="348" type="curve"/>
    </contour>
    <contour>
      <point x="840" y="252"/>
      <point x="840" y="229"/>
      <point x="840" y="252" type="curve"/>
      <point x="639" y="252"/>
      <point x="437" y="252"/>
      <point x="236" y="252" type="curve"/>
      <point x="236" y="229"/>
      <point x="236" y="252"/>
      <point x="236" y="229" type="curve"/>
      <point x="437" y="229"/>
      <point x="639" y="229"/>
      <point x="840" y="229" type="curve"/>
    </contour>
    <contour>
      <point x="536" y="22"/>
      <point x="536" y="1"/>
      <point x="536" y="22" type="curve"/>
      <point x="337" y="22"/>
      <point x="536" y="22"/>
      <point x="337" y="22" type="curve"/>
      <point x="337" y="1"/>
      <point x="337" y="22"/>
      <point x="337" y="1" type="curve"/>
      <point x="403" y="1"/>
      <point x="470" y="1"/>
      <point x="536" y="1" type="curve"/>
    </contour>
    <contour>
      <point x="536" y="0"/>
      <point x="536" y="21"/>
      <point x="536" y="0" type="curve"/>
      <point x="602" y="0"/>
      <point x="669" y="0"/>
      <point x="735" y="0" type="curve"/>
      <point x="735" y="22"/>
      <point x="735" y="0"/>
      <point x="735" y="22" type="curve"/>
      <point x="536" y="21"/>
      <point x="735" y="22"/>
      <point x="536" y="21" type="curve"/>
    </contour>
    <contour>
      <point x="855" y="722"/>
      <point x="855" y="701"/>
      <point x="855" y="722" type="curve"/>
      <point x="788" y="722"/>
      <point x="722" y="722"/>
      <point x="656" y="722" type="curve"/>
      <point x="656" y="701"/>
      <point x="656" y="722"/>
      <point x="656" y="701" type="curve"/>
      <point x="855" y="701"/>
      <point x="656" y="701"/>
      <point x="855" y="701" type="curve"/>
    </contour>
    <contour>
      <point x="235" y="722"/>
      <point x="235" y="701"/>
      <point x="235" y="722" type="curve"/>
      <point x="169" y="722"/>
      <point x="102" y="722"/>
      <point x="36" y="722" type="curve"/>
      <point x="36" y="701"/>
      <point x="36" y="722"/>
      <point x="36" y="701" type="curve"/>
      <point x="235" y="701"/>
      <point x="36" y="701"/>
      <point x="235" y="701" type="curve"/>
    </contour>
    <contour>
      <point x="235" y="701"/>
      <point x="235" y="722"/>
      <point x="235" y="701" type="curve"/>
      <point x="434" y="701"/>
      <point x="235" y="701"/>
      <point x="434" y="701" type="curve"/>
      <point x="434" y="722"/>
      <point x="434" y="701"/>
      <point x="434" y="722" type="curve"/>
      <point x="368" y="722"/>
      <point x="301" y="722"/>
      <point x="235" y="722" type="curve"/>
    </contour>
    <contour>
      <point x="855" y="701"/>
      <point x="855" y="722"/>
      <point x="855" y="701" type="curve"/>
      <point x="1054" y="701"/>
      <point x="855" y="701"/>
      <point x="1054" y="701" type="curve"/>
      <point x="1054" y="722"/>
      <point x="1054" y="701"/>
      <point x="1054" y="722" type="curve"/>
      <point x="987" y="722"/>
      <point x="921" y="722"/>
      <point x="855" y="722" type="curve"/>
    </contour>
    <contour>
      <point x="206" y="722"/>
      <point x="231" y="722"/>
      <point x="206" y="722" type="curve"/>
      <point x="312" y="593"/>
      <point x="418" y="464"/>
      <point x="524" y="335" type="curve"/>
      <point x="547" y="335"/>
      <point x="524" y="335"/>
      <point x="547" y="335" type="curve"/>
      <point x="442" y="464"/>
      <point x="336" y="593"/>
      <point x="231" y="722" type="curve"/>
    </contour>
    <contour>
      <point x="858" y="721"/>
      <point x="883" y="721"/>
      <point x="858" y="721" type="curve"/>
      <point x="746" y="592"/>
      <point x="635" y="464"/>
      <point x="524" y="335" type="curve"/>
      <point x="547" y="335"/>
      <point x="524" y="335"/>
      <point x="547" y="335" type="curve"/>
      <point x="659" y="464"/>
      <point x="771" y="593"/>
      <point x="883" y="721" type="curve"/>
    </contour>
    <contour>
      <point x="547" y="0"/>
      <point x="524" y="0"/>
      <point x="547" y="0" type="curve"/>
      <point x="547" y="112"/>
      <point x="547" y="223"/>
      <point x="547" y="335" type="curve"/>
      <point x="524" y="335"/>
      <point x="547" y="335"/>
      <point x="524" y="335" type="curve"/>
      <point x="524" y="223"/>
      <point x="524" y="112"/>
      <point x="524" y="0" type="curve"/>
    </contour>
  </outline>
</glyph>
<glyph name="brokenbar" format="1">
  <advance width="218"/>
  <unicode hex="00A6"/>
  <outline>
    <contour>
      <point x="121" y="-300"/>
      <point x="98" y="-300"/>
      <point x="121" y="-300" type="curve"/>
      <point x="121" y="-176"/>
      <point x="121" y="-52"/>
      <point x="121" y="72" type="curve"/>
      <point x="98" y="72"/>
      <point x="121" y="72"/>
      <point x="98" y="72" type="curve"/>
      <point x="98" y="-52"/>
      <point x="98" y="-176"/>
      <point x="98" y="-300" type="curve"/>
    </contour>
    <contour>
      <point x="121" y="428"/>
      <point x="98" y="428"/>
      <point x="121" y="428" type="curve"/>
      <point x="121" y="552"/>
      <point x="121" y="676"/>
      <point x="121" y="800" type="curve"/>
      <point x="98" y="800"/>
      <point x="121" y="800"/>
      <point x="98" y="800" type="curve"/>
      <point x="98" y="676"/>
      <point x="98" y="552"/>
      <point x="98" y="428" type="curve"/>
    </contour>
  </outline>
</glyph>
<glyph name="section" format="1">
  <advance width="603"/>
  <unicode hex="00A7"/>
  <outline>
    <contour>
      <point x="498" y="709"/>
      <point x="488" y="691"/>
      <point x="498" y="709" type="curve"/>
      <point x="429" y="738"/>
      <point x="377" y="752"/>
      <point x="302" y="752" type="curve"/>
      <point x="197" y="752"/>
      <point x="117" y="716"/>
      <point x="117" y="627" type="curve"/>
      <point x="117" y="540"/>
      <point x="192" y="509"/>
      <point x="282" y="485" type="curve"/>
      <point x="393" y="456"/>
      <point x="513" y="462"/>
      <point x="513" y="361" type="curve"/>
      <point x="513" y="280"/>
      <point x="439" y="241"/>
      <point x="344" y="228" type="curve"/>
      <point x="358" y="211"/>
      <point x="344" y="228"/>
      <point x="358" y="211" type="curve"/>
      <point x="458" y="230"/>
      <point x="536" y="267"/>
      <point x="536" y="361" type="curve"/>
      <point x="535" y="477"/>
      <point x="414" y="477"/>
      <point x="294" y="505" type="curve"/>
      <point x="212" y="525"/>
      <point x="140" y="551"/>
      <point x="140" y="627" type="curve"/>
      <point x="140" y="703"/>
      <point x="209" y="731"/>
      <point x="300" y="731" type="curve"/>
      <point x="372" y="731"/>
      <point x="421" y="719"/>
      <point x="488" y="691" type="curve"/>
    </contour>
    <contour>
      <point x="239" y="513"/>
      <point x="250" y="498"/>
      <point x="239" y="513" type="curve"/>
      <point x="146" y="492"/>
      <point x="71" y="457"/>
      <point x="71" y="367" type="curve"/>
      <point x="71" y="258"/>
      <point x="180" y="247"/>
      <point x="295" y="220" type="curve"/>
      <point x="385" y="196"/>
      <point x="474" y="182"/>
      <point x="474" y="100" type="curve"/>
      <point x="474" y="25"/>
      <point x="398" y="-8"/>
      <point x="305" y="-8" type="curve"/>
      <point x="223" y="-8"/>
      <point x="168" y="8"/>
      <point x="96" y="44" type="curve"/>
      <point x="83" y="28"/>
      <point x="96" y="44"/>
      <point x="83" y="28" type="curve"/>
      <point x="158" y="-13"/>
      <point x="218" y="-29"/>
      <point x="304" y="-29" type="curve"/>
      <point x="411" y="-29"/>
      <point x="497" y="4"/>
      <point x="497" y="100" type="curve"/>
      <point x="495" y="193"/>
      <point x="408" y="217"/>
      <point x="309" y="239" type="curve"/>
      <point x="203" y="266"/>
      <point x="95" y="273"/>
      <point x="95" y="367" type="curve"/>
      <point x="95" y="449"/>
      <point x="164" y="477"/>
      <point x="250" y="498" type="curve"/>
    </contour>
    <contour>
      <point x="105" y="28"/>
      <point x="83" y="28"/>
      <point x="105" y="28" type="curve"/>
      <point x="105" y="148"/>
      <point x="105" y="28"/>
      <point x="105" y="148" type="curve"/>
      <point x="83" y="148"/>
      <point x="105" y="148"/>
      <point x="83" y="148" type="curve"/>
      <point x="83" y="28"/>
      <point x="83" y="148"/>
      <point x="83" y="28" type="curve"/>
    </contour>
    <contour>
      <point x="498" y="589"/>
      <point x="476" y="589"/>
      <point x="498" y="589" type="curve"/>
      <point x="498" y="709"/>
      <point x="498" y="589"/>
      <point x="498" y="709" type="curve"/>
      <point x="476" y="709"/>
      <point x="498" y="709"/>
      <point x="476" y="709" type="curve"/>
      <point x="476" y="589"/>
      <point x="476" y="709"/>
      <point x="476" y="589" type="curve"/>
    </contour>
  </outline>
</glyph>
<glyph name="dieresis" format="1">
  <advance width="416"/>
  <unicode hex="00A8"/>
  <outline>
    <contour>
      <point x="70" y="669"/>
      <point x="80" y="669"/>
      <point x="94" y="669" type="curve"/>
      <point x="94" y="680"/>
      <point x="86" y="687"/>
      <point x="74" y="687" type="curve"/>
      <point x="63" y="687"/>
      <point x="56" y="680"/>
      <point x="56" y="669" type="curve"/>
      <point x="70" y="669"/>
      <point x="80" y="669"/>
      <point x="94" y="669" type="curve"/>
      <point x="94" y="658"/>
      <point x="86" y="651"/>
      <point x="74" y="651" type="curve"/>
      <point x="63" y="651"/>
      <point x="56" y="658"/>
      <point x="56" y="669" type="curve"/>
    </contour>
    <contour>
      <point x="232" y="669"/>
      <point x="242" y="669"/>
      <point x="256" y="669" type="curve"/>
      <point x="256" y="680"/>
      <point x="248" y="687"/>
      <point x="236" y="687" type="curve"/>
      <point x="225" y="687"/>
      <point x="218" y="680"/>
      <point x="218" y="669" type="curve"/>
      <point x="232" y="669"/>
      <point x="242" y="669"/>
      <point x="256" y="669" type="curve"/>
      <point x="256" y="658"/>
      <point x="248" y="651"/>
      <point x="236" y="651" type="curve"/>
      <point x="225" y="651"/>
      <point x="218" y="658"/>
      <point x="218" y="669" type="curve"/>
    </contour>
    <contour>
      <point x="157" y="651" type="move" name="_top"/>
    </contour>
  </outline>
</glyph>
<glyph name="copyright" format="1">
  <advance width="975"/>
  <unicode hex="00A9"/>
  <outline>
    <contour>
      <point x="91" y="319"/>
      <point x="68" y="319"/>
      <point x="91" y="319" type="curve"/>
      <point x="91" y="522"/>
      <point x="271" y="625"/>
      <point x="492" y="625" type="curve"/>
      <point x="707" y="625"/>
      <point x="883" y="519"/>
      <point x="883" y="318" type="curve"/>
      <point x="883" y="122"/>
      <point x="711" y="17"/>
      <point x="500" y="17" type="curve"/>
      <point x="278" y="17"/>
      <point x="91" y="115"/>
      <point x="91" y="319" type="curve"/>
      <point x="68" y="319"/>
      <point x="91" y="319"/>
      <point x="68" y="319" type="curve"/>
      <point x="68" y="104"/>
      <point x="262" y="-4"/>
      <point x="499" y="-4" type="curve"/>
      <point x="725" y="-4"/>
      <point x="906" y="109"/>
      <point x="906" y="319" type="curve"/>
      <point x="906" y="532"/>
      <point x="721" y="645"/>
      <point x="492" y="645" type="curve"/>
      <point x="259" y="645"/>
      <point x="68" y="535"/>
      <point x="68" y="319" type="curve"/>
    </contour>
    <contour>
      <point x="627" y="452"/>
      <point x="648" y="464"/>
      <point x="627" y="452" type="curve"/>
      <point x="627" y="429"/>
      <point x="627" y="405"/>
      <point x="627" y="381" type="curve"/>
      <point x="648" y="381"/>
      <point x="627" y="381"/>
      <point x="648" y="381" type="curve"/>
      <point x="648" y="409"/>
      <point x="648" y="436"/>
      <point x="648" y="464" type="curve"/>
    </contour>
    <contour>
      <point x="649" y="464"/>
      <point x="628" y="453"/>
      <point x="649" y="464" type="curve"/>
      <point x="597" y="488"/>
      <point x="557" y="496"/>
      <point x="500" y="496" type="curve"/>
      <point x="375" y="496"/>
      <point x="283" y="436"/>
      <point x="283" y="319" type="curve"/>
      <point x="283" y="207"/>
      <point x="366" y="146"/>
      <point x="484" y="146" type="curve"/>
      <point x="555" y="146"/>
      <point x="606" y="156"/>
      <point x="667" y="193" type="curve"/>
      <point x="652" y="209"/>
      <point x="667" y="193"/>
      <point x="652" y="209" type="curve"/>
      <point x="597" y="175"/>
      <point x="550" y="166"/>
      <point x="485" y="166" type="curve"/>
      <point x="380" y="166"/>
      <point x="306" y="220"/>
      <point x="306" y="320" type="curve"/>
      <point x="306" y="423"/>
      <point x="387" y="475"/>
      <point x="499" y="475" type="curve"/>
      <point x="552" y="475"/>
      <point x="586" y="468"/>
      <point x="628" y="453" type="curve"/>
    </contour>
  </outline>
</glyph>
<glyph name="ordfeminine" format="1">
  <advance width="563"/>
  <unicode hex="00AA"/>
  <outline>
    <contour>
      <point x="110" y="713"/>
      <point x="104" y="713"/>
      <point x="96" y="713" type="curve"/>
      <point x="96" y="686"/>
      <point x="96" y="667"/>
      <point x="96" y="640" type="curve"/>
      <point x="104" y="640"/>
      <point x="110" y="640"/>
      <point x="118" y="640" type="curve"/>
      <point x="118" y="667"/>
      <point x="118" y="686"/>
      <point x="118" y="713" type="curve"/>
    </contour>
    <contour>
      <point x="390" y="426"/>
      <point x="397" y="426"/>
      <point x="406" y="426" type="curve"/>
      <point x="406" y="520"/>
      <point x="406" y="586"/>
      <point x="406" y="680" type="curve"/>
      <point x="406" y="751"/>
      <point x="335" y="765"/>
      <point x="253" y="765" type="curve"/>
      <point x="191" y="765"/>
      <point x="132" y="743"/>
      <point x="96" y="713" type="curve"/>
      <point x="99" y="706"/>
      <point x="101" y="702"/>
      <point x="104" y="695" type="curve"/>
      <point x="138" y="720"/>
      <point x="192" y="743"/>
      <point x="250" y="743" type="curve"/>
      <point x="320" y="743"/>
      <point x="381" y="733"/>
      <point x="381" y="673" type="curve"/>
      <point x="381" y="582"/>
      <point x="381" y="517"/>
      <point x="381" y="426" type="curve"/>
    </contour>
    <contour>
      <point x="396" y="440"/>
      <point x="396" y="434"/>
      <point x="396" y="426" type="curve"/>
      <point x="427" y="426"/>
      <point x="449" y="426"/>
      <point x="481" y="426" type="curve"/>
      <point x="481" y="434"/>
      <point x="481" y="440"/>
      <point x="481" y="448" type="curve"/>
      <point x="449" y="448"/>
      <point x="427" y="448"/>
      <point x="396" y="448" type="curve"/>
    </contour>
    <contour>
      <point x="393" y="618"/>
      <point x="392" y="623"/>
      <point x="392" y="630" type="curve"/>
      <point x="325" y="623"/>
      <point x="278" y="623"/>
      <point x="211" y="616" type="curve"/>
      <point x="139" y="609"/>
      <point x="83" y="580"/>
      <point x="83" y="513" type="curve"/>
      <point x="83" y="445"/>
      <point x="143" y="418"/>
      <point x="219" y="418" type="curve"/>
      <point x="299" y="418"/>
      <point x="359" y="463"/>
      <point x="399" y="521" type="curve"/>
      <point x="395" y="525"/>
      <point x="391" y="529"/>
      <point x="387" y="533" type="curve"/>
      <point x="351" y="482"/>
      <point x="296" y="440"/>
      <point x="224" y="440" type="curve"/>
      <point x="160" y="440"/>
      <point x="107" y="458"/>
      <point x="107" y="515" type="curve"/>
      <point x="107" y="568"/>
      <point x="152" y="590"/>
      <point x="210" y="596" type="curve"/>
      <point x="277" y="603"/>
      <point x="326" y="604"/>
      <point x="393" y="611" type="curve"/>
    </contour>
  </outline>
</glyph>
<glyph name="guillemotleft" format="1">
  <advance width="783"/>
  <unicode hex="00AB"/>
  <outline>
    <contour>
      <point x="377" y="397"/>
      <point x="377" y="374"/>
      <point x="377" y="397" type="curve"/>
      <point x="79" y="288" type="line"/>
      <point x="79" y="265"/>
      <point x="79" y="288"/>
      <point x="79" y="265" type="curve"/>
      <point x="377" y="374" type="line"/>
    </contour>
    <contour>
      <point x="377" y="179"/>
      <point x="377" y="156"/>
      <point x="377" y="179" type="curve"/>
      <point x="79" y="288" type="line"/>
      <point x="79" y="265"/>
      <point x="79" y="288"/>
      <point x="79" y="265" type="curve"/>
      <point x="377" y="156" type="line"/>
    </contour>
    <contour>
      <point x="683" y="397"/>
      <point x="683" y="374"/>
      <point x="683" y="397" type="curve"/>
      <point x="385" y="288" type="line"/>
      <point x="385" y="265"/>
      <point x="385" y="288"/>
      <point x="385" y="265" type="curve"/>
      <point x="683" y="374" type="line"/>
    </contour>
    <contour>
      <point x="683" y="179"/>
      <point x="683" y="156"/>
      <point x="683" y="179" type="curve"/>
      <point x="385" y="288" type="line"/>
      <point x="385" y="265"/>
      <point x="385" y="288"/>
      <point x="385" y="265" type="curve"/>
      <point x="683" y="156" type="line"/>
    </contour>
  </outline>
</glyph>
<glyph name="logicalnot" format="1">
  <advance width="833"/>
  <unicode hex="00AC"/>
  <outline>
    <contour>
      <point x="116" y="297"/>
      <point x="116" y="321"/>
      <point x="116" y="297" type="curve"/>
      <point x="116" y="297"/>
      <point x="741" y="297"/>
      <point x="741" y="297" type="curve"/>
      <point x="741" y="321"/>
      <point x="741" y="297"/>
      <point x="741" y="321" type="curve"/>
      <point x="741" y="321"/>
      <point x="116" y="321"/>
      <point x="116" y="321" type="curve"/>
    </contour>
    <contour>
      <point x="741" y="153"/>
      <point x="717" y="153"/>
      <point x="741" y="153" type="curve"/>
      <point x="741" y="153"/>
      <point x="741" y="321"/>
      <point x="741" y="321" type="curve"/>
      <point x="717" y="321"/>
      <point x="741" y="321"/>
      <point x="717" y="321" type="curve"/>
      <point x="717" y="321"/>
      <point x="717" y="153"/>
      <point x="717" y="153" type="curve"/>
    </contour>
  </outline>
</glyph>
<glyph name="registered" format="1">
  <advance width="975"/>
  <unicode hex="00AE"/>
  <outline>
    <contour>
      <point x="91" y="319"/>
      <point x="68" y="319"/>
      <point x="91" y="319" type="curve"/>
      <point x="91" y="522"/>
      <point x="271" y="625"/>
      <point x="492" y="625" type="curve"/>
      <point x="707" y="625"/>
      <point x="883" y="519"/>
      <point x="883" y="318" type="curve"/>
      <point x="883" y="122"/>
      <point x="711" y="17"/>
      <point x="500" y="17" type="curve"/>
      <point x="278" y="17"/>
      <point x="91" y="115"/>
      <point x="91" y="319" type="curve"/>
      <point x="68" y="319"/>
      <point x="91" y="319"/>
      <point x="68" y="319" type="curve"/>
      <point x="68" y="104"/>
      <point x="262" y="-4"/>
      <point x="499" y="-4" type="curve"/>
      <point x="725" y="-4"/>
      <point x="906" y="109"/>
      <point x="906" y="319" type="curve"/>
      <point x="906" y="532"/>
      <point x="721" y="645"/>
      <point x="492" y="645" type="curve"/>
      <point x="259" y="645"/>
      <point x="68" y="535"/>
      <point x="68" y="319" type="curve"/>
    </contour>
    <contour>
      <point x="626" y="149"/>
      <point x="643" y="169"/>
      <point x="626" y="149" type="curve"/>
      <point x="654" y="149"/>
      <point x="682" y="149"/>
      <point x="710" y="149" type="curve"/>
      <point x="710" y="169"/>
      <point x="710" y="149"/>
      <point x="710" y="169" type="curve"/>
      <point x="688" y="169"/>
      <point x="665" y="169"/>
      <point x="643" y="169" type="curve"/>
    </contour>
    <contour>
      <point x="401" y="491"/>
      <point x="378" y="470"/>
      <point x="401" y="491" type="curve"/>
      <point x="365" y="491"/>
      <point x="330" y="491"/>
      <point x="294" y="491" type="curve"/>
      <point x="294" y="470"/>
      <point x="294" y="491"/>
      <point x="294" y="470" type="curve"/>
      <point x="322" y="470"/>
      <point x="350" y="470"/>
      <point x="378" y="470" type="curve"/>
    </contour>
    <contour>
      <point x="401" y="170"/>
      <point x="378" y="149"/>
      <point x="401" y="170" type="curve"/>
      <point x="365" y="170"/>
      <point x="330" y="170"/>
      <point x="294" y="170" type="curve"/>
      <point x="294" y="149"/>
      <point x="294" y="170"/>
      <point x="294" y="149" type="curve"/>
      <point x="322" y="149"/>
      <point x="350" y="149"/>
      <point x="378" y="149" type="curve"/>
    </contour>
    <contour>
      <point x="377" y="149"/>
      <point x="400" y="169"/>
      <point x="377" y="149" type="curve"/>
      <point x="408" y="149"/>
      <point x="440" y="149"/>
      <point x="471" y="149" type="curve"/>
      <point x="471" y="169"/>
      <point x="471" y="149"/>
      <point x="471" y="169" type="curve"/>
      <point x="448" y="169"/>
      <point x="424" y="169"/>
      <point x="400" y="169" type="curve"/>
    </contour>
    <contour>
      <point x="509" y="309"/>
      <point x="537" y="309"/>
      <point x="509" y="309" type="curve"/>
      <point x="548" y="256"/>
      <point x="587" y="202"/>
      <point x="626" y="149" type="curve"/>
      <point x="643" y="169"/>
      <point x="626" y="149"/>
      <point x="643" y="169" type="curve"/>
      <point x="537" y="309" type="line"/>
    </contour>
    <contour>
      <point x="401" y="170"/>
      <point x="378" y="149"/>
      <point x="401" y="170" type="curve"/>
      <point x="401" y="277"/>
      <point x="401" y="384"/>
      <point x="401" y="491" type="curve"/>
      <point x="378" y="470"/>
      <point x="401" y="491"/>
      <point x="378" y="470" type="curve"/>
      <point x="378" y="363"/>
      <point x="378" y="256"/>
      <point x="378" y="149" type="curve"/>
    </contour>
    <contour>
      <point x="392" y="295"/>
      <point x="392" y="316"/>
      <point x="392" y="295" type="curve"/>
      <point x="420" y="295"/>
      <point x="449" y="295"/>
      <point x="477" y="295" type="curve"/>
      <point x="562" y="295"/>
      <point x="628" y="314"/>
      <point x="628" y="392" type="curve"/>
      <point x="628" y="463"/>
      <point x="566" y="491"/>
      <point x="487" y="491" type="curve"/>
      <point x="459" y="491"/>
      <point x="430" y="491"/>
      <point x="401" y="491" type="curve"/>
      <point x="378" y="470"/>
      <point x="401" y="491"/>
      <point x="378" y="470" type="curve"/>
      <point x="413" y="470"/>
      <point x="448" y="470"/>
      <point x="483" y="470" type="curve"/>
      <point x="550" y="470"/>
      <point x="605" y="450"/>
      <point x="605" y="390" type="curve"/>
      <point x="605" y="327"/>
      <point x="550" y="316"/>
      <point x="480" y="316" type="curve"/>
      <point x="451" y="316"/>
      <point x="421" y="316"/>
      <point x="392" y="316" type="curve"/>
    </contour>
  </outline>
</glyph>
<glyph name="macron" format="1">
  <advance width="439"/>
  <unicode hex="00AF"/>
  <outline>
    <contour>
      <point x="327" y="680"/>
      <point x="327" y="659"/>
      <point x="327" y="680" type="curve"/>
      <point x="225" y="680"/>
      <point x="124" y="680"/>
      <point x="23" y="680" type="curve"/>
      <point x="23" y="659"/>
      <point x="23" y="680"/>
      <point x="23" y="659" type="curve"/>
      <point x="124" y="659"/>
      <point x="225" y="659"/>
      <point x="327" y="659" type="curve"/>
    </contour>
    <contour>
      <point x="180" y="659" type="move" name="_top"/>
    </contour>
  </outline>
</glyph>
<glyph name="degree" format="1">
  <advance width="584"/>
  <unicode hex="00B0"/>
  <outline>
    <contour>
      <point x="508" y="431" type="curve"/>
      <point x="508" y="560"/>
      <point x="421" y="637"/>
      <point x="290" y="637" type="curve"/>
      <point x="160" y="637"/>
      <point x="75" y="560"/>
      <point x="75" y="433" type="curve"/>
      <point x="97" y="433"/>
      <point x="75" y="433"/>
      <point x="97" y="433" type="curve"/>
      <point x="97" y="547"/>
      <point x="172" y="617"/>
      <point x="288" y="617" type="curve"/>
      <point x="406" y="617"/>
      <point x="486" y="547"/>
      <point x="486" y="431" type="curve"/>
      <point x="486" y="312"/>
      <point x="410" y="238"/>
      <point x="291" y="238" type="curve"/>
      <point x="172" y="238"/>
      <point x="97" y="314"/>
      <point x="97" y="433" type="curve"/>
      <point x="75" y="433"/>
      <point x="97" y="433"/>
      <point x="75" y="433" type="curve"/>
      <point x="75" y="301"/>
      <point x="158" y="217"/>
      <point x="290" y="217" type="curve"/>
      <point x="423" y="217"/>
      <point x="508" y="299"/>
    </contour>
  </outline>
</glyph>
<glyph name="plusminus" format="1">
  <advance width="778"/>
  <unicode hex="00B1"/>
  <outline>
    <contour>
      <point x="77" y="18" type="line"/>
      <point x="702" y="18" type="line"/>
      <point x="702" y="42" type="line"/>
      <point x="77" y="42" type="line"/>
    </contour>
    <contour>
      <point x="77" y="297"/>
      <point x="77" y="321"/>
      <point x="77" y="297" type="curve"/>
      <point x="77" y="297"/>
      <point x="702" y="297"/>
      <point x="702" y="297" type="curve"/>
      <point x="702" y="321"/>
      <point x="702" y="297"/>
      <point x="702" y="321" type="curve"/>
      <point x="702" y="321"/>
      <point x="77" y="321"/>
      <point x="77" y="321" type="curve"/>
    </contour>
    <contour>
      <point x="396" y="18"/>
      <point x="372" y="18"/>
      <point x="396" y="18" type="curve"/>
      <point x="396" y="18"/>
      <point x="396" y="588"/>
      <point x="396" y="588" type="curve"/>
      <point x="372" y="588"/>
      <point x="396" y="588"/>
      <point x="372" y="588" type="curve"/>
      <point x="372" y="588"/>
      <point x="372" y="18"/>
      <point x="372" y="18" type="curve"/>
    </contour>
  </outline>
</glyph>
<glyph name="twosuperior" format="1">
  <advance width="597"/>
  <unicode hex="00B2"/>
  <outline>
    <contour>
      <point x="505" y="297"/>
      <point x="484" y="318"/>
      <point x="505" y="297" type="curve"/>
      <point x="505" y="330"/>
      <point x="505" y="364"/>
      <point x="505" y="398" type="curve"/>
      <point x="484" y="398"/>
      <point x="505" y="398"/>
      <point x="484" y="398" type="curve"/>
      <point x="484" y="371"/>
      <point x="484" y="344"/>
      <point x="484" y="318" type="curve"/>
    </contour>
    <contour>
      <point x="84" y="298"/>
      <point x="84" y="318"/>
      <point x="84" y="297" type="curve"/>
      <point x="232" y="297"/>
      <point x="368" y="297"/>
      <point x="505" y="297" type="curve"/>
      <point x="484" y="318"/>
      <point x="505" y="297"/>
      <point x="484" y="318" type="curve"/>
      <point x="351" y="318"/>
      <point x="218" y="318"/>
      <point x="84" y="318" type="curve"/>
    </contour>
    <contour>
      <point x="141" y="615"/>
      <point x="123" y="627"/>
      <point x="141" y="615" type="curve"/>
      <point x="183" y="667"/>
      <point x="235" y="690"/>
      <point x="308" y="690" type="curve"/>
      <point x="390" y="690"/>
      <point x="455" y="664"/>
      <point x="455" y="592" type="curve"/>
      <point x="455" y="529"/>
      <point x="403" y="507"/>
      <point x="349" y="472" type="curve"/>
      <point x="260" y="421"/>
      <point x="172" y="369"/>
      <point x="84" y="318" type="curve"/>
      <point x="94" y="298"/>
      <point x="84" y="318"/>
      <point x="94" y="298" type="curve"/>
      <point x="184" y="350"/>
      <point x="274" y="403"/>
      <point x="364" y="455" type="curve"/>
      <point x="423" y="495"/>
      <point x="477" y="523"/>
      <point x="477" y="593" type="curve"/>
      <point x="477" y="677"/>
      <point x="403" y="711"/>
      <point x="309" y="711" type="curve"/>
      <point x="228" y="711"/>
      <point x="167" y="689"/>
      <point x="123" y="627" type="curve"/>
    </contour>
    <contour>
      <point x="322" y="709" type="move" name="_top"/>
    </contour>
    <contour>
      <point x="285" y="296" type="move" name="_bottom"/>
    </contour>
  </outline>
</glyph>
<glyph name="threesuperior" format="1">
  <advance width="527"/>
  <unicode hex="00B3"/>
  <outline>
    <contour>
      <point x="112" y="644"/>
      <point x="98" y="658"/>
      <point x="112" y="644" type="curve"/>
      <point x="153" y="673"/>
      <point x="198" y="690"/>
      <point x="249" y="690" type="curve"/>
      <point x="331" y="690"/>
      <point x="400" y="676"/>
      <point x="400" y="604" type="curve"/>
      <point x="400" y="515"/>
      <point x="292" y="521"/>
      <point x="189" y="515" type="curve"/>
      <point x="189" y="497"/>
      <point x="189" y="515"/>
      <point x="189" y="497" type="curve"/>
      <point x="310" y="498"/>
      <point x="423" y="502"/>
      <point x="423" y="606" type="curve"/>
      <point x="423" y="689"/>
      <point x="346" y="710"/>
      <point x="252" y="710" type="curve"/>
      <point x="194" y="710"/>
      <point x="140" y="692"/>
      <point x="98" y="658" type="curve"/>
    </contour>
    <contour>
      <point x="89" y="325"/>
      <point x="101" y="340"/>
      <point x="89" y="325" type="curve"/>
      <point x="138" y="302"/>
      <point x="186" y="292"/>
      <point x="239" y="292" type="curve"/>
      <point x="352" y="289"/>
      <point x="447" y="308"/>
      <point x="444" y="404" type="curve"/>
      <point x="444" y="518"/>
      <point x="319" y="506"/>
      <point x="189" y="508" type="curve"/>
      <point x="189" y="493"/>
      <point x="189" y="508"/>
      <point x="189" y="493" type="curve"/>
      <point x="309" y="488"/>
      <point x="421" y="498"/>
      <point x="421" y="403" type="curve"/>
      <point x="421" y="321"/>
      <point x="340" y="310"/>
      <point x="241" y="312" type="curve"/>
      <point x="192" y="312"/>
      <point x="146" y="320"/>
      <point x="101" y="340" type="curve"/>
    </contour>
    <contour>
      <point x="260" y="709" type="move" name="_top"/>
    </contour>
    <contour>
      <point x="252" y="291" type="move" name="_bottom"/>
    </contour>
  </outline>
</glyph>
<glyph name="acute" format="1">
  <advance width="301"/>
  <unicode hex="00B4"/>
  <outline>
    <contour>
      <point x="35" y="591" type="line"/>
      <point x="233" y="757" type="line"/>
      <point x="193" y="757" type="line"/>
      <point x="5" y="591" type="line"/>
    </contour>
    <contour>
      <point x="20" y="591" type="move" name="_top"/>
    </contour>
  </outline>
</glyph>
